<?xml version="1.0" encoding="utf-8"?>
<!-- Generator: Adobe Illustrator 16.0.0, SVG Export Plug-In . SVG Version: 6.00 Build 0)  -->
<!DOCTYPE svg PUBLIC "-//W3C//DTD SVG 1.1//EN" "http://www.w3.org/Graphics/SVG/1.1/DTD/svg11.dtd">
<svg version="1.1" id="Layer_1" xmlns="http://www.w3.org/2000/svg" xmlns:xlink="http://www.w3.org/1999/xlink" x="0px" y="0px"
	 width="246.667px" height="143.333px" viewBox="0 0 246.667 143.333" enable-background="new 0 0 246.667 143.333"
	 xml:space="preserve">
<g>
</g>
<g>
	<path fill="none" stroke="#231F20" stroke-width="0.5" stroke-miterlimit="10" d="M119.979,50.493
		c-1.342-1.978-2.518-3.491-5.286-5.72l0.084-0.084c1.259,0.168,2.853,0.378,6.839,0.378L119.979,50.493z M131.602,23.704
		l-4.154,1.598l-5.496,19.051c-4.153,0-6.083-0.168-8.936-1.051c1.972-6.015,2.559-7.949,3.188-10.052l0.209-0.799l2.309-7.822
		l-3.734,1.262l-4.154,14.257c-0.923,3.112-2.811,7.738-5.202,10.177c-1.175,1.22-3.104,2.313-5.663,2.313
		c-2.686,0-4.951-1.136-7.134-2.691l-1.846,1.514c3.567,1.64,6.587,1.893,8.391,1.893c5.454,0,10.196-2.607,13.133-8.831
		c2.769,1.472,5.706,4.331,7.468,7.99h2.476l2.266-7.444c0.965-0.042,1.427-0.042,3.188-0.21l0.294-0.883
		c-1.343,0.21-2.14,0.251-3.188,0.336L131.602,23.704z"/>
	<path fill="none" stroke="#231F20" stroke-width="0.5" stroke-miterlimit="10" d="M139.32,43.721
		c-6.251-0.547-8.643,4.29-8.643,6.435c0,1.725,1.049,2.733,2.727,2.733c2.603,0,4.112-2.396,4.867-3.658l0.084,0.084
		c-0.21,0.883-0.294,1.178-0.294,1.767c0,0.504,0,1.724,1.804,1.724c1.091,0,1.974-0.42,4.196-2.019l-0.336-0.715
		c-0.923,0.715-1.762,1.346-2.391,1.346c-0.463,0-0.547-0.421-0.547-0.757c0-0.505,0.252-1.178,0.42-1.683l1.889-5.046h-2.854
		c-1.091,2.523-3.481,7.569-5.412,7.569c-0.42,0-1.091-0.21-1.091-1.178c0-1.64,1.805-5.803,3.986-5.803
		c0.419,0,0.755,0.126,1.133,0.252L139.32,43.721z"/>
	<path fill="none" stroke="#231F20" stroke-width="0.5" stroke-miterlimit="10" d="M150.648,44.226
		c-1.384,5.173-2.644,9.378-5.286,17.916l3.104-0.463l1.428-4.668c1.72-5.594,4.949-11.944,6.922-11.944
		c0.588,0,1.049,0.715,1.049,1.389c0,0.925-1.3,5.719-3.902,5.719c-0.587,0-0.964-0.168-1.3-0.336l-0.462,0.841
		c0.588,0.126,0.924,0.21,1.427,0.21c4.027,0,7.048-3.911,7.048-6.645c0-0.967-0.503-2.565-2.559-2.565
		c-2.182,0-3.44,1.977-5.916,5.72c-0.251,0.379-0.461,0.715-0.797,1.43l-0.084-0.084c0.504-1.977,1.637-4.794,2.559-7.065
		L150.648,44.226z"/>
	<path fill="none" stroke="#231F20" stroke-width="0.5" stroke-miterlimit="10" d="M167.136,44.226
		c-1.384,5.173-2.643,9.378-5.286,17.916l3.104-0.463l1.427-4.668c1.72-5.594,4.95-11.944,6.922-11.944
		c0.588,0,1.049,0.715,1.049,1.389c0,0.925-1.3,5.719-3.901,5.719c-0.587,0-0.964-0.168-1.3-0.336l-0.463,0.841
		c0.589,0.126,0.925,0.21,1.428,0.21c4.026,0,7.048-3.911,7.048-6.645c0-0.967-0.503-2.565-2.56-2.565
		c-2.182,0-3.439,1.977-5.916,5.72c-0.251,0.379-0.461,0.715-0.797,1.43l-0.084-0.084c0.504-1.977,1.638-4.794,2.56-7.065
		L167.136,44.226z"/>
	<path fill="none" stroke="#231F20" stroke-width="0.5" stroke-miterlimit="10" d="M186.603,54.824
		c-1.258,4.669-2.769,6.519-3.523,6.519c-0.545,0-0.587-0.841-0.587-1.051C182.492,58.819,184.086,56.043,186.603,54.824z
		 M183.121,44.058l-1.637,5.72c-0.084,0.252-0.126,0.631-0.126,0.925c0,1.136,0.714,2.103,1.973,2.103
		c1.678,0,2.936-1.135,5.244-4.205l0.42-0.673l0.084,0.084l-1.931,5.299c-1.93,1.262-6.042,3.995-6.042,6.981
		c0,1.135,0.881,1.766,1.805,1.766c1.594,0,3.104-1.43,3.481-1.808c1.764-1.767,2.561-4.08,3.776-7.696l3.272-1.767l-0.126-0.589
		l-2.727,1.22l2.265-7.738h-2.727c-1.971,4.795-4.698,7.738-5.58,7.738c-0.419,0-0.419-0.378-0.419-0.506
		c0-0.251,0.084-0.672,0.168-0.882l1.929-6.351L183.121,44.058z"/>
	<path fill="none" stroke="#231F20" stroke-width="0.5" stroke-miterlimit="10" d="M141.977,74.674
		c-2.392-0.378-4.573-0.673-8.433-0.673c-9.314,0-15.817,2.104-15.817,5.804c0,1.682,1.889,4.206,8.308,5.089l1.51-2.271
		c-6.922-0.379-8.853-1.977-8.853-3.112c0-2.44,8.308-2.944,11.831-2.944c3.356,0,5.412,0.253,7.427,0.547l-2.224,8.074
		c-0.756,2.692-3.104,10.935-6.923,14.846c-2.014,2.104-4.448,2.565-6.251,2.565c-3.651,0-6.42-1.682-8.181-2.775l-1.722,2.313
		c0.168,0.084,0.21,0.084,0.504,0.168c1.218,0.378,4.195,1.346,8.014,1.346c10.279,0,14.475-6.813,16.95-15.393L141.977,74.674z"/>
	<path fill="none" stroke="#231F20" stroke-width="0.5" stroke-miterlimit="10" d="M144.367,102.557
		c-1.006,0-1.258-0.799-1.258-1.346c0-1.598,1.72-6.435,3.607-6.435c0.713,0,1.343,0.673,1.343,1.472
		C148.06,97.342,146.633,102.557,144.367,102.557z M144.242,103.356c3.313,0,6.461-2.354,6.461-5.593
		c0-2.061-1.426-3.617-3.818-3.617c-3.481,0-6.629,2.733-6.629,5.678C140.256,101.758,141.682,103.356,144.242,103.356z"/>
	<path fill="none" stroke="#231F20" stroke-width="0.5" stroke-miterlimit="10" d="M160.562,105.165
		c-0.923,3.617-2.602,6.646-3.733,6.646c-0.505,0-0.799-0.463-0.799-0.968C156.03,110.632,156.072,107.898,160.562,105.165z
		 M163.667,96.165c-2.225,5.384-5.118,5.973-5.244,5.973c-0.546,0-0.798-0.421-0.798-0.842c0-1.136,1.931-6.435,5.245-6.435
		c1.175,0,2.182,0.547,3.104,1.262c0.21-0.547,0.336-0.883,0.336-1.135c0-0.8-3.146-0.842-3.23-0.842
		c-5.874,0-8.518,4.416-8.518,6.771c0,1.304,0.797,2.396,2.35,2.396c1.595,0,3.062-0.967,5.118-2.775l0.084,0.084l-1.133,3.406
		c-2.014,1.22-6.335,3.785-6.335,6.519c0,1.305,0.965,1.977,2.141,1.977c1.174,0,2.643-0.672,3.775-1.808
		c2.056-2.061,3.021-5.846,3.44-7.318l3.439-2.019l-0.336-0.673l-2.769,1.641l1.637-5.762L163.667,96.165z"/>
	<path fill="none" stroke="#231F20" stroke-width="0.5" stroke-miterlimit="10" d="M174.364,100.203
		c1.092-3.701,2.938-5.215,3.734-5.215c0.588,0,0.965,0.504,0.965,1.009C179.063,97.342,176.966,99.235,174.364,100.203z
		 M179.063,100.623c-0.965,0.884-2.098,1.767-3.146,1.767c-0.798,0-1.386-0.547-1.512-1.388c1.554-0.589,6.209-2.271,6.209-4.879
		c0-1.051-0.797-1.851-2.013-1.851c-2.685,0-6.839,3.07-6.839,6.183c0,1.556,1.258,2.901,3.021,2.901
		c2.181,0,4.068-1.598,4.865-2.271L179.063,100.623z"/>
	<path fill="none" stroke="#231F20" stroke-width="0.5" stroke-miterlimit="10" d="M190.014,86.282l-2.224,6.477h-1.258l-0.21,0.715
		h1.217l-1.762,4.921c-0.169,0.505-0.715,2.061-0.715,3.154c0,0.967,0.336,2.061,1.722,2.061c1.678,0,3.606-1.388,4.362-1.935
		l-0.336-0.589c-1.594,1.136-2.391,1.43-2.685,1.43c-0.462,0-0.462-0.546-0.462-0.672c0-0.464,0.252-1.305,0.42-1.81l2.307-6.519
		h2.854l0.168-0.714h-2.77l2.518-7.318L190.014,86.282z"/>
	<path fill="none" stroke="#231F20" stroke-width="0.5" stroke-miterlimit="10" d="M202.894,77.577l-7.678,25.527h2.601
		c2.015-4.668,4.574-7.696,5.622-7.696c0.252,0,0.378,0.211,0.378,0.463c0,0.378-0.462,1.598-0.671,2.187
		c-0.503,1.304-1.007,2.902-1.007,3.659c0,1.43,1.132,1.64,1.804,1.64c1.386,0,2.56-0.799,4.154-2.229l-0.42-0.589
		c-0.084,0.084-0.168,0.126-0.378,0.337c-0.419,0.378-1.384,1.347-2.055,1.347c-0.378,0-0.462-0.296-0.462-0.506
		c0-0.589,0.797-2.229,0.797-2.313c0.294-0.631,1.175-2.523,1.175-3.7c0-1.052-1.049-1.557-1.888-1.557
		c-2.057,0-3.86,1.935-5.874,4.921l-0.084-0.084l7.552-22.374L202.894,77.577z"/>
	<path fill="none" stroke="#231F20" stroke-width="0.5" stroke-miterlimit="10" d="M215.145,100.203
		c1.091-3.701,2.937-5.215,3.734-5.215c0.588,0,0.965,0.504,0.965,1.009C219.844,97.342,217.745,99.235,215.145,100.203z
		 M219.844,100.623c-0.965,0.884-2.099,1.767-3.146,1.767c-0.798,0-1.385-0.547-1.511-1.388c1.553-0.589,6.209-2.271,6.209-4.879
		c0-1.051-0.798-1.851-2.013-1.851c-2.686,0-6.839,3.07-6.839,6.183c0,1.556,1.258,2.901,3.021,2.901
		c2.181,0,4.068-1.598,4.865-2.271L219.844,100.623z"/>
	<path fill="none" stroke="#231F20" stroke-width="0.5" stroke-miterlimit="10" d="M230.08,94.525l-2.602,0.084l-2.602,8.495h2.602
		c0.797-1.684,3.566-7.359,4.531-7.359c0.252,0,0.252,0.336,0.252,0.42c0,0.547-0.252,1.178-0.629,1.977l-0.127,0.211l2.056-0.337
		c0.252-0.715,0.546-1.472,0.546-2.354c0-0.758-0.378-1.304-1.175-1.304c-1.3,0-1.972,1.051-2.978,2.775
		c-0.547,0.925-1.428,2.439-1.176,1.598L230.08,94.525z"/>
	<polyline fill="none" points="12.496,0.472 12.496,112.322 98.984,112.322 98.984,0.472 	"/>
	<polyline fill="none" points="12.496,0.473 12.496,112.322 98.984,112.322 98.984,0.473 	"/>
	<g>
		<defs>
			<rect id="SVGID_37_" x="72.936" y="110.764" width="29.271" height="32.097"/>
		</defs>
		<clipPath id="SVGID_2_">
			<use xlink:href="#SVGID_37_"  overflow="visible"/>
		</clipPath>
	</g>
	<g>
		<defs>
			<rect id="SVGID_39_" x="204.9" y="21.251" width="29.27" height="32.097"/>
		</defs>
		<clipPath id="SVGID_4_">
			<use xlink:href="#SVGID_39_"  overflow="visible"/>
		</clipPath>
		<g clip-path="url(#SVGID_4_)">
			<defs>
				<rect id="SVGID_41_" x="204.9" y="21.251" width="29.27" height="32.097"/>
			</defs>
			<clipPath id="SVGID_6_">
				<use xlink:href="#SVGID_41_"  overflow="visible"/>
			</clipPath>
		</g>
	</g>
</g>
<path d="M93.672,121.023h-0.098v-0.392l-0.098-0.294l-0.097-0.097l-0.294-0.099h-0.392l-0.196,0.196l-0.489,0.098l-0.195-0.294
	H91.42l-0.196-0.293l-0.294-0.587l-0.098-0.882h-0.392v-0.098H90.05l-0.293,0.392v0.686l-0.098,0.293l-0.196,0.196v0.392
	l-0.196,0.293l-0.097,0.098l-0.099,0.098h-0.195l-0.196,0.294h-0.293l-0.099-0.196h-0.489l-0.294,0.293v0.294l-0.293,0.098
	l0.196,0.49l-0.098,0.293v0.294l0.098,0.294l0.196,0.195h0.392v-0.097l0.881-0.098l0.391,0.195l0.098,0.098v0.196h0.098v0.196
	l0.196,0.196v0.392v0.097v0.097v0.099v0.588h0.098v0.392l0.392,0.489l0.391-0.098l0.49-0.392l0.196-0.49v-0.588l0.196-0.097v-0.097
	v-0.392l0.196-0.294v-0.489l0.196-0.197h0.097v-0.098h0.098l0.196-0.294l0.392,0.098l0.489-0.196l0.294-0.196l0.195-0.195
	l-0.098-0.293l0.196-0.196V121.023z M91.127,121.807h-0.098l-0.098,0.098v0.195h-0.195l-0.196,0.392v0.293l-0.391-0.293v-0.196
	l-0.098-0.098l-0.293-0.099l0.097-0.293h-0.392l0.294-0.489h0.196v-0.197l0.098-0.097h0.098l0.098-0.294h0.196l0.392,0.489
	l0.294-0.098l0.196,0.197L91.127,121.807z"/>
<path d="M85.35,126.898l-0.294-0.196h-0.587v-0.098h-0.489v-0.099h-0.587l-0.588-0.293l-0.098-0.294l-0.293-0.195l-0.099-0.393
	l-0.293-0.196v-0.293l-0.293-0.195v-0.686h-0.098v-0.293v-0.392v-0.098v-0.098v-0.097v-0.392h-0.098l0.098-0.587l-0.294-0.294
	l-0.588-0.098l-0.293,0.196l-0.098,0.489l0.098,0.588l-0.196,0.195l0.098,0.294v0.196l-0.098,0.391H80.16v0.391l-0.098,0.295
	l-0.196,0.195l-0.097,0.588l-0.294,0.098l-0.196,0.686h-0.196v0.196l-0.097,0.097h-0.099l-0.098,0.099v0.196l-0.098,0.097
	l-0.392,0.196l-0.196-0.196l-0.783-0.097l-0.293,0.195l-0.392,0.392l-0.196,0.783l0.392,0.293h0.392v-0.098h0.293h0.392h0.098h0.097
	h0.099h0.587l0.293,0.196l0.098,0.098l0.098,0.294l0.098,0.097l0.392,0.098v0.391l0.293,0.098v0.392l0.294,0.196l0.196,0.392v0.392
	l0.195,0.196v0.587h0.098v0.489l0.294,0.392h0.587l0.391-0.294l0.098-0.293v-0.392h0.097l-0.097-0.392v-0.098l0.196-0.294v-0.489
	h0.098l-0.098-0.49v-0.098l0.098-0.392l0.099-0.294h0.097v-0.294l0.392-0.587h0.392h0.098h0.098h0.098h0.587l0.196-0.196
	l0.293-0.098h0.294l0.391-0.098v-0.686L85.35,126.898z M81.922,126.115l0.196,0.293l-0.489-0.196L81.922,126.115z M82.02,127.485
	v0.196l-0.391,0.293l-0.098,0.294v0.686l-0.098,0.293l-0.391-0.392l-0.196-0.098v-0.195l-0.098-0.098l-0.293-0.098l-0.293-0.587
	h-0.098v-0.098h-0.098l-0.195-0.196l-0.099-0.097v-0.197l0.294-0.195v-0.195l0.392-0.295l0.098-0.488l0.293-0.099l-0.098-0.293
	l0.196-0.294l0.196,0.294h0.195l0.098,0.685l0.196,0.294l0.294,0.098v0.196l0.293,0.098l0.098,0.392L82.02,127.485z"/>
<line fill="none" x1="241.814" y1="75.743" x2="241.814" y2="43.646"/>
<line fill="none" x1="212.544" y1="43.646" x2="212.544" y2="75.743"/>
<path d="M213.073,43.414h0.098v0.392l0.098,0.294l0.097,0.097l0.294,0.099h0.392l0.196-0.196l0.489-0.098l0.195,0.294h0.392
	l0.196,0.293l0.294,0.587l0.098,0.882h0.392v0.098h0.392l0.293-0.392v-0.686l0.098-0.293l0.196-0.196v-0.392l0.196-0.293
	l0.097-0.098l0.099-0.098h0.195l0.196-0.294h0.293l0.099,0.196h0.489l0.294-0.293v-0.294l0.293-0.098l-0.196-0.49l0.098-0.293
	v-0.294l-0.098-0.294l-0.196-0.195h-0.392v0.097l-0.881,0.098l-0.391-0.195l-0.098-0.098v-0.196h-0.098v-0.196l-0.196-0.196V40.28
	v-0.097v-0.097v-0.099v-0.588h-0.098v-0.392l-0.392-0.489l-0.391,0.098l-0.49,0.392l-0.196,0.49v0.588l-0.196,0.097v0.097v0.392
	l-0.196,0.294v0.489l-0.196,0.197h-0.097v0.098h-0.098l-0.196,0.294l-0.392-0.098l-0.489,0.196l-0.294,0.196l-0.195,0.195
	l0.098,0.293l-0.196,0.196V43.414z M215.618,42.631h0.098l0.098-0.098v-0.195h0.195l0.196-0.392v-0.293l0.391,0.293v0.196
	l0.098,0.098l0.293,0.099l-0.097,0.293h0.392l-0.294,0.489h-0.196v0.197l-0.098,0.097h-0.098l-0.098,0.294h-0.196l-0.392-0.489
	l-0.294,0.098l-0.196-0.197L215.618,42.631z"/>
<path d="M221.788,37.304l0.294,0.196h0.587v0.098h0.489v0.099h0.587l0.588,0.293l0.098,0.294l0.293,0.195l0.099,0.393l0.293,0.196
	v0.293l0.293,0.195v0.686h0.098v0.293v0.392v0.098v0.098v0.097v0.392h0.098l-0.098,0.587l0.294,0.294l0.588,0.098l0.293-0.196
	l0.098-0.489l-0.098-0.588l0.196-0.195l-0.098-0.294v-0.196l0.098-0.391h0.098v-0.391l0.098-0.295l0.196-0.195l0.097-0.588
	l0.294-0.098l0.196-0.686h0.196v-0.196l0.097-0.097h0.099l0.098-0.099v-0.196l0.098-0.097l0.392-0.196l0.196,0.196l0.783,0.097
	l0.293-0.195l0.392-0.392l0.196-0.783l-0.392-0.293h-0.392v0.098h-0.293h-0.392h-0.098h-0.097h-0.099h-0.587l-0.293-0.196
	l-0.098-0.098l-0.098-0.294l-0.098-0.097l-0.392-0.098v-0.391l-0.293-0.098V34.17l-0.294-0.196l-0.196-0.392v-0.392l-0.195-0.196
	v-0.587h-0.098v-0.489l-0.294-0.392h-0.587l-0.391,0.294l-0.098,0.293v0.392h-0.097l0.097,0.392v0.098l-0.196,0.294v0.489h-0.098
	l0.098,0.49v0.098l-0.098,0.392l-0.099,0.294h-0.097v0.294l-0.392,0.587h-0.392h-0.098h-0.098h-0.098h-0.587l-0.196,0.196
	l-0.293,0.098h-0.294l-0.391,0.098v0.686L221.788,37.304z M225.215,38.087l-0.196-0.293l0.489,0.196L225.215,38.087z
	 M225.117,36.717v-0.196l0.391-0.293l0.098-0.294v-0.686l0.098-0.293l0.391,0.392l0.196,0.098v0.195l0.098,0.098l0.293,0.098
	l0.293,0.587h0.098v0.098h0.098l0.195,0.196l0.099,0.097v0.197l-0.294,0.195v0.195l-0.392,0.295l-0.098,0.488l-0.293,0.099
	l0.098,0.293l-0.196,0.294l-0.196-0.294H225.9l-0.098-0.685l-0.196-0.294l-0.294-0.098v-0.196l-0.293-0.098l-0.098-0.392
	L225.117,36.717z"/>
<path d="M66.199,13.8l-0.185-0.278l-0.277-0.647v-0.37h-0.647l-0.093-0.185h-0.093h-0.371H64.44h-0.092h-0.093h-0.647l-0.37,0.185
	l-0.093,0.277l-0.278,0.092l-0.092,0.278l-0.463,0.462v0.74l0.185,0.185v0.555l0.185,0.555l0.278,0.093l0.093,0.277l0.37,0.092
	v0.093l0.186,0.092h0.37h0.093h0.092h0.093h0.093h0.092h0.092h0.093h0.556l0.37-0.37h0.186l0.092-0.092l0.093-0.092l0.092-0.093
	v-0.185l0.092-0.092l0.371-0.278l0.092-0.833V13.8v-0.093L66.199,13.8z M65.366,14.817l-0.185,0.277l-0.278,0.186h-0.741
	l-0.092-0.186h-0.277l-0.277-0.37v-0.74l0.277-0.37l0.555-0.277l0.648,0.092l0.277,0.277v0.463h0.093V14.817z"/>
<path d="M43.065,22.96l-0.092-0.278V22.22l-0.185-0.463l-0.37-0.37h-0.185l-0.092-0.185l-0.463-0.185h-0.555l-0.277,0.092
	l-0.185,0.186h-0.462l-0.185,0.277h-0.186l-0.185,0.092l-0.093,0.278v0.463h-0.092v0.74l0.186,0.462l0.185,0.185h0.186l0.092,0.185
	h0.185l0.092,0.185l0.371,0.185l0.462,0.093h0.277v-0.093h0.463l0.277-0.092v-0.093h0.277l0.186-0.185v-0.185L42.88,23.7
	l0.093-0.277l-0.093-0.277L43.065,22.96z M42.048,23.146l-0.37,0.277h-0.463l-0.37-0.185l-0.277-0.277v-0.648l0.092-0.093
	l0.093-0.092l0.277-0.185h0.37l0.186,0.093v0.092l0.277,0.092l0.185,0.278V23.146z"/>
<path d="M59.814,26.384v-0.37l-0.185-0.185h-0.093v-0.093h-0.093v-0.092h-0.092v-0.092h-0.093v-0.094h-0.092v-0.092h-0.093
	l-0.092-0.185l-0.462-0.185h-0.37h-0.092h-0.093h-0.092h-0.556l-0.185,0.185h-0.278l-0.37,0.185l-0.37,0.278l-0.093,0.092
	l-0.185,0.277v0.277l-0.185,0.093v0.37h-0.092v0.37h0.092v0.463h0.092v0.37h0.093v0.371l0.185,0.185h0.093v0.092h0.092l0.186,0.277
	l0.37,0.093v0.092h0.185l0.185,0.186h0.833l0.278-0.092v-0.093h0.277l0.185-0.185h0.185V28.79h0.185l0.186-0.185v-0.092h0.093
	v-0.093h0.092v-0.092h0.093v-0.093l0.185-0.092v-0.186L60,27.679v-0.37v-0.092v-0.093v-0.093v-0.555L59.814,26.384z M58.796,27.494
	l-0.277,0.277v0.093h-0.093v0.092l-0.185,0.186l-0.278,0.092H57.5l-0.277-0.092l-0.093-0.278l-0.278-0.093l-0.185-0.37v-0.555
	l0.092-0.277l0.37-0.371l0.277-0.185h0.278h0.278l0.278-0.092l0.37,0.277v0.185l0.185,0.186V27.494z"/>
<g>
	<path d="M26.873,33.046h-0.37v-0.093h-0.277h-0.648v0.093h-0.555l-0.37,0.278l-0.093,0.277v0.37l-0.185,0.185l0.185,0.463v0.462
		l0.278,0.556h0.37H25.3h0.092h0.093h0.092h0.093h0.093h0.092h0.555l0.37-0.185l0.37-0.371v-0.37h0.093v-0.278v-0.925l-0.185-0.278
		L26.873,33.046z M26.318,34.434l-0.185,0.37l-0.186,0.185h-0.37l-0.092-0.093l-0.093-0.37l0.093-0.37l-0.185-0.37l0.185-0.185
		h0.278l0.463,0.37l0.092,0.185V34.434z"/>
	<path d="M31.129,36.655h0.093h0.092h0.092H31.5h0.092h0.092h0.093h0.093h0.555l0.371-0.186l0.277-0.37h0.185l0.093-0.093
		l0.092-0.277h0.092l0.093-0.185v-0.371v-0.092v-0.092v-0.093v-0.092v-0.092v-0.093v-0.093v-0.092v-0.092v-0.093v-0.092v-0.555
		l-0.093-0.277l-0.185-0.278l-0.371-0.093l-0.092-0.277l-0.093-0.092l-0.093-0.092h-0.278l-0.462-0.278l-0.092,0.278l-0.278-0.278
		h-0.185l-0.278,0.093l-0.462,0.277l-0.185,0.185v0.092h-0.093v0.092l-0.462,0.277l-0.092,0.278l-0.278,0.092l-0.093,0.278v0.37
		h-0.092v0.278l0.185,0.833l-0.093,0.37l0.093,0.277l0.185,0.278l0.37,0.092v0.092h0.185l0.186,0.186h0.37h0.093h0.092H31.129z
		 M30.667,35.637l-0.185-0.463v-0.462h-0.093v-0.463l0.37-0.37l0.186-0.462l0.278-0.186h0.74l0.277,0.094l0.371,0.37v0.37h0.092
		v0.556H32.61v0.555l-0.092,0.186h-0.093l-0.092,0.278l-0.462,0.277H31.5v0.092h-0.463L30.667,35.637z"/>
</g>
<path d="M29.648,46.833v0.185h0.186v-0.185H29.648 M20.241,47.358l0.03,0.062L20.241,47.358z"/>
<path d="M53.152,54.051l-0.092,0.185h0.185L53.152,54.051 M53.152,54.791l0.092,0.093L53.152,54.791z"/>
<path fill="#FFFFFF" d="M77.673,58.584l-0.278,0.556l0.185-0.277l0.278-0.278H77.673 M77.21,59.417l0.092,0.092L77.21,59.417
	 M77.117,59.603l0.093,0.092L77.117,59.603z"/>
<path d="M65.829,69.226l0.093,0.185h0.092l0.092-0.185H65.829z"/>
<path d="M72.861,81.533v-0.186l0.093-0.092l0.185-0.185h0.092v-0.092h0.093l0.185-0.186v-0.185l0.185-0.093v-0.277l0.093-0.092
	l0.185-0.092l0.092-0.093l0.185-0.556l0.186-0.092v-0.185l0.184-0.092V78.85l0.185-0.092v-0.186l0.278-0.185l0.092-0.37l0.093-0.092
	l0.462-0.185l0.093-0.278l0.277-0.185l0.185-0.462l0.278-0.093l0.093-0.092v-0.186l0.277-0.185v-0.186l0.092-0.092l0.186-0.093
	l0.092-0.092V75.61l0.093-0.092l0.185-0.092l0.093-0.093v-0.278l0.092-0.092l0.185-0.093l0.093-0.277L78.32,74.5l0.092-0.278
	l0.278-0.092l0.093-0.277l0.185-0.185h0.093v-0.092h0.092v-0.093h0.092V73.39h0.093v-0.092h0.092v-0.094h0.092l0.277-0.277v-0.185
	l0.278-0.185l0.185-0.556l0.277-0.092l0.093-0.092l0.093-0.093l0.37-0.647v-0.278l0.092-0.093l0.371-0.277v-0.185l0.092-0.093
	l0.277-0.093l0.185-0.277l0.093-0.463l0.185-0.278l0.185-0.092l0.093-0.185v-0.37l0.092-0.277h0.092v-0.278l0.371-0.463v-0.37
	l0.277-0.092l0.185-0.277l0.185-0.556l0.277-0.185V65.71l0.186-0.092l0.186-0.371V64.97l0.185-0.185v-0.462l0.277-0.278v-0.555
	H84.89v-0.555l-0.277-0.093h-0.648l-0.277,0.093l-0.185,0.185l-0.185,0.647l-0.277,0.186v0.185l-0.092,0.093l-0.278,0.278
	l-0.371-0.092l-0.278,0.277H81.56l-0.094,0.277l-0.092,0.093l-0.092,0.092h-0.185l-0.092,0.092l-0.093,0.186l-0.277,0.093
	l-0.093,0.092l-0.092,0.37l-0.185,0.185h-0.092v0.092h-0.093l-0.185,0.278h-0.185l-0.092,0.093l-0.277,0.277l-0.093,0.37
	l-0.185,0.092l-0.093,0.278l-0.277,0.092l-0.093,0.093l-0.462,0.37l-0.092,0.278l-0.093,0.092l-0.092,0.093h-0.185l-0.093,0.092
	l-0.185,0.185v0.092h-0.093v0.093l-0.185,0.185h-0.185l-0.093,0.093l-0.277,0.278v0.185l-0.092,0.093l-0.093,0.092L76.1,70.151
	l-0.093,0.278l-0.37,0.277l-0.092,0.093v0.185h-0.278v0.093l-0.093,0.277l-0.184,0.092v0.186l-0.278,0.369h-0.185l-0.092,0.371
	l-0.371,0.277l-0.092,0.093v0.185l-0.278,0.093l-0.185,0.371l-0.278,0.092l-0.37,0.277l-0.092,0.277l-0.093,0.093l-0.37,0.092
	l0.185-0.277v-0.37h0.092l0.092-0.371V73.02l-0.092-0.277l0.37-0.277v-0.463l0.185-0.369l0.277-0.463l0.278-0.185l0.093-0.37
	l0.277-0.185v-0.463l0.278-0.462l0.277-0.186v-0.185l0.185-0.093v-0.185l0.186-0.092v-0.185l0.277-0.185l0.092-0.371h0.093v-0.185
	l0.185-0.463l0.186-0.278h0.092l0.092-0.184l0.093-0.556l0.185-0.277l0.278-0.185l0.093-0.37v-0.278l0.185-0.37l0.278-0.185v-0.185
	l0.278-0.185l0.093-0.37l0.277-0.093l-0.092-0.277l0.092-0.37h0.185v-0.37l0.185-0.185v-0.185h0.092v-0.185h0.093v-0.185
	l0.185-0.186v-0.277l0.278-0.277v-0.278l0.185-0.092l0.093-0.371h0.092v-0.185l0.186-0.186v-0.37l0.185-0.277v-0.37l0.185-0.277
	V58.4l0.185-0.278l0.37-0.277l0.185-0.462v-0.371v-0.092v-0.092v-0.093v-0.462h-0.093v-0.278v-0.833h-0.092v-0.463l-0.74-0.093
	l-0.092,0.278l-0.186,0.185l-0.092,0.093h-0.186v0.37l-0.185,0.092l-0.093,0.556l-0.093,0.093l-0.185,0.092h-0.37l-0.278,0.37
	l-0.092,0.093h-0.185l-0.186,0.277l-0.092,0.462l-0.371,0.185l-0.092,0.463l-0.185,0.369l-0.278,0.185L76.1,59.14v0.462
	l-0.277,0.092l-0.186,0.555l-0.278,0.37l-0.277,0.093l-0.186,0.555l-0.277,0.185v0.185l-0.184,0.092v0.185l-0.093,0.093l-0.37,0.277
	v0.185l-0.185,0.092l-0.371,1.018l-0.185,0.185l-0.092,0.092l-0.185,0.093l-0.093,0.092l-0.185,0.185l-0.092,0.37l-0.463,0.37v0.185
	l-0.277,0.186v0.185l-0.093,0.092l-0.185,0.185h-0.092v0.092H71.38v0.092h-0.092v0.093h-0.092l-0.277,0.556l-0.278,0.092
	l-0.093,0.092v0.185l-0.185,0.092v0.186l-0.186,0.092v0.186L69.9,67.745v0.185l-0.093,0.092l-0.462,0.556l-0.278,0.093l-0.092,0.37
	l-0.277,0.093l-0.093,0.277l-0.185,0.185h-0.093v0.093h-0.092l-0.278,0.277l-0.277,0.37v-0.37l0.092-0.277h0.093l0.092-0.278v-0.371
	l0.185-0.37l0.185-0.185v-0.278l0.185-0.186v-0.277l0.186-0.185v-0.37l0.185-0.277l-0.092-0.37l0.277-0.186l0.092-0.37h0.186
	l0.185-0.277l0.092-0.37l0.278-0.186l0.185-0.37v-0.462l0.462-0.37l0.186-0.555l0.277-0.186v-0.185l0.185-0.092l0.092-0.463h0.092
	l0.093-0.185v-0.371l0.37-0.37l-0.093-0.278l0.463-0.648v-0.462l0.277-0.186v-0.37l0.37-0.277V58.77l0.278-0.277V58.03l0.185-0.37
	l0.278-0.185v-0.463l0.278-0.37l-0.093-0.555l0.277-0.277l-0.092-0.278l0.185-0.277v-0.37l0.278-0.278v-0.462l0.184-0.093v-0.093
	v-0.555l0.277-0.277l-0.092-0.186l0.186-0.185v-0.37h0.092v-0.741l0.185-0.092V51.46v-0.462l0.185-0.278h0.093l0.092-0.185
	l0.092-0.277l-0.092-0.371l0.278-0.277v-0.278l0.185-0.185l0.092-0.277v-0.278h0.092v-0.37l0.186-0.185v-0.185h0.092l0.185-0.278
	v-0.555l0.277-0.37v-0.463l-0.462-0.741h-0.74l-0.371,0.463l-0.462-0.093l-0.278,0.093l-0.093,0.277l-0.184,0.185h-0.093v0.093
	h-0.093l-0.277,0.278l0.092,0.277l-0.185,0.37l-0.278,0.092l-0.278,0.648l0.092-0.278v-0.555l0.186-0.185v-0.37h-0.093l-0.093-0.371
	v-0.185l0.093-0.093v-0.74h0.093v-0.277v-0.741h-0.093v-0.462h-0.093v-0.37h-0.092V43.04l-0.185-0.185l0.092-0.37l-0.092-0.278
	v-0.74l-0.092-0.278h-0.186v-0.277h-0.092v-0.277h-0.093v-0.278l-0.185-0.185v-0.185h-0.093v-0.186h-0.092l-0.092-0.185v-0.277
	l-0.278-0.277l0.093-0.371l-0.093-0.37l-0.185-0.185l-0.277-0.647v-0.555H71.38v-0.37l-0.185-0.185v-0.371l-0.185-0.277
	l-0.185-0.092l-0.185-0.37v-0.463h-0.185v-0.37l-0.278-0.092l-0.092-0.556L69.9,33.694v-0.277l-0.186-0.278l-0.185-0.092
	l-0.185-0.37H68.79v0.093h-0.463l-0.278-0.185l-0.184,0.185h-0.371l-0.277,0.185l-0.462,0.463h-0.371l-0.37,0.185l-0.092,0.185
	h-0.185l-0.093,0.185l-0.185,0.092l-0.277,0.093h-0.556l-0.37,0.186l-0.278,0.185v0.093h-0.185l-0.185,0.277h-0.463l-0.185,0.185
	h-0.185v0.092h-0.186v0.093l-0.185,0.092h-0.648v0.093h-0.37l-0.647,0.277v0.185h-0.278v0.092l-0.37,0.185h-0.37l-0.185,0.186
	h-0.278l-0.186,0.092v0.093l-0.185,0.093h-0.277l-0.186,0.185h-0.277l-0.185,0.092l-0.278,0.37h-0.278l-0.092,0.185l-0.555,0.278
	l-0.185-0.093l-0.277,0.37h-0.463l-0.185,0.185h-0.186v0.092H55.28v0.092l-0.185,0.093h-0.278l-0.185,0.092v0.093l-0.184,0.093
	l-0.556,0.092l-0.185,0.185H53.43l-0.186,0.092v0.093H53.06v0.092h-0.185v0.092l-0.186,0.093h-0.277l-0.185,0.185h-0.278
	l-0.185,0.186h-0.277l-0.185,0.092v0.093l-0.186,0.092h-0.277l-0.185,0.185h-0.277l-0.186,0.093v0.093l-0.463,0.093l-0.277,0.185
	v0.092l-0.185,0.093h-0.278l-0.185,0.092l-0.186,0.277h-0.185l-0.093,0.186h-0.185l-0.093,0.092v0.093l-0.092,0.093l-0.185,0.185
	h-0.277v0.185l-0.37,0.092l-0.186,0.278h-0.37l-0.463,0.277l-0.092,0.185l-0.462,0.092l-0.186,0.185l-0.092,0.093v0.093
	l-0.092,0.092h-0.186l-0.092,0.186h-0.278l-0.185,0.277l-0.647,0.185l-0.185,0.278l-0.648,0.185l-0.185,0.278h-0.186l-0.092,0.184
	h-0.185l-0.092,0.185h-0.37l-0.093,0.278l-0.555,0.185L41.123,46h-0.185l-0.37,0.462L40.29,46.37l-0.463,0.185v0.093h-0.37
	l-0.37,0.277l-0.093,0.093l-0.092,0.277l-0.37-0.093l-0.186,0.37h-0.371v0.093h-0.555l-0.185,0.277h-0.371l-0.185,0.37l-0.371,0.185
	h-0.555l-0.462,0.186l-0.093,0.37l-0.092,0.092l-0.463,0.277l-1.017,0.093v0.186l-0.371,0.092l-0.555,0.555h-0.37l-0.37,0.463
	l-0.37,0.092l-0.37,0.278l-0.186,0.647l0.37,0.371h0.555l0.462-0.278l0.093-0.277l0.277-0.185h0.185l0.277-0.37l0.371-0.186h0.185
	l0.093-0.185l0.462-0.185h0.37l0.278-0.093l0.462-0.185l0.093-0.277l0.277-0.278l0.278-0.093h0.278v-0.093h0.277l0.278-0.093
	l0.092-0.277l0.462-0.277h0.556l0.185-0.185h0.278l0.185-0.093l0.093-0.185h0.185l0.186-0.277h0.185l0.093-0.186h0.37l0.278-0.092
	l0.185-0.185h0.278l0.185-0.093l0.462-0.555h0.463l0.278-0.185l0.185-0.278l0.555-0.185L42.973,46h0.278l0.092-0.185h0.186
	l0.092-0.185l0.462-0.094l0.278-0.185V45.26h0.185l0.185-0.092l0.093-0.184l0.277-0.186l0.463-0.093l0.093-0.278l0.555-0.185
	l0.092-0.185h0.185l0.185-0.277l0.556-0.093l0.093-0.278l0.462-0.093l0.185-0.185l0.092-0.092v-0.185l0.277-0.185l0.371-0.092
	l0.277-0.371h0.185l0.093-0.092l0.092-0.185l0.092-0.092l0.37-0.186h0.556v-0.092h0.37l0.185-0.278h0.277l0.093-0.185h0.37
	l0.277-0.37h0.371l0.37-0.185l0.093-0.093l0.092-0.277h0.925l0.463-0.185v-0.092h0.369l0.278-0.186l0.093-0.185l0.37-0.093
	l0.092-0.185l0.186-0.093l0.278-0.092h0.37l0.462-0.277l0.092-0.186h0.185v-0.092h0.186v-0.093h0.185V38.32h0.186v-0.092h0.185
	l0.278-0.277l0.74-0.185l0.093-0.186h0.278v-0.092h0.277v-0.092h0.278l0.185-0.278h0.74l0.185-0.277l0.278,0.092l0.185-0.185h0.555
	l0.185-0.185h0.185V36.47l0.462-0.278h0.463l0.463-0.37h0.37l0.463-0.37h0.37v-0.093h0.371v-0.092h0.37l0.278-0.278h0.185
	l0.092-0.185l0.463-0.092l0.186-0.186h0.185v-0.092l0.278-0.186l0.462-0.185h0.556l0.185-0.37l0.37,0.092l0.277,0.37l0.092,0.556
	l0.371,0.37l0.092,0.278v0.463l0.37,0.092c-0.073,0.298-0.072,0.465,0.185,0.648v0.37l0.186,0.185v0.462l0.185,0.648l0.278,0.277
	v0.371l0.462,0.647v0.371l0.186,0.277v0.463h0.092v0.37l0.278,0.277v0.37l0.185,0.278v0.092l-0.093,0.277l0.185,0.186v0.278v0.092
	h0.093v0.277v0.278l0.092,0.278l-0.092,0.37l0.092,0.277v0.648l0.185,0.276v0.371v0.092v0.092v0.093v0.647h-0.093v0.278v0.277v0.277
	l0.185,0.185v0.925h-0.092v0.463h-0.093v0.37h-0.092v0.371l0.185,0.185v0.186l-0.093,0.185h-0.092v0.185h-0.092v0.185h-0.093
	l-0.277,0.463l-0.093,0.277v0.462l-0.371,0.371v0.277l-0.185,0.092l-0.277,0.462l-0.185,0.74l-0.186,0.093l-0.185,0.555L69.9,54.884
	l-0.186,0.647H69.53l-0.185,0.278v0.277l-0.186,0.093v0.185l-0.185,0.092l-0.093,0.371l-0.277,0.185l-0.093,0.463l-0.277,0.185
	l-0.093,0.462h-0.185l-0.185,0.647l-0.185,0.278l-0.37,0.277v0.277l-0.185,0.092v0.185l-0.093,0.092l-0.37,0.556l-0.37,0.277
	l-0.185,0.556l-0.185,0.092l-0.185,0.277v0.278l-0.185,0.092v0.278l-0.277,0.185l-0.092,0.371l-0.278,0.185v0.278l-0.278,0.185
	v0.185l-0.185,0.092v0.186l-0.186,0.092L64.07,64.6l-0.37,0.277l-0.092,0.463l-0.278,0.185l-0.092,0.37l-0.463,0.185l-0.278,0.37
	l-0.092,0.371H62.22l-0.092,0.37l-0.186,0.092v0.185H61.85v0.185l-0.093,0.185l-0.277,0.278l-0.093,0.092h-0.185l-0.185,0.555
	l-0.74,0.277l0.092-0.555h0.093v-0.463l0.092-0.277h0.093V67.19l0.185-0.186v-0.462h0.092V66.08l0.186-0.185l0.092-0.277v-0.371
	l0.371-0.37v-0.555l0.184-0.278l0.185-0.092l0.093-0.093v-0.462l0.185-0.093v-0.37l0.277-0.278v-0.37l0.092-0.277h0.093V61.73
	l0.278-0.277v-0.556l0.278-0.277v-0.462l0.278-0.278v-0.462l0.277-0.37v-0.463l0.185-0.369l0.185-0.186v-0.185h0.093l0.093-0.185
	v-0.37l0.37-0.462v-0.371l0.092-0.277l0.186-0.185l0.093-0.278v-0.37l0.092-0.278h0.185l0.092-0.277v-0.463l0.278-0.37l-0.093-0.462
	l0.185-0.37l0.185-0.186v-0.277l0.37-0.555v-0.741l0.093-0.277l0.185-0.186V50.72h0.093l0.185-0.278V49.98h0.093v-0.556l0.185-0.185
	l0.093-0.277v-0.278h0.092v-0.463h0.092l0.093-0.555l-0.093-0.278l0.185-0.092v-0.093l-0.092-0.185v-0.093l0.185-0.185v-0.556h0.093
	v-0.555h0.092l0.092-0.741l-0.184-0.463l-0.555-0.185l-0.185,0.278h-0.186l-0.092,0.092l-0.092,0.277l-0.186,0.093v0.184h-0.092
	v0.185l-0.093,0.185l-0.278,0.094l-0.092,0.462h-0.37h-0.093h-0.092h-0.092h-0.463l-0.278,0.277v0.185l-0.093,0.093l-0.277,0.093
	l-0.093,0.37l-0.37,0.277v0.185l-0.277,0.186v0.185l-0.186,0.093v0.185l-0.092,0.092l-0.185,0.093l-0.093,0.092v0.371h-0.185v0.37
	l-0.278,0.185v0.186l-0.185,0.093v0.185l-0.277,0.186v0.185L61.85,50.35v0.185l-0.185,0.278H61.48l-0.278,0.462v0.278l-0.185,0.092
	v0.185l-0.185,0.092v0.186l-0.185,0.092l-0.185,0.647l-0.185,0.278h-0.092l-0.093,0.185l-0.37,0.833v0.37l-0.185,0.463l-0.185,0.278
	h-0.093l-0.092,0.185v0.277l-0.093,0.186h-0.092l-0.092,0.185l-0.093,0.555l-0.185,0.463l-0.278,0.185l-0.277,0.462l-0.093,0.278
	v0.278h-0.092v0.369l-0.463,0.556v0.277l-0.185,0.093l-0.093,0.37l-0.185,0.093l-0.093,0.185v0.278l-0.092,0.185h-0.092v0.185
	l-0.185,0.463l-0.185,0.277l-0.278,0.185v0.278l-0.185,0.092l-0.093,0.555l-0.185,0.186v0.185h-0.093l-0.277,0.462l-0.37,0.741V64.6
	l-0.185,0.093v0.185l-0.277,0.186v0.185l-0.278,0.278v0.37l-0.185,0.185v0.185h-0.093l-0.185,0.278v0.462l-0.278,0.278l-0.093,0.462
	l-0.277,0.185v0.556l-0.37,0.277l0.092,0.185l-0.185,0.37l-0.556,0.463v-0.555h0.093v-0.648h0.092v-0.556l0.186-0.185l-0.093-0.277
	v-0.186l0.185-0.278v-0.369h0.092v-0.463l0.185-0.092V66.08l-0.092-0.277l0.092-0.185l-0.092-0.371l0.186-0.185V64.6l0.185-0.185
	v-0.371h0.093l0.185-0.833l-0.092-0.277l0.278-0.278l-0.093-0.37l0.278-0.277v-0.463h0.092l0.185-0.463l-0.093-0.555h0.093v-0.462
	h0.093v-0.463l0.185-0.185l0.093-0.277V58.77l0.277-0.277l-0.092-0.463l0.277-0.37v-0.74l0.185-0.185l-0.093-0.37l0.37-0.463
	l0.093-0.278v-0.277l0.278-0.37v-0.371h0.092v-0.462l0.185-0.093v-0.093V53.68v-0.092l0.185-0.092v-0.093V52.94l0.093-0.555
	l0.278-0.371l0.092-0.37V51.46l-0.092-0.277l-0.186-0.185v-0.74l-0.37-0.185l-0.093-0.278l-0.37-0.185l-0.37,0.093l-0.278,0.278
	v0.277L54.54,50.35l-0.092,0.277v0.278l-0.093,0.278l-0.278,0.092l-0.278,0.185l-0.092,0.462l-0.185,0.092v0.186l-0.37,0.277v0.185
	l-0.092,0.092l-0.185,0.185h-0.092v0.092h-0.093v0.093h-0.092v0.093h-0.093v0.092h-0.092v0.092h-0.092v0.093h-0.093v0.092h-0.093
	l-0.186,0.37l-0.277,0.093l-0.277,0.37l-0.092,0.37h-0.093v0.185l-0.185,0.185v0.462l-0.277,0.186l-0.093,0.277v0.555l-0.277,0.278
	v0.37l-0.278,0.185v0.277l-0.278,0.186l-0.185,0.739l-0.37,0.278v0.37l-0.278,0.277v0.277l-0.277,0.186l-0.186,0.647l-0.186,0.092
	v0.186l-0.185,0.092v0.185h-0.093L47.97,61.73l-0.277,0.185L47.6,62.379l-0.277,0.185l-0.093,0.093l-0.185,0.185v0.37h-0.093v0.37
	l-0.278,0.277l-0.277,0.556l0.093,0.37l-0.185,0.278h-0.092l-0.093,0.185l-0.092,0.648L45.75,66.08v0.185h-0.092v0.185h-0.093
	l-0.093,0.186v0.555l-0.371,0.462l0.093,0.277l-0.186,0.278v0.37l-0.185,0.277v0.463h-0.185v-0.37l-0.185-0.093v-0.092v-0.555
	l-0.185-0.186l-0.278-0.092h-0.37l-0.556-0.37l-0.092-0.278l-0.371-0.092l-0.092-0.093v-0.184l-0.185-0.185h-0.092v-0.092h-0.092
	l-0.278-0.463l-0.277-0.092L41.4,65.618l-0.277-0.092l-0.185-0.185v-0.093h-0.092v-0.092l-0.277-0.278L40.013,64.6v-0.277
	l-0.186-0.278l-0.37-0.463l-0.277-0.092l-0.093-0.37l-0.185-0.093l-0.092-0.092v-0.278l-0.093-0.093l-0.37-0.277v-0.185
	l-0.185-0.092l-0.186-0.556l-0.277-0.185l-0.092-0.371l-0.37-0.277v-0.277l-0.093-0.093l-0.278-0.092l-0.185-0.278l-0.093-0.462
	l-0.185-0.185l-0.093-0.092l-0.277-0.185v-0.278l-0.093-0.092l-0.185-0.092L35.663,58.4v-0.648l-0.278-0.092l-0.092-0.462
	l-0.277-0.186l-0.093-0.092v-0.185l-0.278-0.093l-0.185-0.647l-0.463-0.371l0.093-0.185l-0.093-0.092l-0.37-0.278l0.092-0.463
	l-0.277,0.093l-0.186-0.277l-0.092-0.555l-0.277-0.37v-0.37l-0.278-0.371v-0.462l-0.278-0.092l-0.462,0.092v0.833l0.092,0.277h0.093
	v0.277l0.185,0.186l0.093,0.278v0.37h0.092v0.371l0.278,0.555l0.278,0.185v0.278l0.185,0.093v0.185l0.278,0.462l0.185,0.186
	l0.092,0.092h0.092l0.093,0.092v0.186l0.185,0.092l-0.093,0.277l0.186,0.278l0.185,0.093v0.185l0.185,0.093V58.4h0.092l0.093,0.184
	v0.371l0.37,0.277l0.092,0.462h0.185v0.277l0.278,0.093l0.092,0.277l0.185,0.093l0.093,0.092v0.277l0.093,0.092l0.185,0.093
	l0.093,0.37l0.277,0.092l0.185,0.462l0.186,0.093v0.185l0.185,0.093v0.185l0.277,0.185l0.093,0.37l0.37,0.278l0.371,0.555
	l0.186,0.556l0.277,0.092l0.092,0.277l0.37,0.278l0.092,0.37l0.185,0.185h0.093v0.092h0.092l0.278,0.277v0.185l0.092,0.092
	l0.555,0.278l0.185,0.462l0.092,0.092h0.185l0.277,0.278l0.092,0.093v0.185l0.278,0.092l0.093,0.093l0.093,0.37l0.277,0.278h0.37
	l0.648,0.37l0.185,0.371l0.463,0.185c0.154,0.3,0.313,0.385,0.647,0.37l-0.092,0.277v0.556h-0.092v0.463l-0.185,0.185v0.648h-0.093
	v0.37l-0.277,0.37l-0.093,0.277l-0.185,0.556l0.092,0.555h-0.092v0.648h-0.093l-0.092,0.74v0.092l0.092,0.37h-0.092l0.092,0.741
	v0.185l-0.092,0.37h-0.092v0.37l-0.278,0.186v0.833l0.185,0.092v0.093v0.37v0.093v0.092v0.092v0.648h0.093V80.7h0.092v0.278v0.277
	v0.278h0.092v0.278v0.277v0.277l0.186,0.278v0.647l0.185,0.186v0.185h0.092l0.092,0.463l0.278,0.185v0.37l0.277,0.371v0.369h0.093
	v0.371l0.185,0.093v0.37l0.185,0.277l0.092,0.371v0.185l-0.092,0.277l0.186,0.371h0.092v0.37l0.185,0.277v0.37h0.093v0.648
	l0.185,0.278l-0.092,0.462l0.277,0.37v0.556l0.278,0.277v0.37h0.092v0.555l0.277,0.277v0.741h0.092v0.277v0.647h0.093v0.555
	l-0.186,0.186l0.092,0.278v0.925l0.463,0.555h0.37v0.093h0.37l0.37,0.277h0.463l0.185,0.186h0.185v0.092l0.186,0.092h0.833v0.093
	h0.555v0.092l0.462,0.093h0.278v-0.093h0.277v0.093h0.648v-0.093h0.277h0.925l0.277,0.093l0.833,0.092h0.185l0.093-0.092h0.37h0.092
	h0.092h0.093h0.555v0.092h0.37v0.093h0.555l0.186,0.186h0.555v0.092h0.37v0.092l0.555,0.093h0.185l0.092-0.093h0.371h0.092h0.093
	h0.093h0.092h0.092h0.093H60h0.647v-0.092h0.647v-0.092h0.37l0.185-0.186h0.647v-0.093l0.463,0.093l0.278-0.278v-0.462l0.462,0.185
	h0.277l0.185-0.278h0.463l0.185-0.371v-0.462h-0.092v-0.648l0.092-0.277l0.186-0.185v-0.371l0.093-0.277l0.185-0.185v-0.462
	l0.185-0.092v-0.093V93.1h0.092v-0.371l0.186-0.37l0.185-0.093v-0.277l0.277-0.186v-0.37l0.185-0.277l0.371-0.278v-0.277
	l0.185-0.093l0.186-0.555l0.185-0.093v-0.185l0.185-0.186h0.093v-0.092h0.092v-0.093h0.092v-0.092h0.093v-0.092h0.092v-0.093h0.092
	v-0.093h0.093v-0.092h0.093l0.092-0.185h0.185l0.186-0.186l0.092-0.555l0.185-0.185h0.092V87.64h0.092l0.278-0.278v-0.37
	l0.093-0.277l0.277-0.278v-0.277l0.278-0.277l0.092-0.647l0.278,0.092l0.092,0.092l0.093,0.093l0.093,0.37l0.185,0.092l0.092,0.185
	v0.37l0.092,0.371l0.185,0.277l0.186,0.093v0.277h0.092v0.278l0.37,0.278l0.093,0.277v0.37l0.186,0.185v0.37l0.185,0.185v0.186
	h0.093l0.185,0.278v0.37l0.371,0.37l-0.093,0.278v0.185l0.093,0.093v0.555l0.185,0.186l0.093,0.925l-0.463,0.278l-0.462,0.37
	l-0.278,0.37l-0.37,0.093l-0.092,0.185h-0.185l-0.371,0.462l-0.462,0.092l-0.277,0.371h-0.186l-0.092,0.092l-0.093,0.185
	L69.9,95.505h-0.186l-0.092,0.092l-0.092,0.278l-0.185,0.093v0.185l-0.186,0.093l-0.092,0.37l-0.185,0.092v0.186l-0.185,0.092v0.186
	h-0.093v0.185l-0.093,0.185l-0.185,0.092l-0.092,0.185l-0.093,0.278v0.37h-0.093l-0.092,0.555l0.185,0.277l0.093,0.092l0.277,0.092
	h0.463l0.278-0.092l0.37-0.277H69.9l0.185-0.092v-0.093h0.185l0.185-0.092l0.092-0.185l0.371-0.093l0.277-0.277l0.092-0.092v-0.186
	l0.278-0.092l0.093-0.185l0.092-0.093h0.278l0.092-0.185h0.186l0.092-0.092l0.093-0.185l0.092-0.093l0.555-0.277h0.277l0.093-0.186
	h0.185l0.093-0.092l0.185-0.185v-0.092h0.092v-0.093l0.185-0.185l0.462-0.093V95.69l0.278-0.185h0.184l0.093-0.185h0.185
	l0.093-0.092l0.37-0.556l0.277-0.093v-0.185l0.278-0.185h0.277l0.092-0.185h0.185l0.093-0.093l0.093-0.185l0.092-0.093h0.278
	l0.185-0.277h0.37l0.277-0.185l0.092-0.278l0.278-0.093l0.092-0.185l0.092-0.093h0.186l0.092-0.092l0.093-0.277l0.647-0.185
	l0.37-0.278v-0.185h0.185l0.093-0.093v-0.092l0.093-0.092h0.185l0.093-0.185h0.277l0.184-0.278h0.186l0.092-0.093l0.093-0.185
	l0.277-0.185h0.463l0.371-0.185l0.185-0.278h0.185l0.092-0.185h0.186l0.092-0.186h0.185l0.185-0.277l0.37-0.092l0.093-0.186
	l0.37-0.185v-0.37l-0.277-0.277l-0.463-0.186l-0.462-0.092l-0.185,0.092v-0.092h-0.37v-0.092h-0.278h-0.37h-0.092h-0.093h-0.092
	h-0.555v0.092h-0.37l-0.277,0.092v0.093l-0.278,0.093h-0.371l-0.37,0.277l-0.277,0.092h-0.277l-0.278,0.092l-0.37,0.278h-0.278
	l-0.185,0.092v0.093h-0.185l-0.277,0.277h-0.556l-0.555,0.371h-0.37L76.1,89.49l-0.185-0.277l-0.092-0.092h-0.186l-0.092-0.463
	l-0.186-0.093v-0.277l-0.277-0.185l-0.186-0.556l-0.185-0.093V87.27l-0.277-0.185l-0.186-0.462l0.093-0.463l-0.278-0.093
	l-0.185-0.185l-0.186-0.37l-0.185-0.462v-0.463l-0.37-0.37v-0.37l-0.37-0.371l-0.093-0.278v-0.555l-0.277-0.185v-0.555
	L72.861,81.533z M64.163,48.499h0.186v0.186h-0.186V48.499z M72.491,84.586v0.74l0.277,0.185v0.37l0.278,0.277v0.277l0.277,0.186
	l0.185,0.277v0.462l0.093,0.278l0.185,0.093l0.185,0.647l0.277,0.092v0.186v0.277l0.093,0.278l0.277,0.092l0.277,0.371v0.185
	l0.186,0.093l0.092,0.277l0.278,0.092v0.093h0.185l0.186,0.185l0.74-0.093v-0.092h0.37l0.278-0.093l0.185-0.185h0.278l0.185-0.185
	l0.555-0.093l0.185-0.185h0.186v-0.093l0.462-0.092l0.463-0.37l0.277-0.093h0.37l0.371-0.278h0.555v-0.092h0.37h0.092h0.093h0.092
	h0.092h0.093h0.093h0.092h0.093h0.092h0.093h0.093h0.37c-0.111,0.341-0.304,0.408-0.648,0.463l-0.185,0.185l-0.555,0.093
	l-0.186,0.092l-0.092,0.186l-0.555,0.185l-0.092,0.186h-0.186l-0.277,0.37l-0.092,0.092h-0.186l-0.277,0.37h-0.463l-0.278,0.371
	l-0.37,0.092l-0.185,0.555h-0.277v0.186l-0.647,0.462l-0.556,0.185l-0.277,0.277V93.1h-0.093v0.093l-0.185,0.185h-0.462l-0.37,0.37
	l-0.093,0.092v0.185l-0.278,0.277l-0.37,0.093l-0.092,0.185h-0.185l-0.278,0.371l-0.462,0.092l-0.185,0.278h-0.186l-0.092,0.185
	h-0.185l-0.092,0.185l-0.555,0.185l-0.093,0.185h-0.185l-0.186,0.278h-0.185l-0.185,0.277h-0.185l-0.093,0.186h-0.277l-0.185,0.277
	h-0.185l-0.093,0.186h-0.185l-0.092,0.185h-0.186l-0.092,0.093l-0.093,0.185l-0.278,0.092l-0.092,0.278l-0.277,0.092l0.092-0.371
	h0.093v-0.185l0.185-0.185v-0.37l0.278-0.371h0.093v-0.092h0.092l0.186-0.185l0.092-0.092v-0.185l0.185-0.093v-0.185l0.278-0.278
	l0.277-0.092l0.092-0.277l0.186-0.092h0.185v-0.093h0.185l0.092-0.185l0.556-0.186l0.092-0.185h0.185l0.092-0.185h0.186l0.185-0.277
	h0.185l0.371-0.37l0.093-0.092v-0.185l0.185-0.185h0.093V93.1h0.092v-0.093h0.093v-0.092h0.093l0.184-0.185l-0.184-0.277v-0.555
	v-0.093v-0.092v-0.093v-0.37l-0.278-0.277l0.092-0.278l-0.277-0.277v-0.278l-0.092-0.185h-0.093l-0.093-0.463l-0.278-0.092v-0.37
	l-0.092-0.185h-0.093v-0.185l-0.277-0.186l0.185-0.37l-0.37-0.186l-0.185-0.74l-0.37-0.37v-0.371h-0.186v-0.37l-0.185-0.092v-0.277
	l-0.37-0.278l0.092-0.277l-0.278-0.185l-0.092-0.463l-0.37-0.278l0.093-0.555l0.185-0.093v-0.185l0.185-0.093v-0.185l0.278-0.371
	h0.185l0.093,0.463h0.092l0.093,0.278l0.186,0.463l-0.093,0.277L72.491,84.586z M72.121,80.7l-0.277,0.278l-0.185,0.462h-0.185
	l-0.093,0.093l-0.092,0.185h-0.092v0.093h-0.093l-0.185,0.185l-0.093,0.093v0.185l-0.092,0.092l-0.186,0.093l-0.092,0.093v0.185
	l-0.092,0.093l-0.093,0.092l-0.093,0.092H69.9l-0.37,0.37v0.741h-0.093v0.37l-0.278,0.37v0.37l-0.185,0.462l-0.277,0.277v0.37
	l-0.278,0.463h-0.185l-0.093,0.555l-0.277,0.278h-0.093v0.093h-0.092v0.092h-0.092v0.092h-0.093v0.093h-0.092v0.093H67.31
	l-0.185,0.185l-0.093,0.371l-0.277,0.092l-0.186,0.463l-0.277,0.277h-0.186l-0.092,0.092v0.186l-0.185,0.092l-0.092,0.186v0.185
	h-0.093l-0.185,0.277v0.37l-0.37,0.371l-0.186,0.74l-0.371,0.555v0.37l-0.185,0.278v0.37l-0.186,0.092v0.463l-0.185,0.277v0.925
	h-0.462l0.37,0.37l-0.092,0.37L63.7,96.338l-0.185,0.277l-0.093,0.092h-0.185l-0.185-0.37l-0.648,0.092l-0.185,0.371h-0.555v0.092
	h-0.463l-0.277,0.185h-0.462v0.093H60h-0.093h-0.093h-0.092h-0.37v-0.093h-0.278l-0.647,0.093v-0.093h-0.462v0.093h-0.556v-0.37
	h-0.74l-0.277-0.186l-0.278,0.092H56.02l-0.74-0.092v0.092h-0.74l-0.092-0.092h-0.185l-0.463,0.092v-0.092h-0.647v-0.092h-0.648
	h-0.092h-0.092h-0.093h-0.371h-0.277v0.092h-0.37v-0.092h-0.555h-0.185v-0.185h-0.37h-0.093h-0.092H49.82h-0.37l-0.277-0.092
	l-0.278-0.278h-0.37l-0.092-0.185h-0.371L47.97,95.69v-0.555l-0.185-0.278v-0.833v-0.093l0.185-0.092V93.1l-0.555-0.278v-0.647
	h0.092v-0.278l-0.092-0.278l-0.185-0.092l-0.092-0.277v-0.371h-0.093v-0.277l-0.093-0.278l-0.185-0.185l-0.186-0.37l0.092-0.463
	l-0.277-0.185l0.185-0.278v-0.185l-0.185-0.186v-0.74l-0.092-0.278l-0.186-0.185v-0.37l-0.185-0.185l0.092-0.648l-0.185-0.462
	l-0.277-0.186l0.093-0.646h-0.186l-0.093-0.093l-0.185-0.185v-0.555l-0.186-0.371l-0.185-0.092l-0.093-0.278v-0.37l-0.277-0.186
	v-0.37h-0.092v-0.555v-0.093v-0.092v-0.093v-0.37l-0.185-0.278v-0.647v-0.277h-0.093l-0.093-0.463l0.093-0.277l-0.093-0.555v-0.092
	v-0.093v-0.092v-0.093v-0.092v-0.093v-0.092v-0.371l0.278-0.092l0.093-0.463v-0.092l-0.093-0.277l0.093-0.463h0.092v-0.277V75.61
	v-0.277h0.092v-0.74v-0.277h0.093v-0.371h0.092v-0.462l0.186-0.185l-0.093-0.278l0.371-0.555l-0.093-0.185l0.186-0.186l0.092-0.461
	V71.54l-0.092-0.278l0.185-0.185v-0.555v-0.093l0.186-0.093v-0.555v-0.185l0.277-0.185v-0.833l0.092-0.185h0.092l0.186-0.277v-0.371
	l0.277-0.277v-0.555l0.278-0.648l0.092-0.185l0.186-0.093l0.185-0.37v-0.371l0.37-0.277v-0.647l0.277-0.186l0.185-0.37l-0.093-0.462
	l0.185-0.37l0.278-0.093v-0.278l0.278-0.092l0.092-0.185v-0.185h0.093l0.185-0.278v-0.277l0.185-0.093l0.092-0.462l0.277-0.371
	l0.278-0.092v-0.462l0.093-0.278l0.37-0.185v-0.37l0.463-0.556v-0.369l0.092-0.278h0.092l0.093-0.463l0.278-0.092l0.092-0.37h0.092
	v-0.185h0.093v-0.185h0.092l0.186-0.278v-0.462l0.092-0.185h0.093l0.093-0.463l0.185-0.092v-0.278l0.278-0.278v-0.277l0.185-0.37
	l0.37-0.371l0.278-0.092l-0.185,0.648v0.648v0.277h-0.093v0.462l0.093,0.092h0.555l-0.186,0.648h-0.092v0.463l-0.185,0.185
	l0.093,0.463l-0.185,0.277v0.463h-0.093v0.74L53.06,59.14v0.462h-0.093v0.463h-0.092v0.462l-0.186,0.185v0.555h-0.092v0.37v0.092
	v0.093v0.092v0.371l-0.37,0.37l-0.093,0.37v0.093l0.093,0.278l-0.185,0.277v0.37h-0.093v0.648v0.092l-0.185,0.092v0.37l-0.185,0.186
	v0.647l-0.092,0.277l-0.185,0.186l-0.093,0.277v0.462l0.093,0.278l-0.186,0.925l-0.185,0.277v0.648h-0.093v0.555v0.092v0.093v0.093
	v0.092v0.093v0.093v0.092v0.37l0.277,0.277l-0.092,0.278l0.37,0.092l0.277,0.185v-0.185l0.093-0.092h0.092l0.092-0.093v-0.277
	l0.278-0.278l0.093-0.092h0.185l0.093-0.185h0.092v-0.092h0.093l0.185-0.186l0.093-0.37l0.37-0.277l0.185-0.741l0.185-0.37
	l0.186-0.092v-0.278l0.278-0.186l0.185-0.462v-0.278l0.184-0.186V66.82l0.185-0.092l0.186-0.371v-0.37l0.092-0.185l0.185-0.093
	l0.185-0.277l0.093-0.463l0.185-0.093l0.093-0.37l0.278-0.185l0.092-0.463l0.186-0.092l0.092-0.277l-0.092-0.278l0.185-0.37
	l0.37-0.278l0.092-0.462h0.093l0.093-0.278v-0.462l0.277-0.463l0.185-0.092l0.093-0.37h0.093V60.25h0.092v-0.185h0.093V59.88
	l0.185-0.093l0.185-0.462l0.093-0.556l0.277-0.093l0.277-0.555v-0.277l0.093-0.185h0.092v-0.185l0.185-0.092l0.093-0.185v-0.186
	h0.093l0.092-0.462l0.37-0.74l0.37-0.741l0.278-0.277v-0.37l0.185-0.185l0.093-0.556l0.185-0.184v-0.37l0.371-0.278l0.092-0.462
	h0.092v-0.185l0.185-0.092l0.186-0.648l0.092-0.092l0.092-0.093l0.277-0.092l0.093-0.648l0.278-0.093l0.185-0.185l0.093-0.371
	l0.185-0.092l0.093-0.278l0.185,0.648h0.555v0.462l0.093,0.278l0.277,0.186l0.371-0.186l0.462-0.092l0.185-0.186l-0.093,0.463
	l-0.185,0.185v0.555l-0.277,0.556h-0.093v0.185l-0.186,0.185v0.463l-0.185,0.185v0.462h-0.093v0.37v0.092l-0.185,0.093v0.463
	l-0.093,0.277l-0.185,0.185v0.555l-0.277,0.278v0.37l-0.185,0.092v0.37l-0.278,0.186l-0.092,0.555l-0.185,0.186v0.278l-0.186,0.092
	l-0.185,0.369v0.371l-0.277,0.739l-0.185,0.185v0.371l-0.185,0.185l0.093,0.37l-0.278,0.463h-0.093v0.185l-0.184,0.185v0.278H61.48
	v0.277h-0.093l-0.092,0.277v0.463l-0.37,0.278v0.277h-0.092l-0.092,0.277v0.371l-0.278,0.186l-0.185,0.277v0.37l-0.37,0.37v0.555
	l-0.185,0.185v0.463l-0.092,0.277l-0.186,0.184v0.556l-0.277,0.37v0.463h-0.093v0.555h-0.092v0.648h0.092v0.462l0.186,0.093v0.092
	h0.093v0.093l0.185,0.185h0.648l0.185-0.278l0.648,0.093l0.463-0.371l0.093-0.37l0.277-0.185v-0.186l0.185-0.092v-0.186l0.277-0.185
	v-0.185l0.185-0.093v-0.185l0.185-0.092v-0.185l0.185-0.093v-0.185l0.186-0.093v-0.185l0.185-0.093l0.185-0.463l0.278-0.092
	l0.093-0.093l0.277-0.371l0.185-0.277v-0.37l0.277-0.185l0.186-0.555l0.278-0.186l0.093-0.092L64.996,64.6l0.37-0.277v-0.278
	l0.277-0.463l0.278-0.185l0.092-0.371l0.278-0.092l0.185-0.278l-0.093-0.185l0.278-0.185l0.093-0.463l0.277-0.462l0.093-0.093
	l0.462-0.277V60.62l0.462-0.462v-0.186l0.186-0.092l0.092-0.462l0.093-0.092l0.185-0.093l0.093-0.092v-0.277l0.277-0.278v-0.369
	h0.185l0.093-0.093l0.185-0.185l0.093-0.093V57.66l0.277-0.185v-0.555l0.278-0.185v-0.185l0.278-0.185l0.092-0.463h0.092v-0.186
	l0.093-0.185h0.185l0.185-0.37v-0.277l0.092-0.186l0.185-0.093l0.092-0.462l0.278-0.463l0.277-0.092l0.185-0.277v-0.463l0.093-0.185
	h0.092l0.092-0.462l0.37-0.371v-0.37l0.185-0.092V51.09l0.277-0.186l0.185-0.278v-0.462h0.556l-0.092,0.74l0.277,0.278v0.462h-0.093
	v0.463l-0.092,0.277h-0.092l-0.093,0.277l-0.185,0.463l0.092,0.277l-0.278,0.093l0.093,0.555l-0.185,0.277v0.37l-0.093,0.278
	l-0.185,0.185l-0.093,0.277v0.463l-0.185,0.185v0.278h-0.093l-0.092,0.277v0.37h-0.092v0.371l-0.093,0.185l-0.185,0.093
	l-0.093,0.462h-0.092L71.936,58.4v0.369l-0.277,0.186v0.37l-0.185,0.462l-0.278,0.185v0.463l-0.37,0.555v0.277l-0.185,0.185
	l-0.185,0.37v0.37l-0.37,0.278l-0.093,0.185v0.185H69.9l-0.093,0.37l-0.277,0.093l-0.277,0.37v0.37h-0.093v0.278L69.067,64.6
	l-0.462,0.37l-0.093,0.463l-0.185,0.093l-0.278,0.462v0.37l-0.092,0.278h-0.092l-0.186,0.369v0.463l-0.092,0.277L67.31,67.93
	l-0.278,0.556v0.092v0.277v0.093l-0.185,0.092v0.371l-0.092,0.185h-0.093v0.185l-0.185,0.185v0.556l-0.278,0.185l0.185,0.648
	l0.185,0.278h0.463V71.54h0.647l0.37-0.278v-0.092h0.093v-0.092l0.185-0.186h0.185l0.093-0.185l0.37-0.092l0.092-0.278l0.186-0.092
	l0.092-0.093v-0.278l0.185-0.185h0.092v-0.093h0.092v-0.092h0.093v-0.093H69.9v-0.093h0.092v-0.092h0.093l0.185-0.186l0.093-0.092
	v-0.185l0.185-0.092v-0.185l0.278-0.185v-0.185l0.37-0.278l0.092-0.37l0.092-0.093l0.186-0.092l0.093-0.092v-0.186l0.37-0.277
	l0.092-0.092V66.45l0.463-0.37l0.092-0.093v-0.185l0.185-0.093v-0.185l0.186-0.093v-0.186l0.092-0.092l0.185-0.092l0.092-0.093
	v-0.185l0.278-0.185v-0.185l0.093-0.093l0.185-0.093l0.092-0.093v-0.185l0.278-0.186v-0.185l0.185-0.092l0.185-0.555l0.185-0.093
	v-0.185l0.186-0.093v-0.185l0.277-0.186v-0.278l0.186-0.277l0.092-0.092h0.186l0.092-0.093l0.185-0.277v-0.185l0.185-0.093v-0.185
	l0.186-0.093v-0.185l0.185-0.093v-0.185l0.185-0.278h0.185l0.093,0.556l0.648,0.092l0.278-0.185l-0.093,0.093v0.277l-0.092,0.185
	h-0.093v0.186h-0.092v0.185H77.58v0.185h-0.092l-0.093,0.185v0.277l-0.185,0.186v0.278l-0.278,0.277l-0.093,0.278v0.37l-0.185,0.277
	l-0.185,0.093v0.185l-0.186,0.093l-0.092,0.37l-0.185,0.093V64.6h-0.092v0.185h-0.092v0.185h-0.093l-0.092,0.463l-0.278,0.277v0.37
	l-0.277,0.185l-0.186,0.278l-0.092,0.462h-0.092v0.186h-0.093v0.185h-0.092v0.186l-0.185,0.092l-0.093,0.185v0.185h-0.092
	l-0.093,0.371l-0.277,0.185v0.185l-0.185,0.092l-0.093,0.371l-0.185,0.092v0.278l-0.277,0.462l-0.186,0.093l-0.092,0.463
	l-0.185,0.277l-0.277,0.093l-0.371,0.648v0.461l-0.277,0.186l-0.093,0.37l-0.186,0.093l-0.092,0.462L71.01,73.39v0.277l-0.185,0.092
	v0.185l-0.278,0.277v0.371l0.186,0.277v0.37l0.277,0.463l0.833,0.092v-0.092h0.371l0.37-0.186l0.092-0.278l0.555-0.185l0.185-0.37
	l0.278-0.093v-0.185h0.186l0.092-0.092l0.092-0.186l0.093-0.093h0.185v-0.185l0.277-0.093l0.093-0.092l0.092-0.092v-0.277
	l0.278-0.186v-0.185l0.277-0.185l0.093-0.37l0.277-0.278h0.186l0.092-0.092L76.1,71.54h0.185l0.093-0.093v-0.092h0.093v-0.093h0.092
	l0.185-0.185l0.092-0.278l0.278-0.093l0.093-0.277h0.185l0.093-0.093l0.277-0.37l0.093-0.093h0.185l0.277-0.37h0.185l0.093-0.093
	l0.093-0.277l0.185-0.093l0.092-0.277l0.278-0.092l0.371-0.463l0.092-0.278l0.463-0.185l0.092-0.092l0.092-0.092l0.093-0.093V67.19
	l0.185-0.093v-0.092h0.093v-0.092h0.092V66.82h0.092v-0.092h0.093v-0.092h0.092v-0.093l0.185-0.186l0.184-0.093l0.094,0.093
	l-0.371,0.371v0.185l-0.37,0.277l-0.185,0.37v0.555l0.185,0.185h0.463l0.278-0.185l0.092,0.37l-0.186,0.185l-0.092,0.092h-0.092
	l-0.093,0.092v0.278l-0.37,0.277v0.37l-0.185,0.092v0.185l-0.185,0.093v0.185l-0.277,0.186l-0.093,0.37l-0.278,0.186v0.185
	l-0.37,0.278l-0.092,0.277l-0.186,0.184l-0.278,0.092l-0.092,0.093v0.278l-0.278,0.277h-0.092v0.092H78.32l-0.185,0.185
	l-0.092,0.278l-0.278,0.092l-0.37,0.555H77.21l-0.093,0.092l-0.37,0.463v0.186l-0.185,0.092l-0.092,0.277l-0.37,0.092v0.371
	l-0.463,0.37l-0.092,0.371l-0.093,0.092l-0.185,0.092l-0.093,0.093v0.185l-0.278,0.185v0.185l-0.369,0.278l-0.092,0.278
	l-0.278,0.092l-0.093,0.185v0.185h-0.092l-0.092,0.37l-0.371,0.278l-0.093,0.462l-0.185,0.092v0.185l-0.185,0.371l-0.278,0.092
	l-0.093,0.277l-0.185,0.093l-0.093,0.277L72.121,80.7z"/>
<path d="M82.484,88.843v0.092l0.37-0.185L82.484,88.843 M79.801,89.305l-0.185,0.093v0.092L79.801,89.305 M77.765,90.231
	l0.093,0.092L77.765,90.231 M77.302,90.416v0.092l0.371-0.092H77.302 M77.086,90.539l0.062,0.031L77.086,90.539 M76.839,90.601
	l0.093,0.092L76.839,90.601 M70.363,97.171l0.277-0.186L70.363,97.171 M49.82,102.907l-0.093,0.278h0.278L49.82,102.907
	 M53.615,109.663l0.092,0.092L53.615,109.663z"/>
</svg>
