<?xml version="1.0" encoding="utf-8"?>
<!-- Generator: Adobe Illustrator 16.0.0, SVG Export Plug-In . SVG Version: 6.00 Build 0)  -->
<!DOCTYPE svg PUBLIC "-//W3C//DTD SVG 1.1//EN" "http://www.w3.org/Graphics/SVG/1.1/DTD/svg11.dtd">
<svg version="1.1" id="Layer_1" xmlns="http://www.w3.org/2000/svg" xmlns:xlink="http://www.w3.org/1999/xlink" x="0px" y="0px"
	 width="246.667px" height="143.333px" viewBox="0 0 246.667 143.333" enable-background="new 0 0 246.667 143.333"
	 xml:space="preserve">
<g>
	<g>
		<path fill="none" stroke="#231F20" stroke-width="0.5" stroke-miterlimit="10" d="M2.734,28.29c0-1.852,3.44-1.978,4.195-1.978
			c2.267,0,4.363,0.799,6.881,1.852c-3.229,2.396-5.706,2.522-6.881,2.522C4.623,30.687,2.734,29.803,2.734,28.29"/>
		<path fill="none" stroke="#231F20" stroke-width="0.5" stroke-miterlimit="10" d="M1.475,28.036c0,2.86,3.567,3.491,5.622,3.491
			c3.147,0,6.126-0.841,8.686-2.649c3.062,1.22,6.923,2.312,10.446,2.439l1.428-2.775c-3.777-0.084-8.015-1.179-9.693-1.725
			c2.35-2.062,3.315-5.173,4.868-10.304c0.377-1.304,4.195-13.836,7.467-13.836c1.133,0,1.385,1.219,1.385,1.85
			c0,1.39-0.462,3.365-1.888,7.36l-0.42,1.304l3.021-0.463c1.134-2.733,1.47-5.131,1.47-6.519c0-2.061-1.007-4.332-3.735-4.332
			c-0.964,0-2.768,0.295-4.866,2.313c-0.923,1.009-1.385,1.557-2.097,2.733c-1.847,3.154-3.105,7.065-4.155,10.809
			c-1.594,5.719-2.474,7.149-3.313,8.495c-2.392-0.884-5.789-2.104-8.434-2.104C4.33,24.125,1.475,25.387,1.475,28.036"/>
		<path fill="none" stroke="#231F20" stroke-width="0.5" stroke-miterlimit="10" d="M36.466,30.434c-1.008,0-1.26-0.799-1.26-1.346
			c0-1.598,1.722-6.435,3.609-6.435c0.712,0,1.342,0.673,1.342,1.472C40.158,25.219,38.732,30.434,36.466,30.434z M36.339,31.232
			c3.314,0,6.463-2.354,6.463-5.593c0-2.061-1.428-3.617-3.818-3.617c-3.483,0-6.629,2.733-6.629,5.678
			C32.355,29.635,33.781,31.232,36.339,31.232z"/>
		<path fill="none" stroke="#231F20" stroke-width="0.5" stroke-miterlimit="10" d="M48.842,22.401
			c-0.085,0.252-0.125,0.294-0.251,0.715c-1.008,2.817-1.344,4.416-1.344,5.551c0,1.304,0.755,2.734,2.267,2.734
			c3.523,0,7.3-6.057,8.223-9.379l-2.098,0.169c-1.595,6.224-3.483,7.737-4.657,7.737c-0.587,0-1.091-0.462-1.091-1.219
			c0-1.094,0.714-3.281,1.217-4.542c0.504-1.304,0.588-1.599,0.713-2.146L48.842,22.401z"/>
		<path fill="none" stroke="#231F20" stroke-width="0.5" stroke-miterlimit="10" d="M62.94,28.079
			c1.091-3.701,2.936-5.215,3.732-5.215c0.588,0,0.966,0.504,0.966,1.009C67.638,25.219,65.54,27.111,62.94,28.079z M67.638,28.499
			c-0.966,0.884-2.099,1.767-3.146,1.767c-0.797,0-1.384-0.547-1.51-1.388c1.552-0.589,6.209-2.271,6.209-4.879
			c0-1.051-0.797-1.851-2.015-1.851c-2.685,0-6.839,3.07-6.839,6.183c0,1.556,1.259,2.901,3.021,2.901
			c2.181,0,4.069-1.598,4.867-2.271L67.638,28.499z"/>
		<path fill="none" stroke="#231F20" stroke-width="0.5" stroke-miterlimit="10" d="M109.341,11.635
			c1.301-0.967,5.075-3.658,5.075-6.182c0-3.322-4.782-3.322-5.957-3.322c-7.637,0-14.348,3.911-14.348,9
			c0,2.943,2.558,4.92,5.621,7.19c4.489,3.323,5.664,4.626,5.664,6.771c0,4.079-4.448,5.636-8.77,5.636
			c-4.865,0-8.684-1.767-11.579-3.154l-1.889,2.229c2.016,0.547,6.126,1.725,12.251,1.725c2.435,0,12.965-0.253,12.965-7.402
			c0-3.49-2.559-5.383-4.53-6.896c-2.938-2.187-4.112-3.281-4.825-3.995c-1.259-1.262-1.847-2.229-1.847-3.701
			c0-3.743,5.496-6.771,11.411-6.771c1.428,0,3.651,0.21,3.651,1.808c0,1.809-3.063,3.954-4.951,5.258
			c-0.336,0.21-0.504,0.336-0.84,0.588L109.341,11.635z"/>
		<path fill="none" stroke="#231F20" stroke-width="0.5" stroke-miterlimit="10" d="M121.046,22.064
			c-6.252-0.547-8.645,4.29-8.645,6.435c0,1.725,1.049,2.733,2.729,2.733c2.602,0,4.11-2.396,4.866-3.658l0.083,0.084
			c-0.209,0.883-0.293,1.178-0.293,1.767c0,0.504,0,1.724,1.805,1.724c1.091,0,1.972-0.42,4.194-2.019l-0.335-0.715
			c-0.924,0.715-1.762,1.346-2.391,1.346c-0.462,0-0.546-0.421-0.546-0.757c0-0.505,0.252-1.178,0.42-1.683l1.887-5.046h-2.852
			c-1.091,2.523-3.483,7.569-5.412,7.569c-0.42,0-1.091-0.21-1.091-1.178c0-1.64,1.804-5.803,3.984-5.803
			c0.42,0,0.755,0.126,1.133,0.252L121.046,22.064z"/>
		<path fill="none" stroke="#231F20" stroke-width="0.5" stroke-miterlimit="10" d="M131.953,22.401
			c-0.084,0.252-0.125,0.294-0.251,0.715c-1.007,2.817-1.343,4.416-1.343,5.551c0,1.304,0.755,2.734,2.267,2.734
			c3.523,0,7.3-6.057,8.223-9.379l-2.098,0.169c-1.595,6.224-3.483,7.737-4.657,7.737c-0.587,0-1.091-0.462-1.091-1.219
			c0-1.094,0.714-3.281,1.217-4.542c0.504-1.304,0.588-1.599,0.713-2.146L131.953,22.401z"/>
		<path fill="none" stroke="#231F20" stroke-width="0.5" stroke-miterlimit="10" d="M146.051,28.079
			c1.092-3.701,2.936-5.215,3.732-5.215c0.588,0,0.967,0.504,0.967,1.009C150.75,25.219,148.651,27.111,146.051,28.079z
			 M150.75,28.499c-0.967,0.884-2.1,1.767-3.146,1.767c-0.797,0-1.385-0.547-1.51-1.388c1.551-0.589,6.209-2.271,6.209-4.879
			c0-1.051-0.797-1.851-2.016-1.851c-2.684,0-6.838,3.07-6.838,6.183c0,1.556,1.26,2.901,3.021,2.901c2.18,0,4.07-1.598,4.867-2.271
			L150.75,28.499z"/>
		<path fill="none" stroke="#231F20" stroke-width="0.5" stroke-miterlimit="10" d="M160.483,23.915
			c0.211,0.673,0.463,1.304,0.463,2.86c0,2.187-0.42,3.742-1.723,3.742c-0.377,0-0.797-0.21-1.383-0.925
			c-0.588-0.715-0.924-0.841-1.258-0.841c-0.588,0-1.092,0.462-1.092,1.093c0,1.01,1.594,1.388,2.979,1.388
			c3.273,0,5.035-1.977,5.035-4.205c0-1.304-0.504-2.187-1.301-3.28c-0.336-0.463-0.42-0.547-0.545-0.757
			c0.629-0.337,1.553-0.884,1.553-1.809c0-0.505-0.336-0.757-0.924-0.757c-0.924,0-1.889,0.883-1.973,2.481l-3.775,3.826
			l0.504,0.505L160.483,23.915z"/>
		<path fill="none" stroke="#231F20" stroke-width="0.5" stroke-miterlimit="10" d="M111.438,53.018
			c-2.392-0.378-4.572-0.673-8.434-0.673c-9.313,0-15.816,2.104-15.816,5.804c0,1.682,1.889,4.206,8.308,5.089l1.51-2.271
			c-6.922-0.379-8.852-1.977-8.852-3.112c0-2.439,8.306-2.944,11.83-2.944c3.356,0,5.412,0.254,7.427,0.547l-2.225,8.074
			c-0.755,2.692-3.104,10.935-6.922,14.846c-2.014,2.104-4.446,2.565-6.252,2.565c-3.648,0-6.419-1.682-8.18-2.775l-1.721,2.313
			c0.168,0.084,0.21,0.084,0.504,0.168c1.217,0.378,4.194,1.346,8.013,1.346c10.279,0,14.475-6.813,16.95-15.393L111.438,53.018z"/>
		<path fill="none" stroke="#231F20" stroke-width="0.5" stroke-miterlimit="10" d="M116.809,55.92l-7.68,25.527h2.603
			c2.014-4.668,4.572-7.696,5.622-7.696c0.252,0,0.378,0.211,0.378,0.463c0,0.378-0.462,1.598-0.672,2.187
			c-0.504,1.304-1.008,2.902-1.008,3.659c0,1.43,1.134,1.64,1.806,1.64c1.384,0,2.558-0.799,4.152-2.229l-0.42-0.589
			c-0.084,0.084-0.168,0.126-0.377,0.337c-0.42,0.378-1.384,1.347-2.056,1.347c-0.377,0-0.461-0.296-0.461-0.506
			c0-0.589,0.797-2.229,0.797-2.313c0.294-0.631,1.174-2.523,1.174-3.7c0-1.052-1.048-1.557-1.887-1.557
			c-2.057,0-3.861,1.935-5.874,4.921l-0.084-0.084l7.551-22.374L116.809,55.92z"/>
		<path fill="none" stroke="#231F20" stroke-width="0.5" stroke-miterlimit="10" d="M129.059,78.546
			c1.091-3.701,2.936-5.215,3.732-5.215c0.588,0,0.966,0.504,0.966,1.009C133.757,75.686,131.659,77.578,129.059,78.546z
			 M133.757,78.966c-0.966,0.884-2.099,1.767-3.146,1.767c-0.797,0-1.384-0.547-1.51-1.388c1.552-0.589,6.209-2.271,6.209-4.879
			c0-1.051-0.797-1.851-2.015-1.851c-2.685,0-6.839,3.07-6.839,6.183c0,1.556,1.259,2.901,3.021,2.901
			c2.181,0,4.069-1.598,4.867-2.271L133.757,78.966z"/>
		<path fill="none" stroke="#231F20" stroke-width="0.5" stroke-miterlimit="10" d="M190.151,129.937
			c-1.471,1.304-3.441,1.809-5.414,1.809c-1.174,0-3.818-0.337-3.818-1.304c0-0.884,1.889-1.43,4.197-1.43
			C186.75,129.012,187.799,129.264,190.151,129.937z M203.114,108.74c2.307,2.229,7.301,7.107,7.301,14.215
			c0,1.935-0.377,4.037-1.846,5.51c-1.219,1.178-3.105,1.851-4.826,1.851c-1.51,0-4.574-0.421-9.398-2.02
			c3.273-3.995,4.49-6.14,7.721-16.232C202.233,111.601,202.989,109.203,203.114,108.74z M201.225,105.502
			c-5.537-2.733-9.9-2.859-11.158-2.859c-3.82,0-5.959,1.893-5.959,4.416c0,2.733,2.182,5.215,4.656,7.654l3.021-1.346
			c-3.777-2.818-5.455-5.594-5.455-7.234c0-1.556,1.512-2.649,3.609-2.649c1.93,0,5.832,0.758,10.824,3.533
			c-0.336,0.883-0.504,1.346-1.217,3.616c-3.188,9.926-4.91,13.416-7.258,16.948c-1.721-0.462-3.525-0.925-5.875-0.925
			c-4.152,0-6.711,1.767-6.711,3.448c0,1.809,2.977,2.355,5.201,2.355c3.271,0,5.246-1.178,6.545-1.977
			c3.607,0.925,5.832,1.514,8.559,1.514c8.77,0,13.006-5.888,13.006-11.607c0-7.527-6.545-11.733-9.312-13.499l1.258-3.996
			l-3.188,1.094L201.225,105.502z"/>
		<path fill="none" stroke="#231F20" stroke-width="0.5" stroke-miterlimit="10" d="M224.049,122.997
			c-6.252-0.547-8.645,4.29-8.645,6.435c0,1.725,1.049,2.733,2.729,2.733c2.602,0,4.111-2.397,4.867-3.658l0.082,0.084
			c-0.209,0.883-0.293,1.177-0.293,1.767c0,0.504,0,1.724,1.805,1.724c1.092,0,1.973-0.42,4.195-2.019l-0.336-0.715
			c-0.924,0.715-1.762,1.346-2.391,1.346c-0.461,0-0.545-0.421-0.545-0.757c0-0.505,0.252-1.178,0.42-1.683l1.887-5.046h-2.852
			c-1.092,2.523-3.484,7.569-5.412,7.569c-0.42,0-1.092-0.21-1.092-1.178c0-1.64,1.805-5.803,3.984-5.803
			c0.42,0,0.756,0.126,1.133,0.252L224.049,122.997z"/>
		<path fill="none" stroke="#231F20" stroke-width="0.5" stroke-miterlimit="10" d="M238.354,134.1
			c-1.258,4.669-2.768,6.519-3.523,6.519c-0.547,0-0.588-0.841-0.588-1.051C234.243,138.095,235.838,135.319,238.354,134.1z
			 M234.872,123.334l-1.637,5.72c-0.084,0.252-0.125,0.631-0.125,0.925c0,1.136,0.713,2.103,1.973,2.103
			c1.678,0,2.936-1.135,5.244-4.205l0.42-0.673l0.084,0.084l-1.932,5.299c-1.928,1.262-6.041,3.995-6.041,6.981
			c0,1.135,0.881,1.766,1.805,1.766c1.594,0,3.105-1.43,3.482-1.808c1.762-1.767,2.559-4.08,3.775-7.696l3.271-1.767l-0.125-0.589
			l-2.727,1.22l2.266-7.738h-2.727c-1.973,4.795-4.699,7.738-5.58,7.738c-0.42,0-0.42-0.378-0.42-0.506
			c0-0.251,0.084-0.672,0.168-0.882l1.93-6.351L234.872,123.334z"/>
		<g>
			<defs>
				
					<rect id="SVGID_29_" x="149.728" y="28.151" transform="matrix(-0.9401 -0.341 0.341 -0.9401 322.2379 194.6758)" width="56.997" height="81.74"/>
			</defs>
			<clipPath id="SVGID_2_">
				<use xlink:href="#SVGID_29_"  overflow="visible"/>
			</clipPath>
			<g clip-path="url(#SVGID_2_)">
				<defs>
					
						<rect id="SVGID_31_" x="137.357" y="40.522" transform="matrix(-0.341 0.9401 -0.9401 -0.341 303.885 -74.9892)" width="81.741" height="56.996"/>
				</defs>
				<clipPath id="SVGID_4_">
					<use xlink:href="#SVGID_31_"  overflow="visible"/>
				</clipPath>
			</g>
		</g>
		<g>
			<defs>
				<rect id="SVGID_33_" x="202.709" y="39.975" width="29.271" height="32.097"/>
			</defs>
			<clipPath id="SVGID_6_">
				<use xlink:href="#SVGID_33_"  overflow="visible"/>
			</clipPath>
			<g clip-path="url(#SVGID_6_)">
				<defs>
					<rect id="SVGID_35_" x="202.709" y="39.975" width="29.271" height="32.097"/>
				</defs>
				<clipPath id="SVGID_8_">
					<use xlink:href="#SVGID_35_"  overflow="visible"/>
				</clipPath>
			</g>
		</g>
	</g>
</g>
<polyline fill="none" points="232.016,72.008 232.016,39.911 202.747,39.911 "/>
<polyline fill="none" points="232.016,72.008 232.016,39.911 202.747,39.911 "/>
<line fill="none" x1="239.661" y1="94.403" x2="239.661" y2="62.306"/>
<line fill="none" x1="210.39" y1="62.306" x2="210.39" y2="94.403"/>
<path d="M210.919,62.074h0.098v0.392l0.098,0.294l0.098,0.097l0.294,0.099h0.392l0.196-0.196l0.489-0.098l0.195,0.294h0.393
	l0.195,0.293l0.294,0.587l0.098,0.882h0.392v0.098h0.392l0.294-0.392v-0.686l0.098-0.293l0.196-0.196v-0.392l0.196-0.293
	l0.097-0.098l0.099-0.098h0.195l0.196-0.294h0.294l0.098,0.196h0.49l0.293-0.293v-0.294l0.294-0.098l-0.196-0.49l0.098-0.293v-0.294
	l-0.098-0.294l-0.195-0.195h-0.393v0.097l-0.881,0.098l-0.391-0.195l-0.099-0.098v-0.196h-0.098v-0.196l-0.196-0.196V58.94v-0.097
	v-0.097v-0.099v-0.588h-0.098v-0.392l-0.393-0.489l-0.391,0.098l-0.49,0.392l-0.195,0.49v0.588l-0.195,0.097v0.097v0.392
	l-0.196,0.294v0.489l-0.196,0.197h-0.098v0.098h-0.098l-0.196,0.294l-0.392-0.098l-0.489,0.196l-0.294,0.196l-0.195,0.195
	l0.098,0.293l-0.195,0.196V62.074z M213.464,61.291h0.098l0.099-0.098v-0.195h0.195l0.196-0.392v-0.293l0.391,0.293v0.196
	l0.099,0.098l0.294,0.099l-0.098,0.293h0.392l-0.294,0.489h-0.196v0.197l-0.098,0.097h-0.099l-0.098,0.294h-0.195l-0.392-0.489
	l-0.294,0.098l-0.196-0.197L213.464,61.291z"/>
<path d="M219.634,55.964l0.293,0.196h0.588v0.098h0.489v0.099h0.587l0.588,0.293l0.099,0.294l0.294,0.195l0.098,0.393l0.294,0.196
	v0.293l0.293,0.195v0.686h0.099v0.293v0.392v0.098v0.098v0.097v0.392h0.098l-0.098,0.587l0.293,0.294l0.588,0.098l0.294-0.196
	l0.098-0.489l-0.098-0.588l0.196-0.195l-0.099-0.294v-0.196l0.099-0.391h0.098V58.51l0.098-0.295l0.196-0.195l0.097-0.588
	l0.295-0.098l0.195-0.686h0.196v-0.196l0.097-0.097h0.1l0.098-0.099v-0.196l0.098-0.097l0.392-0.196l0.196,0.196l0.783,0.097
	l0.293-0.195l0.393-0.392l0.195-0.783l-0.392-0.293h-0.392v0.098h-0.293h-0.393h-0.098h-0.098h-0.099h-0.587l-0.294-0.196
	l-0.099-0.098l-0.098-0.294l-0.098-0.097l-0.393-0.098V53.32l-0.293-0.098V52.83l-0.294-0.196l-0.196-0.392v-0.392l-0.195-0.196
	v-0.587h-0.098v-0.489l-0.295-0.392h-0.587l-0.392,0.294l-0.098,0.293v0.392h-0.098l0.098,0.392v0.098l-0.195,0.294v0.489h-0.098
	l0.098,0.49v0.098l-0.098,0.392l-0.1,0.294h-0.097v0.294l-0.392,0.587h-0.392h-0.099h-0.098h-0.098h-0.588l-0.195,0.196
	l-0.294,0.098h-0.294l-0.391,0.098v0.686L219.634,55.964z M223.062,56.747l-0.197-0.293l0.49,0.196L223.062,56.747z M222.963,55.376
	V55.18l0.392-0.293l0.098-0.294v-0.686l0.098-0.293l0.392,0.392l0.196,0.098v0.195l0.098,0.098l0.294,0.098l0.294,0.587h0.098v0.098
	h0.098l0.195,0.196l0.1,0.097v0.197l-0.295,0.195v0.195l-0.392,0.295l-0.098,0.488l-0.294,0.099l0.098,0.293l-0.195,0.294
	l-0.196-0.294h-0.195l-0.099-0.685l-0.195-0.294l-0.294-0.098v-0.196l-0.294-0.098l-0.098-0.392L222.963,55.376z"/>
<path d="M201.15,59.745l0.156-0.436l-0.087-0.031l0.125-0.349l-0.088-0.031l0.248-0.698l-0.087-0.03l0.155-0.436l-0.087-0.031
	l0.124-0.35l-0.167-0.354l0.124-0.349l-0.087-0.031l0.186-0.523l-0.044-0.704l-0.081-0.323l-0.144-0.149l0.062-0.175l-0.143-0.148
	l0.038-0.38l-0.2-0.268l-0.374-0.329l0.124-0.348l-0.112-0.238l0.186-0.523l-0.085-0.031l0.123-0.348l-0.318-0.211l-0.168-0.355
	l0.062-0.175l-0.113-0.236l-0.815-0.192l-0.174-0.062l-0.231-0.181l-0.323,0.081l-0.149,0.144l-0.206,0.025l-0.436-0.155
	l-0.324,0.082l-0.473,0.223l-0.093,0.262l-0.386,0.255l-0.112-0.236l-0.698-0.249l-0.561,0.193l-0.758-0.074l-0.529,0.108
	l-0.236,0.112l-0.031,0.087l-0.087-0.031l-0.031,0.087l-0.206,0.026l-0.062,0.174l-0.119,0.056l-0.292-0.005l-0.031,0.085
	l-0.174-0.062l-0.031,0.088l-0.175-0.062l-0.031,0.086l-0.175-0.062l-0.386,0.256l-0.174-0.062l-0.118,0.056l-0.149,0.144
	l-0.118,0.057l-0.174-0.062l-0.12,0.056l-0.148,0.143l-0.119,0.057l-0.173-0.062l-0.119,0.056l-0.237,0.112l-0.031,0.087
	l-0.087-0.032l-0.031,0.088l-0.087-0.032l-0.031,0.087l-0.086-0.031l-0.032,0.087l-0.086-0.031l-0.032,0.087l-0.087-0.031
	l-0.03,0.086l-0.087-0.03l-0.031,0.087l-0.088-0.032l-0.03,0.087l-0.086-0.031l-0.031,0.087l-0.088-0.031l-0.031,0.087l-0.087-0.032
	l-0.031,0.088l-0.087-0.032l-0.031,0.088l-0.086-0.031l-0.031,0.087l-0.087-0.032l-0.032,0.088l-0.237,0.112l-0.174-0.062
	l-0.118,0.057l-0.18,0.23l-0.119,0.057l-0.379-0.037l-0.242,0.405l-0.293-0.006l-0.062,0.174l-0.118,0.057l-0.617,0.076l0.274-0.493
	l0.087,0.032l0.155-0.437l0.086,0.03l0.186-0.523l0.089,0.031l0.155-0.435l0.235-0.113l0.125-0.349l0.236-0.112l0.124-0.348
	l0.206-0.026l0.031-0.086l0.125-0.349l0.087,0.031l0.125-0.35l0.235-0.112l0.248-0.698l0.441-0.138l0.243-0.406l0.086,0.032
	l0.15-0.144l0.479-0.517l0.125-0.349l0.268-0.199l0.154-0.437l0.237-0.111l0.067-0.468l0.386-0.255l0.125-0.349l0.031-0.087
	l0.03-0.088l0.031-0.087l0.032-0.088l0.03-0.087l0.032-0.086l0.031-0.088l0.124-0.349l0.086,0.031l0.187-0.522l0.087,0.031
	l0.094-0.263l0.092-0.261l0.094-0.262l0.235-0.112l0.155-0.437l0.237-0.112l0.155-0.436l-0.081-0.324l-0.223-0.472l-0.462-0.36
	l-0.149,0.143l-0.087-0.031l-0.493-0.273l-0.292-0.005l-0.529,0.106l-0.236,0.112l-0.361,0.461l-0.441,0.137l-0.242,0.405
	l-0.088-0.031l-0.093,0.262l-0.236,0.112l-0.093,0.262l-0.417,0.343l-0.616,0.076l-0.125,0.349l-0.18,0.23l-0.237,0.112
	l-0.124,0.349l-0.087-0.031l-0.187,0.524l-0.298,0.285l-0.237,0.113l-0.088-0.032l-0.03,0.087l-0.087-0.03l-0.236,0.112
	l-0.273,0.492l-0.236,0.112l-0.125,0.349l-0.535,0.398l-0.125,0.349l-0.237,0.113l-0.092,0.261l-0.299,0.286l-0.206,0.026
	l-0.062,0.173l-0.205,0.025l-0.062,0.173l-0.087-0.029l-0.062,0.173l-0.087-0.03l-0.062,0.175l-0.088-0.032l-0.149,0.143
	l-0.155,0.437l-0.355,0.168l-0.179,0.231l-0.093,0.261l-0.087-0.031l-0.125,0.349l-0.267,0.2l-0.156,0.435l-0.087-0.03l-0.216,0.61
	l-0.387,0.255l-0.18,0.229l-0.093,0.262l-0.087-0.031l-0.094,0.262l-0.087-0.031l-0.156,0.435l-0.236,0.112l-0.273,0.492
	l-0.385,0.256l-0.181,0.23l-0.305,0.58l-0.64-0.13l-0.182,0.23l-0.409,0.05l-0.181,0.23l-0.087-0.031l-0.062,0.175l-0.268,0.2
	l-0.76-0.075l-0.118,0.056l-0.062,0.175l-0.118,0.057l-0.175-0.062l-0.031,0.088l-0.175-0.063l-0.205,0.026l-0.149,0.143
	l-0.468-0.067l0.125-0.349l0.031-0.088l0.03-0.087l0.032-0.087l0.217-0.61l0.206-0.026l0.031-0.086l0.155-0.437l0.268-0.2
	l0.125-0.349l0.087,0.032l0.211-0.318l0.032-0.087l0.037-0.38l0.236-0.112l0.211-0.317l0.006-0.292l0.031-0.088l0.274-0.492
	l0.179-0.231l0.087,0.031l0.093-0.26l0.088,0.031l0.18-0.231l0.124-0.349l0.181-0.229l0.087,0.03l0.181-0.23l0.187-0.523l0.087,0.03
	l0.093-0.261l0.093-0.261l0.093-0.262l0.392-0.549l0.173,0.062l0.186-0.522l0.208-0.025l0.031-0.087l0.304-0.579l0.174,0.062
	l0.063-0.175l0.118-0.056l0.087,0.031l0.118-0.057l0.094-0.26l0.118-0.056l0.561-0.194l0.062-0.174l0.206-0.025l0.18-0.231
	l0.125-0.348l0.386-0.256l0.124-0.35l0.031-0.086l0.031-0.088l0.031-0.087l0.031-0.087l0.031-0.087l0.031-0.086l0.031-0.087
	l0.218-0.611l-0.082-0.322l-0.086-0.031l0.061-0.174l-0.136-0.442l-0.611-0.217l-0.031,0.086l-0.554-0.098l-0.194-0.561
	l-0.379-0.037l-0.474,0.226l-0.062,0.174L180.882,43l-0.062,0.173l-0.118,0.058l-0.591,0.281l-0.156,0.435l-0.324,0.082
	l-0.361,0.461l-0.205,0.025l-0.062,0.174l-0.292-0.005l-0.298,0.286l-0.417,0.343l-0.217,0.612l-0.268,0.199l-0.441,0.138
	l-0.125,0.348l-0.385,0.256l-0.306,0.579l-0.416,0.343l-0.474,0.225l-0.155,0.437l-0.298,0.286l-0.237,0.113l-0.124,0.348
	l-0.087-0.031l-0.125,0.348l-0.086-0.03l-0.125,0.348l-0.086-0.031l-0.156,0.436l-0.088-0.03l-0.217,0.61l-0.087-0.031l-0.125,0.349
	l-0.087-0.031l-0.187,0.523l-0.181,0.23l-0.559,0.193l-0.242,0.405l-0.237,0.112l-0.31,0.872l-0.356,0.169l-0.21,0.318l-0.088-0.031
	l-0.061,0.175l-0.088-0.032l-0.062,0.174l-0.087-0.031l-0.149,0.144l-0.124,0.349l-0.087-0.031l-0.125,0.35l-0.088-0.032
	l-0.217,0.609l-0.237,0.112l-0.123,0.349l-0.032,0.087l-0.031,0.088l-0.031,0.086l-0.031,0.087l-0.031,0.088l-0.031,0.087
	l-0.032,0.087l-0.392,0.549l-0.03,0.086l0.143,0.149l-0.211,0.318l-0.087-0.031l-0.062,0.174l-0.474,0.225l0.224-0.903l0.062-0.175
	l0.119-0.057l0.155-0.436l0.086,0.031l0.186-0.523l-0.086-0.03l0.093-0.262l0.217-0.61l-0.087-0.031l0.187-0.523l-0.087-0.032
	l0.093-0.26l0.124-0.349l0.031-0.088l0.032-0.087l0.031-0.087l0.031-0.088l0.031-0.087l0.032-0.086l0.031-0.088l0.031-0.087
	l0.03-0.086l0.031-0.087l0.031-0.088l0.1-0.554l0.062-0.175l0.181-0.229l0.043-0.673l0.061-0.175l0.417-0.343l0.037-0.38l0.268-0.2
	l0.28-0.784l0.087,0.031l0.124-0.349l0.087,0.03l0.248-0.696l-0.107-0.529l-0.287-0.298l-0.61-0.217l-0.236,0.111l-0.436-0.155
	l-0.236,0.113l-0.031,0.087l-0.087-0.032l-0.031,0.088l-0.205,0.024l-0.36,0.462l-0.504,0.312l0.113,0.236l-0.305,0.579l-0.18,0.231
	l-0.087-0.032l-0.181,0.231l-0.187,0.523l-0.087-0.031l-0.249,0.698l-0.237,0.112l-0.217,0.61l-0.086-0.031l-0.218,0.611
	l-0.236,0.112l-0.156,0.435l-0.236,0.112l-0.243,0.405l-0.093,0.262l0.087,0.031l-0.156,0.436l-0.087-0.031l-0.185,0.522
	l-0.088-0.031l-0.242,0.405l-0.093,0.263l0.086,0.031l-0.092,0.261l-0.087-0.032l-0.155,0.437l-0.236,0.112l-0.155,0.436
	l-0.087-0.031l-0.124,0.349l-0.268,0.199l-0.156,0.436l-0.087-0.031l-0.093,0.262l-0.216,0.61l-0.088-0.032l-0.218,0.61l-0.18,0.231
	l-0.237,0.112l-0.248,0.697l-0.087-0.031l-0.217,0.61l-0.087-0.031l-0.092,0.262l-0.249,0.697l-0.088-0.031l-0.092,0.261
	l-0.125,0.349l-0.031,0.088l-0.031,0.086l-0.03,0.087l-0.032,0.087l-0.031,0.087l-0.031,0.087l-0.031,0.087l-0.031,0.087
	l-0.03,0.086l-0.031,0.087l-0.031,0.087l-0.217,0.61l0.087,0.031l-0.242,0.405l-0.093,0.262l-0.099,0.554l0.087,0.031l-0.125,0.349
	l-0.006,0.292l0.112,0.237l-0.155,0.436l0.087,0.031l-0.125,0.348l0.087,0.032l-0.124,0.349l0.087,0.031l-0.125,0.349l-0.006,0.292
	l0.113,0.236l-0.062,0.175l0.086,0.031l0.025,0.206l-0.124,0.348l0.111,0.237l-0.155,0.435l0.088,0.032l-0.156,0.436l0.086,0.031
	l-0.124,0.349l0.087,0.032l-0.155,0.436l0.112,0.235l0.043,0.704l-0.186,0.522l0.169,0.355l-0.093,0.26l0.112,0.237l-0.093,0.261
	l0.019,0.499l0.081,0.324l0.087,0.03l0.025,0.206l-0.155,0.436l0.2,0.268l-0.124,0.348l0.161,0.647l-0.209,0.317l-0.038,0.38
	l0.087,0.031l-0.124,0.349l0.111,0.237l-0.005,0.293l-0.125,0.349l0.087,0.032l-0.125,0.349l0.087,0.031l-0.186,0.522l-0.007,0.292
	l0.138,0.441l-0.125,0.35l0.087,0.031l-0.186,0.523l0.113,0.237l0.02,0.498l-0.244,0.405L159.63,82l0.113,0.235l-0.28,0.785
	l0.087,0.031l-0.094,0.263l-0.093,0.261l-0.006,0.292l-0.031,0.087l-0.181,0.231l-0.005,0.292l-0.124,0.348l-0.031,0.087
	l-0.031,0.087l-0.031,0.088l-0.032,0.087l-0.031,0.087l-0.03,0.087l-0.031,0.087l-0.031,0.088l-0.031,0.086l-0.032,0.088
	l-0.031,0.087l-0.03,0.087l-0.031,0.087l-0.032,0.087l-0.03,0.086l-0.032,0.088l-0.031,0.086l-0.03,0.087l-0.032,0.087l-0.187,0.523
	l-0.087-0.031l-0.217,0.61l-0.087-0.031l-0.155,0.437l-0.088-0.031l-0.124,0.349l-0.087-0.032l-0.156,0.437l-0.237,0.112
	l-0.093,0.262l-0.236,0.112l-0.181,0.23l-0.124,0.349l-0.237,0.113l-0.012,0.584l-0.242,0.406l-0.324,0.081l-0.18,0.23l-0.155,0.437
	l-0.181,0.23l-0.087-0.031l-0.093,0.261l-0.267,0.201l-0.088-0.032l-0.062,0.174l-0.354,0.169l-0.181,0.23l-0.093,0.262l-0.18,0.231
	l0.05,0.41l0.198,0.268l-0.155,0.437l-0.031,0.086l-0.18,0.232l0.61,0.217l0.113,0.237l0.23,0.18l0.35,0.124l-0.031,0.088
	l0.522,0.186l-0.031,0.087l0.437,0.154l0.031-0.086l0.317,0.211l0.292,0.006l0.087,0.031l0.318,0.211l-0.032,0.087l0.524,0.187
	l-0.031,0.086l0.261,0.093l0.785,0.279l-0.031,0.088l0.436,0.155l-0.031,0.086l0.349,0.124l-0.031,0.088l0.523,0.186l-0.031,0.087
	l0.61,0.218l-0.032,0.087l0.262,0.093l0.816,0.191l-0.062,0.174l0.174,0.062l0.292,0.007l0.112,0.236l0.611,0.217l0.113,0.237
	l0.871,0.311l-0.031,0.086l0.35,0.125l-0.031,0.086l0.611,0.217l-0.032,0.086l0.523,0.187l-0.031,0.087l0.436,0.155l0.256,0.385
	l0.404,0.242l0.354-0.167l0.125-0.348l-0.113-0.237l0.125-0.348l-0.056-0.12l-0.174-0.061l-0.262-0.093l-0.175-0.062l-0.112-0.236
	l-0.466-0.067l-0.088-0.031l-0.144-0.149l-0.697-0.248l0.031-0.087l-0.466-0.068l-0.261-0.094l0.031-0.086l-0.262-0.094l0.03-0.086
	l-0.373-0.331l-0.293-0.005l-0.261-0.093l-0.437-0.155l-0.112-0.237l-0.61-0.217l0.031-0.087l-0.581-0.304l-0.261-0.094
	l-0.292-0.006l0.005-0.293l-0.499,0.02l-0.404-0.242l-0.113-0.237l-0.61-0.217l0.031-0.087l-0.611-0.217l0.031-0.087l-0.641-0.131
	l-0.343-0.416l-0.263-0.094l-0.03,0.087l-0.23-0.18l-0.174-0.062l-0.293-0.007l0.031-0.086l-0.292-0.006l-0.087-0.031l-0.61-0.218
	l-0.461-0.361l-0.087-0.03l-0.287-0.299l0.23,0.18l0.211-0.317l0.292,0.005l0.125-0.348l0.181-0.23l0.329-0.375l0.207-0.024
	l0.092-0.261l0.088,0.03l0.18-0.23l0.187-0.524l0.472-0.224l0.218-0.611l0.087,0.031l0.211-0.317l0.006-0.293l0.031-0.087
	l0.149-0.144l0.218-0.61l0.087,0.031l0.124-0.349l0.18-0.23l0.236-0.113l0.181-0.23l0.124-0.349l0.031-0.087l0.031-0.088
	l0.031-0.087l0.125-0.348l0.086,0.03l0.094-0.261l0.124-0.349l0.031-0.086L159,87.08l0.031-0.087l0.038-0.379l0.031-0.088
	l0.15-0.144l0.092-0.261l0.062-0.175l0.088,0.031l0.093-0.261l0.124-0.349l0.031-0.088l0.031-0.086l0.031-0.088l0.031-0.087
	l0.03-0.087l0.032-0.086l0.031-0.088l0.124-0.349l-0.087-0.03l0.094-0.263l0.217-0.61l-0.112-0.236l0.124-0.349l0.031-0.087
	l0.031-0.087l0.031-0.087l0.125-0.348l-0.087-0.032l0.067-0.467l0.211-0.318l0.038-0.38l-0.113-0.236L160.6,80.38l0.272-0.493
	l-0.086-0.031l0.156-0.436l-0.088-0.031l0.124-0.349l-0.086-0.031l0.217-0.61l0.005-0.292l-0.137-0.442l0.006-0.293l0.124-0.349
	l-0.144-0.149l0.031-0.087l0.155-0.435l-0.086-0.031l0.125-0.35l-0.138-0.441l0.006-0.292l0.124-0.35l-0.144-0.147l0.124-0.35
	l0.006-0.293l-0.02-0.498l-0.168-0.354l0.094-0.262l-0.113-0.235l0.156-0.437l-0.138-0.442l0.124-0.349l0.006-0.292l-0.168-0.354
	l0.125-0.35l-0.088-0.03l0.156-0.437l-0.088-0.03l0.155-0.437l-0.112-0.235l0.217-0.611l0.005-0.293l-0.137-0.442l0.124-0.349
	l-0.111-0.236l0.124-0.349l-0.144-0.149l0.032-0.087l0.124-0.348l-0.086-0.031l0.124-0.35l-0.087-0.032l0.155-0.435l-0.088-0.031
	l0.124-0.349l-0.086-0.032l0.093-0.261l0.217-0.609l-0.082-0.324l0.249-0.699l0.087,0.032l0.093-0.262l0.124-0.348l0.031-0.087
	l0.031-0.087l0.032-0.088l0.186-0.522l-0.087-0.031l0.156-0.437l0.086,0.031l0.218-0.61l0.087,0.031l0.093-0.261l0.218-0.612
	l0.086,0.032l0.124-0.35l0.269-0.199l0.124-0.349l0.031-0.086l0.031-0.088l0.031-0.086l0.031-0.088l0.031-0.086l0.031-0.088
	l0.031-0.086l0.155-0.436l0.086,0.03l0.187-0.523l0.087,0.032l0.187-0.523l0.267-0.201l0.249-0.697l0.206-0.025l0.03-0.087
	l0.187-0.523l0.086,0.03l0.243-0.404l0.006-0.292l0.237-0.113l0.005-0.292l0.156-0.436l0.087,0.031l0.094-0.262l0.093-0.261
	l0.093-0.262l0.355-0.168l0.186-0.524l0.242-0.404l0.087,0.031l0.156-0.437l0.087,0.031l0.242-0.405l0.112,0.237l0.318,0.211
	l-0.006,0.292l0.467,0.067l-0.223,0.903l-0.093,0.262l-0.088-0.032l-0.093,0.262l0.087,0.031l-0.125,0.35l-0.031,0.086l-0.03,0.087
	l-0.031,0.088l-0.031,0.087l-0.031,0.087l-0.031,0.087l-0.031,0.087l-0.03,0.086l-0.031,0.087l-0.031,0.087l-0.032,0.087
	l-0.124,0.35l0.087,0.03l-0.217,0.611l-0.087-0.031l-0.125,0.349l0.087,0.032l-0.092,0.26l-0.125,0.35l-0.031,0.087l-0.032,0.086
	l-0.03,0.088l-0.032,0.087l-0.031,0.087l-0.031,0.088l-0.031,0.086l-0.031,0.087l-0.031,0.087l-0.03,0.087l-0.031,0.087
	l-0.186,0.523l-0.088-0.03l-0.093,0.261l-0.125,0.349l-0.032,0.087l-0.03,0.087l-0.031,0.087l-0.031,0.087l-0.031,0.086
	l-0.032,0.087l-0.031,0.088l-0.03,0.087l-0.032,0.087l-0.031,0.087l-0.031,0.088l-0.187,0.522l0.087,0.031l-0.156,0.435
	l-0.006,0.293l0.113,0.237l-0.125,0.348l0.087,0.032l-0.124,0.349l0.112,0.235l0.174,0.062l0.343,0.417l0.238-0.112l0.03-0.088
	l0.088,0.031l0.031-0.085l0.205-0.026l0.069-0.467l0.086,0.031l0.093-0.261l0.093-0.262l0.093-0.261l0.087,0.031l0.125-0.349
	l-0.088-0.031l0.094-0.261l0.223-0.903l0.094-0.262l0.087,0.031l0.092-0.261l-0.087-0.031l0.124-0.349l0.473-0.225l0.417-0.342
	l0.187-0.523l0.087,0.031l0.243-0.405l0.093-0.262l-0.087-0.031l0.155-0.436l0.269-0.199l0.031-0.087l-0.025-0.206l0.217-0.61
	l0.087,0.031l0.21-0.317l0.069-0.467l0.324-0.081l0.061-0.174l0.206-0.025l0.211-0.317l0.088,0.031l0.149-0.144l0.18-0.231
	l0.186-0.524l0.088,0.032l0.124-0.349l0.087,0.032l0.124-0.35l0.268-0.2l0.561-0.193l0.18-0.23l0.186-0.523l0.237-0.112l0.037-0.38
	l0.093-0.261l0.088,0.031l0.155-0.437l0.087,0.031l0.155-0.436l0.088,0.031l0.187-0.523l0.472-0.225l0.243-0.404l0.087,0.03
	l0.243-0.403l0.323-0.082l0.298-0.287l0.156-0.436l0.238-0.112l0.123-0.349l0.331-0.375l0.117-0.056l0.175,0.062l0.354-0.169
	l0.33-0.373l0.217-0.611l0.385-0.255l0.113,0.237l-0.155,0.437l-0.237,0.112l-0.186,0.522l-0.087-0.031l-0.217,0.611l0.168,0.355
	l0.666,0.335l-0.329,0.374l-0.28,0.785l-0.087-0.031l-0.093,0.261l-0.093,0.262l-0.092,0.261l-0.268,0.201l-0.125,0.349
	l-0.385,0.254l-0.125,0.35l-0.087-0.032l-0.217,0.611l-0.087-0.032l-0.125,0.349l-0.086-0.031l-0.218,0.611l-0.18,0.229l-0.087-0.03
	l-0.18,0.231l-0.124,0.348l-0.088-0.031l-0.248,0.698l-0.236,0.111l-0.18,0.23l-0.155,0.437l-0.088-0.032l-0.093,0.262l-0.304,0.58
	l-0.031,0.087l-0.006,0.292l-0.237,0.113l-0.156,0.436l-0.086-0.031l-0.094,0.261l-0.217,0.61l-0.087-0.031l-0.186,0.523
	l-0.087-0.03l-0.186,0.522l0.262,0.093l-0.032,0.088l-0.124,0.348l-0.031,0.087l-0.031,0.087l-0.031,0.087l-0.099,0.555l0.23,0.18
	l-0.273,0.493l0.106,0.528l0.112,0.237l0.087,0.031l-0.031,0.087l0.087,0.03l0.025,0.206l0.23,0.181l0.35,0.125l0.111,0.236
	l0.611,0.218l0.528-0.107l0.243-0.404l0.441-0.137l0.211-0.318l0.175,0.062l0.268-0.201l0.392-0.548l0.323-0.081l0.124-0.349
	l0.411-0.051l0.181-0.23l0.124-0.349l0.181-0.231l0.087,0.032l0.094-0.262l0.235-0.112l0.124-0.349l0.267-0.199l0.311-0.873
	l-0.087-0.031l0.187-0.521l0.086,0.029l0.094-0.261l0.279-0.785l0.087,0.031l0.125-0.349l0.354-0.167l0.272-0.494l0.038-0.379
	l0.268-0.199l0.087,0.032l0.149-0.145l0.093-0.261l0.236-0.111l0.155-0.437l0.237-0.112l0.124-0.349l0.087,0.031l0.155-0.435
	l0.387-0.257l0.004-0.292L182.983,52l0.088,0.031l0.156-0.437l0.204-0.024l0.031-0.088l0.124-0.349l0.236-0.111l0.125-0.35
	l0.354-0.168l0.125-0.349l0.293,0.005l0.119-0.056l0.117-0.055l0.3-0.288l0.093-0.262l0.236-0.112l0.094-0.261l0.236-0.112
	l0.093-0.262l0.149-0.145l0.086,0.031l0.063-0.173l0.236-0.113l0.155-0.436l0.354-0.168l0.062-0.174l0.324-0.081l0.062-0.175
	l0.324-0.082l0.18-0.229l0.155-0.438l0.087,0.032l0.156-0.437l0.087,0.032l0.124-0.349l0.385-0.257l0.125-0.349l0.647-0.162
	l-0.298,0.286l-0.125,0.35l-0.479,0.516l0.412-0.05l0.293,0.007l0.784,0.279l0.111,0.237l0.174,0.062l0.144,0.149l-0.123,0.349
	l-0.032,0.087l-0.031,0.087l-0.031,0.087l-0.032,0.087l-0.031,0.087l-0.031,0.087l-0.031,0.087l-0.124,0.349l-0.237,0.113
	l-0.062,0.174l-0.087-0.031l-0.268,0.2l-0.273,0.491l-0.417,0.344l-0.205,0.023l-0.149,0.145l-0.124,0.349l-0.18,0.23l-0.088-0.031
	l-0.094,0.262l-0.086-0.03l-0.181,0.23l-0.125,0.349l-0.205,0.025l-0.031,0.086l-0.217,0.611l-0.087-0.031l-0.186,0.523
	l-0.236,0.111L186.6,52.6l-0.154,0.437l-0.18,0.229l-0.385,0.256l-0.186,0.524l-0.269,0.199l-0.155,0.436l-0.087-0.031l-0.124,0.349
	l-0.087-0.03l-0.155,0.436l-0.087-0.031l-0.093,0.263l-0.248,0.697l-0.088-0.031l-0.241,0.405l0.023,0.205l-0.086-0.03l-0.125,0.349
	l-0.032,0.086l-0.03,0.088l-0.031,0.086l-0.031,0.087l-0.03,0.088l-0.032,0.087l-0.031,0.086l-0.031,0.087l-0.031,0.088l-0.03,0.087
	l-0.032,0.087l-0.124,0.349l-0.088-0.031l-0.093,0.261l-0.125,0.349l-0.031,0.086l-0.031,0.086l-0.031,0.088l-0.217,0.611
	l-0.087-0.032l-0.218,0.611l0.088,0.031l-0.094,0.262l-0.279,0.785l0.088,0.031l-0.094,0.262l-0.124,0.349l-0.03,0.087l-0.032,0.087
	l-0.031,0.087l-0.031,0.087l-0.032,0.088l-0.03,0.086l-0.032,0.087l-0.03,0.087l-0.032,0.087l-0.031,0.087l-0.032,0.087
	l-0.123,0.349l-0.088-0.031l-0.156,0.436l-0.086-0.03l-0.094,0.261l-0.28,0.784l-0.086-0.03l-0.093,0.26l-0.125,0.35l-0.031,0.087
	l-0.031,0.086l-0.031,0.088l-0.124,0.349l0.087,0.03l-0.094,0.263l-0.217,0.61l0.113,0.237l-0.182,0.23l0.188,0.853l-0.124,0.349
	l0.087,0.031l-0.124,0.349l0.231,0.181l0.08,0.322l-0.062,0.176l0.056,0.117l0.225,0.474l0.263,0.093l0.023,0.206l0.176,0.062
	l0.081,0.324l0.231,0.18l0.435,0.155l-0.031,0.088l0.349,0.125l0.355-0.169l0.23,0.18l0.786,0.28l0.354-0.169l0.555,0.1l0.267-0.2
	l0.261,0.093l0.149-0.143l0.466,0.068l0.3-0.287l0.378,0.037l0.237-0.112l0.031-0.087l0.088,0.031l0.031-0.087l0.324-0.082
	l0.124-0.349l0.236-0.112l0.124-0.349l0.324-0.082l0.211-0.317l0.206-0.024l0.149-0.143l0.093-0.262l0.33-0.375l0.355-0.167
	l0.48-0.518l0.124-0.349l0.235-0.112l0.094-0.263l0.149-0.143l0.292,0.007l0.211-0.318l0.087,0.03l0.149-0.143l0.094-0.261
	l0.299-0.287l0.323-0.081l0.211-0.318l0.293,0.006l0.354-0.168l0.274-0.492l0.236-0.113l0.187-0.523l0.18-0.23l0.237-0.112
	l0.087,0.031l0.03-0.087l0.088,0.032l0.031-0.087l0.087,0.031l0.031-0.087l0.087,0.031l0.031-0.087l0.119-0.057l0.174,0.062
	l0.18-0.229l0.124-0.349l0.088,0.031l0.248-0.697l0.087,0.031l0.125-0.348l0.411-0.051l0.242-0.406l0.119-0.055l0.175,0.062
	l0.118-0.056l0.33-0.375l0.086,0.031l0.025,0.206l-0.124,0.349l0.137,0.441l-0.217,0.61l-0.236,0.113l-0.18,0.23l-0.25,0.697
	l-0.087-0.031l-0.155,0.436l-0.087-0.031l-0.248,0.698l-0.087-0.032l-0.249,0.699l-0.087-0.031l-0.155,0.436l-0.087-0.031
	l-0.093,0.263l-0.093,0.261l-0.094,0.262l-0.205,0.024l-0.124,0.349l-0.356,0.168l-0.124,0.349l-0.181,0.231l-0.235,0.111
	l-0.274,0.492l-0.329,0.374l-0.325,0.082l-0.242,0.405l-0.323,0.08l-0.181,0.231l-0.093,0.262l-0.088-0.032l-0.186,0.524
	l-0.087-0.031l-0.093,0.261l-0.217,0.611l-0.236,0.112l-0.155,0.436l-0.237,0.113l-0.18,0.23l-0.094,0.262l-0.085-0.031
	l-0.124,0.349l-0.238,0.112l-0.18,0.231l-0.248,0.698l-0.087-0.031l-0.124,0.348l-0.087-0.03l-0.218,0.609l-0.087-0.031
	l-0.186,0.523l-0.237,0.113l-0.154,0.435l-0.237,0.112l-0.125,0.349l-0.324,0.082l-0.18,0.23l-0.093,0.261l-0.181,0.232
	l-0.328,0.374l-0.206,0.024l-0.182,0.231l-0.155,0.435l-0.087-0.03l-0.124,0.35l-0.205,0.024l-0.031,0.088l-0.094,0.262l-0.03,0.086
	l-0.268,0.201l-0.561,0.193l-0.124,0.348l-0.087-0.031l-0.062,0.174l-0.15,0.144l-0.206,0.023l-0.062,0.175l-0.441,0.138
	l-0.273,0.493l-0.237,0.111l-0.062,0.174l-0.087-0.031l-0.062,0.175l-0.442,0.137l-0.243,0.406l-0.205,0.025l-0.212,0.318
	L181.19,82.7l-0.062,0.174l-0.088-0.031l-0.062,0.174l-0.149,0.144l-0.205,0.024l-0.062,0.174l-0.205,0.025l-0.268,0.199
	l-0.242,0.404l-0.205,0.026l-0.062,0.175l-0.087-0.032l-0.15,0.143l0.025,0.206l-0.149,0.143l-0.087-0.031l-0.062,0.174
	l-0.237,0.112l-0.037,0.38l-0.236,0.112l-0.125,0.35l-0.235,0.111l-0.274,0.493l-0.417,0.343l-0.205,0.026l-0.417,0.342
	l-0.093,0.261l-0.205,0.025l-0.181,0.23l-0.155,0.436l-0.205,0.025l-0.031,0.087l-0.124,0.349l-0.268,0.199l-0.125,0.349
	l-0.298,0.287l-0.35-0.124l-0.236,0.112l-0.18,0.23l-0.236,0.112l-0.086-0.03l-0.031,0.087l-0.088-0.032l-0.412,0.049l-0.209,0.318
	l-0.324,0.083l-0.499,0.018l-0.18,0.231l-0.529,0.105l-0.118,0.057l-0.062,0.174l-0.268,0.2l-0.292-0.006l-0.118,0.056l-0.119,0.057
	l-0.124,0.348l-0.354,0.169l-0.181,0.229l-0.092,0.262l-0.087-0.031l-0.125,0.349l-0.18,0.23l-0.236,0.113l-0.181,0.23l-0.155,0.436
	l-0.088-0.03l-0.211,0.317l-0.007,0.292l-0.236,0.112L168.6,94.33l-0.124,0.348l-0.087-0.031l-0.155,0.437l0.087,0.03l-0.094,0.262
	l-0.217,0.61l-0.087-0.031l-0.155,0.437l0.087,0.03l-0.069,0.467l-0.093,0.261l-0.087-0.031l-0.223,0.903l-0.062,0.175l-0.329,0.374
	l0.111,0.236l-0.098,0.554l-0.236,0.113l-0.006,0.292l-0.155,0.436l0.087,0.031l-0.248,0.698l0.087,0.03l-0.186,0.523l0.168,0.355
	l0.524,0.186l0.386-0.255l0.335-0.667l-0.113-0.237l0.212-0.317l0.253-0.991l0.007-0.292l0.13-0.64l0.18-0.233l0.006-0.292
	l0.124-0.349l0.031-0.088l0.031-0.087l0.032-0.088l0.03-0.086l0.031-0.087l0.031-0.088l0.031-0.087l0.032-0.087l0.031-0.087
	l0.031-0.086l0.031-0.087l0.155-0.437l-0.087-0.031l0.094-0.262l0.28-0.785l0.086,0.031l0.094-0.261l0.31-0.872l0.087,0.032
	l0.131-0.643l0.386-0.254l0.124-0.349l0.086,0.031l0.186-0.524l0.299-0.286l0.268-0.199l0.175,0.062l0.062-0.175l0.119-0.055
	l0.086,0.03l0.211-0.318l0.412-0.05l0.18-0.229l0.236-0.113l0.088,0.031L173,91.082l0.085,0.03l0.269-0.199l0.174,0.062l0.118-0.057
	l0.503-0.312l0.175,0.062l0.119-0.057l0.355-0.169l0.118-0.055l0.062-0.174l0.38,0.036l0.473-0.225l0.212-0.317l0.087,0.032
	l0.061-0.175l0.237-0.113l0.187-0.522l0.086,0.031l0.125-0.349l0.181-0.23l0.086,0.031l0.093-0.261l0.088,0.031l0.092-0.262
	l0.236-0.112l0.062-0.175l0.15-0.143l0.292,0.005l0.211-0.317l0.207-0.025l0.149-0.142l0.124-0.351l0.237-0.111l0.155-0.436
	l0.268-0.2l0.156-0.436l0.236-0.112l0.155-0.436l0.447-0.431l0.324-0.081l0.062-0.174l0.118-0.056l0.591-0.281l0.125-0.349
	l0.448-0.43l0.174,0.062l0.212-0.317l0.374,0.329l-0.199-0.268l0.566-0.485l0.33-0.374l0.093-0.262l0.149-0.143l0.561-0.194
	l0.062-0.175l0.323-0.081l0.063-0.175l0.205-0.024l0.597-0.573l0.155-0.436l0.355-0.169l0.124-0.349l0.237-0.112l0.155-0.437
	l0.181-0.231l0.236-0.111l0.062-0.175l0.087,0.031l0.062-0.174l0.206-0.025l0.062-0.174l0.087,0.031l0.062-0.173l0.087,0.029
	l0.062-0.174l0.088,0.031l0.268-0.198l0.279-0.786l0.087,0.032l0.124-0.349l0.237-0.113l0.124-0.348l0.088,0.031l0.124-0.349
	l0.235-0.112l0.218-0.61l0.088,0.031l0.125-0.349l0.087,0.031l0.124-0.349l0.087,0.031l0.125-0.349l0.267-0.199l0.155-0.436
	l0.181-0.231l0.386-0.254l0.123-0.35l0.032-0.087l0.031-0.086l0.031-0.087l0.218-0.611l0.086,0.03l0.125-0.348l0.268-0.2
	l0.036-0.379l0.299-0.287l0.441-0.137l0.213-0.318l0.086,0.031l0.15-0.143l0.093-0.261l0.236-0.113l0.628-0.66l0.273-0.493
	l0.236-0.113l0.18-0.229l0.125-0.349l0.087,0.03l0.124-0.349l0.088,0.031l0.155-0.435l0.267-0.2l0.187-0.523l0.267-0.199l0.31-0.872
	l0.087,0.031l0.187-0.522l0.088,0.031l0.218-0.611l0.085,0.031l0.093-0.262l0.31-0.872l-0.086-0.03l0.094-0.262l0.217-0.611
	l-0.088-0.031l0.155-0.437l0.231,0.181l0.529-0.106l0.149-0.144l0.206-0.024l0.349,0.124l0.236-0.111l0.031-0.088l0.087,0.031
	l0.031-0.088l0.205-0.024l0.062-0.175l0.206-0.024l0.124-0.349l0.087,0.03l0.249-0.698l-0.087-0.03l0.124-0.349L201.15,59.745z
	 M178.718,57.358l-0.093,0.261l-0.087-0.031l-0.186,0.523l-0.181,0.23l-0.237,0.112l-0.18,0.232l-0.124,0.348l-0.181,0.23
	l-0.238,0.113l-0.241,0.406l-0.379-0.037l-0.125,0.349l-0.236,0.112l-0.093,0.262l-0.15,0.143l-0.206,0.024l-0.361,0.462
	l-0.236,0.113l-0.379-0.038l-0.087-0.032l-0.2-0.268l-0.349-0.124l-0.082-0.323l0.305-0.579l-0.086-0.031l0.155-0.436l-0.088-0.031
	l0.187-0.523l-0.088-0.032l0.187-0.523l0.354-0.168l0.094-0.262l0.15-0.143l0.118-0.056l0.441-0.138l0.405,0.243l0.269-0.2
	l0.086,0.031l0.032-0.087l0.086,0.031l0.237-0.113l0.118-0.057l0.062-0.174l0.118-0.056l0.119-0.056l0.324-0.082l0.611,0.218
	l0.36-0.461l0.292,0.006L178.718,57.358z M184.397,58.79l0.274-0.492l-0.057-0.117l0.062-0.175l0.243-0.405l0.031-0.087l0.03-0.087
	l0.032-0.086l0.124-0.349l0.005-0.294l0.149-0.143l0.087,0.031l0.061-0.174l0.238-0.112l0.155-0.437l0.355-0.168l0.174,0.062
	l0.118-0.056l0.18-0.231l0.206-0.025l0.119-0.056l0.062-0.174l0.324-0.081l0.062-0.174l0.206-0.024l0.031-0.087l0.087,0.03
	l0.031-0.087l0.236-0.113l0.38,0.038l0.33-0.374l0.554,0.099l0.062-0.175l0.118-0.056l0.323-0.082l0.361-0.46l0.38,0.036
	l0.149-0.143l0.173,0.062l0.387-0.255l0.322-0.082l0.467,0.068l0.149-0.145l0.381,0.039l0.148-0.145l0.411-0.05l0.348,0.125
	l0.15-0.144l0.174,0.062l0.15-0.144l0.261,0.094l0.236-0.112l0.031-0.086l0.087,0.031l0.03-0.088l0.087,0.031l0.032-0.088
	l0.087,0.031l0.03-0.086l0.087,0.031l0.032-0.088l0.087,0.031l0.031-0.086l0.237-0.113l0.435,0.155l0.324-0.08l0.02,0.497
	l-0.217,0.61l-0.18,0.231l-0.149,0.143l-0.088-0.031l-0.21,0.318l-0.406-0.242l-0.267,0.2l-0.174-0.063l-0.386,0.256l-0.117,0.056
	l-0.176-0.063l-0.268,0.2l-0.174-0.062l-0.268,0.2l-0.087-0.033l-0.031,0.087l-0.086-0.031l-0.238,0.112l-0.118,0.057l-0.062,0.174
	l-0.205,0.024l-0.062,0.175l-0.441,0.137l-0.119,0.056l-0.062,0.175l-0.355,0.167l-0.086-0.031l-0.031,0.088l-0.088-0.032
	l-0.236,0.112l-0.18,0.231l-0.354,0.168l-0.499,0.02l-0.031,0.088l-0.087-0.032l-0.032,0.087l-0.087-0.031l-0.03,0.087l-0.088-0.031
	l-0.03,0.088l-0.237,0.112l-0.175-0.062l-0.117,0.056l-0.417,0.342l-0.293-0.005l-0.124,0.348l-0.441,0.139l-0.212,0.316
	l-0.175-0.062l-0.062,0.175l-0.119,0.056l-0.235,0.112l-0.088-0.031l-0.031,0.087l-0.086-0.031l-0.237,0.112l-0.062,0.175
	l-0.206,0.025l-0.181,0.229l-0.117,0.056l-0.261-0.093l-0.149,0.144l-0.088-0.031l-0.031,0.086l-0.086-0.031l-0.237,0.112
	l-0.273,0.492l-0.292-0.006l0.099-0.554L184.397,58.79z M196.24,60.846l-0.149,0.143l-0.205,0.026l-0.211,0.316l-0.324,0.082
	l-0.062,0.175l-0.324,0.081l-0.33,0.374l-0.18,0.231l-0.217,0.61l-0.088-0.031l-0.124,0.349l-0.182,0.23l-0.441,0.138l-0.118,0.055
	l-0.093,0.261l-0.324,0.082l-0.093,0.261l-0.324,0.083l-0.155,0.436l-0.088-0.031l-0.242,0.405l-0.38-0.037l-0.119,0.055
	l-0.211,0.319l-0.206,0.024l-0.242,0.405l-0.268,0.201l-0.205,0.024l-0.212,0.317l-0.205,0.025l-0.062,0.174l-0.206,0.025
	l-0.211,0.317l-0.087-0.03l-0.063,0.175l-0.237,0.111l-0.181,0.231l-0.124,0.349l-0.149,0.143l-0.205,0.024l-0.299,0.287
	l-0.18,0.231l-0.124,0.349l-0.181,0.231l-0.324,0.08l-0.063,0.175l-0.205,0.026l-0.062,0.174l-0.205,0.025l-0.36,0.461l-0.206,0.025
	l-0.062,0.173l-0.354,0.169l-0.117,0.056l-0.175-0.063l-0.268,0.201l-0.174-0.062l-0.385,0.255l-0.349-0.125l-0.237,0.112
	l-0.348-0.125l-0.031,0.087l-0.349-0.124l-0.03,0.087l-0.349-0.124l-0.031,0.087l-0.785-0.28l0.031-0.086l-0.261-0.093l-0.231-0.181
	l-0.081-0.323l-0.087-0.031l0.031-0.087l-0.086-0.031l0.031-0.087l-0.088-0.031l0.031-0.088l-0.086-0.031l-0.114-0.236l0.156-0.436
	l-0.05-0.411l-0.088-0.031l0.093-0.263l-0.086-0.031l0.092-0.261l-0.087-0.031l0.093-0.262l-0.087-0.031l0.007-0.292l0.155-0.436
	l0.031-0.088l0.031-0.087l0.03-0.086l0.031-0.086l0.031-0.088l0.031-0.086l0.032-0.087l0.124-0.351l0.093-0.26l-0.088-0.032
	l0.279-0.784l0.093-0.262l0.088,0.031l0.218-0.61l0.266-0.199l0.032-0.087l0.093-0.262l0.006-0.291l0.392-0.548l0.032-0.088
	l0.03-0.086l0.031-0.088l0.031-0.087l0.031-0.088l0.031-0.087l0.031-0.085l0.125-0.35l0.148-0.144l0.088,0.032l0.211-0.318
	l0.205-0.025l0.062-0.174l0.324-0.081l0.062-0.175l0.441-0.137l0.119-0.056l0.093-0.261l0.206-0.025l0.03-0.087l0.087,0.032
	l0.032-0.088l0.236-0.112l0.467,0.068l0.149-0.143l0.062-0.174l0.086,0.031l0.062-0.175l0.12-0.056l0.292,0.006l0.118-0.057
	l0.062-0.174l0.386-0.256l0.292,0.007l0.417-0.344l0.062-0.176l0.324-0.079l0.211-0.319l0.2,0.267l0.448-0.429l0.118-0.056
	l0.174,0.061l0.119-0.055l0.119-0.057l0.118-0.056l0.062-0.175l0.474-0.225l0.119-0.056l0.174,0.062l0.267-0.201l0.174,0.062
	l0.119-0.056l0.385-0.255l0.062-0.174l0.118-0.056l0.206-0.025l0.119-0.057l0.062-0.174l0.323-0.081l0.031-0.088l0.086,0.033
	l0.032-0.087l0.236-0.113l0.231,0.18l0.154-0.435l0.268-0.2l0.38,0.037l0.024,0.206l0.468,0.068l0.325-0.081l-0.218,0.61
	l0.112,0.236l-0.005,0.292l-0.125,0.349l0.025,0.206l0.087,0.031l0.083,0.324l-0.069,0.466l0.143,0.149l-0.037,0.38l0.23,0.18
	l-0.062,0.174l0.057,0.119l0.057,0.118l0.086,0.031l-0.031,0.087l0.087,0.032l0.112,0.237l-0.005,0.292l0.46,0.361l0.051,0.411
	L196.24,60.846z M200.142,58.992l-0.236,0.113l-0.13,0.641l-0.006,0.293l-0.298,0.287l-0.473,0.224l-0.437-0.155l-0.031,0.087
	l-0.349-0.124l-0.087-0.03l-0.15,0.144l-0.348-0.125l0.031-0.088l-0.349-0.124l-0.342-0.417l0.062-0.174l-0.057-0.119l-0.198-0.267
	l-0.058-0.119l0.062-0.174l-0.111-0.236l-0.088-0.031l0.031-0.088l-0.086-0.031l-0.112-0.236l-0.057-0.119l0.062-0.174l-0.056-0.118
	l-0.144-0.149l-0.056-0.118l0.062-0.174l-0.057-0.118l-0.144-0.15l-0.081-0.323l0.155-0.436l-0.082-0.323l0.125-0.35l-0.112-0.236
	l0.18-0.231l0.255,0.387l0.579,0.304l0.585,0.013l0.616-0.076l0.294,0.006l0.062-0.175l0.118-0.056l0.442-0.138l0.268-0.199
	l0.124-0.349l0.267-0.199l0.118-0.057l0.175,0.062l0.081,0.324l0.086,0.031l-0.031,0.087l0.087,0.031l-0.031,0.087l0.087,0.031
	l-0.032,0.088l0.088,0.031l0.111,0.236l-0.093,0.262l0.087,0.031l-0.006,0.293l-0.124,0.348l0.143,0.149l-0.156,0.437l-0.031,0.087
	l0.144,0.15l-0.186,0.523l0.086,0.031l-0.124,0.348l0.088,0.032L200.142,58.992z"/>
</svg>
