<?xml version="1.0" encoding="utf-8"?>
<!-- Generator: Adobe Illustrator 16.0.0, SVG Export Plug-In . SVG Version: 6.00 Build 0)  -->
<!DOCTYPE svg PUBLIC "-//W3C//DTD SVG 1.1//EN" "http://www.w3.org/Graphics/SVG/1.1/DTD/svg11.dtd">
<svg version="1.1" id="Layer_1" xmlns="http://www.w3.org/2000/svg" xmlns:xlink="http://www.w3.org/1999/xlink" x="0px" y="0px"
	 width="144.856px" height="21.038px" viewBox="0 0 144.856 21.038" enable-background="new 0 0 144.856 21.038"
	 xml:space="preserve">
<path fill="none" stroke="#231F20" stroke-width="0.4" stroke-miterlimit="10" d="M14.55,16.421l2.254-7.094
	c0.531-1.635,2.056-6.408,2.056-7.624c0-0.376-0.222-0.553-0.464-0.553c-0.309,0-0.994,0.288-1.834,1.503
	c-1.26,1.79-3.028,5.989-3.912,8.088c-1.592,3.78-2.012,4.221-2.541,4.774c0,0.022-0.066,0.089-0.111,0.133
	c-0.309,0.287-0.464,0.419-0.751,0.419c-0.243,0-0.573-0.066-0.573-0.972c0-0.906,0.529-2.652,0.86-3.669l2.365-7.248
	c0.176-0.552,0.618-1.966,0.618-2.475c0-0.331-0.088-0.663-0.463-0.663c-2.101,0-7.381,12.154-8.289,14.762H1.843l0.885-2.806
	C3.81,9.592,5.533,3.383,5.533,1.792c0-0.443-0.044-0.73-0.353-0.73c-0.598,0-2.123,2.409-3.16,5.922l-1.415-1.06
	C1.158,4.576,3.39,0.576,5.202,0.576c1.171,0,1.79,1.083,1.79,2.165c0,1.348-0.707,4-1.459,6.586
	c-0.375,1.326-0.463,1.68-0.596,2.122l0.044,0.044c0.242-0.464,0.574-1.216,0.752-1.614c0.861-1.878,2.982-6.452,4.795-8.419
	c0.508-0.487,0.994-0.906,1.768-0.906c0.95,0,1.635,0.641,1.635,1.746c0,1.104-0.75,3.381-1.303,5.038
	c-0.045,0.066-0.134,0.354-0.199,0.597c-0.045,0.066-0.176,0.508-0.221,0.597c-0.287,0.906-0.752,2.32-0.863,2.585
	c-0.109,0.354-0.883,2.564-0.883,2.784c0,0.023,0.022,0.111,0.066,0.111c0.332,0,1.656-3.226,1.9-3.845
	c3.381-8.266,4.84-9.525,6.32-9.525c1.237,0,1.348,1.437,1.348,1.923c0,1.193-0.266,2.564-1.502,6.364
	c-1.105,3.404-1.989,6.299-2.32,8.42L14.55,16.421z"/>
<path fill="none" stroke="#231F20" stroke-width="0.4" stroke-miterlimit="10" d="M37.026,6.057c0,4.884-4.531,9.856-9.283,9.856
	c-1.965,0-5.633-0.751-5.633-5.746c0-5.546,5.06-9.612,9.347-9.612C35.743,0.555,37.026,4.023,37.026,6.057z M23.655,11.206
	c0,0.906,0.267,4.309,3.846,4.309c4.707,0,7.713-6.21,7.713-9.966c0-3.558-2.143-4.619-3.492-4.619
	C27.059,0.93,23.655,7.538,23.655,11.206z"/>
<path fill="none" stroke="#231F20" stroke-width="0.4" stroke-miterlimit="10" d="M54.242,6.057c0,4.884-4.531,9.856-9.282,9.856
	c-1.966,0-5.635-0.751-5.635-5.746c0-5.546,5.061-9.612,9.348-9.612S54.242,4.023,54.242,6.057z M40.872,11.206
	c0,0.906,0.266,4.309,3.846,4.309c4.706,0,7.713-6.21,7.713-9.966c0-3.558-2.145-4.619-3.492-4.619
	C44.274,0.93,40.872,7.538,40.872,11.206z"/>
<path fill="none" stroke="#231F20" stroke-width="0.4" stroke-miterlimit="10" d="M66.618,1.128l1.68-0.574l-0.663,2.098
	c1.458,0.928,4.906,3.139,4.906,7.094c0,3.006-2.231,6.1-6.851,6.1c-1.437,0-2.607-0.31-4.509-0.796
	c-0.685,0.42-1.723,1.039-3.446,1.039c-1.172,0-2.74-0.288-2.74-1.238c0-0.884,1.348-1.812,3.535-1.812
	c1.238,0,2.188,0.244,3.094,0.486c1.238-1.856,2.145-3.69,3.822-8.905c0.377-1.194,0.466-1.437,0.642-1.901
	c-2.629-1.459-4.685-1.856-5.701-1.856c-1.104,0-1.901,0.574-1.901,1.392c0,0.862,0.885,2.32,2.873,3.801l-1.59,0.707
	c-1.305-1.282-2.453-2.586-2.453-4.022c0-1.326,1.127-2.321,3.138-2.321c0.663,0,2.962,0.067,5.879,1.503L66.618,1.128z
	 M57.846,14.277c-1.216,0-2.211,0.287-2.211,0.751c0,0.508,1.392,0.685,2.013,0.685c1.037,0,2.076-0.265,2.85-0.95
	C59.26,14.41,58.707,14.277,57.846,14.277z M66.772,5.372c-1.701,5.304-2.342,6.43-4.065,8.53c2.542,0.84,4.153,1.06,4.95,1.06
	c0.906,0,1.9-0.353,2.541-0.972c0.773-0.773,0.973-1.878,0.973-2.894c0-3.735-2.63-6.299-3.846-7.47
	C67.259,3.869,66.86,5.128,66.772,5.372z"/>
<path fill="none" stroke="#231F20" stroke-width="0.4" stroke-miterlimit="10" d="M91.614,0.509
	c-0.929,3.381-1.989,6.718-3.051,10.033l0.045,0.045l0.618-1.26c1.614-3.028,4.642-8.707,8.222-8.707
	c1.326,0,2.763,0.928,2.763,2.519c0,1.856-1.392,3.381-1.945,3.912c-1.679,1.613-4.707,2.585-5.834,2.828
	c-0.31,0.067-1.128,0.244-1.128,0.508c0,0.177,0.244,0.376,2.1,1.945c0.267,0.221,0.53,0.442,0.818,0.663l2.453,1.923l-0.995,1.237
	c-3.293-2.431-4.287-3.359-4.928-4c-0.397-0.375-0.884-0.862-0.884-1.282c0-0.508,0.397-0.684,1.17-0.949
	c4.93-1.658,7.471-5.238,7.471-7.537c0-1.127-0.751-1.347-1.215-1.347c-1.746,0-3.912,2.452-5.393,4.663
	c-2.387,3.557-3.382,6.165-5.061,10.496l-1.591-1.083c0.353-0.839,0.795-1.9,1.745-4.729c1.437-4.331,2.1-6.961,2.652-9.215
	L91.614,0.509z"/>
<path fill="none" stroke="#231F20" stroke-width="0.4" stroke-miterlimit="10" d="M111.725,11.537c-0.575,0.022-0.929,0-1.392-0.067
	c-0.598,1.26-2.166,4.597-6.808,4.597c-1.612,0-3.205-0.354-4.685-0.951l0.972-1.325c2.188,1.613,3.647,1.723,4.376,1.723
	c2.21,0,3.668-2.298,4.575-4.53c-0.575-0.309-1.106-0.597-1.681-1.525c-0.508-0.839-0.729-1.812-0.729-2.872
	c0-3.271,2.232-6.055,4.287-6.055c1.658,0,1.943,1.878,1.943,2.695c0,1.592-0.75,4.84-2.054,7.824
	c0.31,0.066,0.574,0.132,1.281,0.132L111.725,11.537z M111.083,1.99c0-1.061-0.397-1.105-0.641-1.105
	c-1.326,0-2.718,3.735-2.718,6.63c0,1.414,0.42,2.342,1.215,2.939C109.823,8.399,111.083,4.112,111.083,1.99z"/>
<path fill="none" stroke="#231F20" stroke-width="0.4" stroke-miterlimit="10" d="M125.205,17.371l-1.681-0.884l1.459-4.552
	l0.509-1.658c0.133-0.464,0.221-0.729,0.994-3.226c0.266-0.884,0.399-1.26,0.487-1.591c0.242-0.752,1.037-3.205,1.037-3.757
	c0-0.088,0-0.641-0.486-0.641c-2.475,0-7.114,9.878-8.639,13.568c-0.046,0.134-0.332,0.796-0.51,1.15h-1.966
	c0.31-0.862,1.503-4.376,1.812-5.26c0.686-2.055,0.774-2.276,1.039-3.204l0.264-0.862c0.332-1.039,1.305-4.221,1.305-4.994
	c0-0.243-0.088-0.487-0.266-0.487c-0.773,0-3.004,4.619-3.623,5.923c-0.155,0.331-0.199,0.398-0.266,0.531l-1.061-1.437
	c2.166-4.331,4.021-5.436,5.193-5.436c0.929,0,1.369,0.773,1.369,1.613c0,0.928-0.287,2.298-1.414,5.768
	c-0.509,1.569-0.662,2.143-0.861,2.784l0.044,0.045c0.243-0.531,0.442-0.863,1.128-2.188c2.585-4.907,4.552-8,6.828-8
	c0.796,0,1.613,0.376,1.613,1.568c0,0.62-0.133,1.349-0.817,3.426c-0.554,1.724-1.304,4.177-1.746,5.614L125.205,17.371z"/>
<path fill="none" stroke="#231F20" stroke-width="0.4" stroke-miterlimit="10" d="M140.122,5.857
	c0.817-0.641,3.514-2.74,3.514-4.088c0-0.729-0.84-0.929-1.369-0.929c-4.133,0-9.9,6.056-9.9,10.917c0,1.658,0.84,3.757,3.469,3.757
	c1.791,0,2.828-0.972,3.514-1.657c0.199-0.84,0.641-2.762,2.852-2.542c-0.841,1.017-1.193,2.299-1.525,3.581
	c-0.795,2.917-1.768,5.679-6.1,5.679c-1.591,0-2.828-0.331-3.757-0.574v-1.26c1.238,0.773,2.497,1.479,4,1.479
	c2.255,0,3.558-1.723,4.11-5.038c-1.458,0.552-2.165,0.751-3.27,0.751c-3.515,0-5.084-2.033-5.084-4.553
	c0-6.275,7.691-10.894,11.559-10.894c1.834,0,2.143,1.149,2.143,1.657c0,1.061-0.861,2.63-3.027,4.508L140.122,5.857z"/>
</svg>
