<?xml version="1.0" standalone="yes"?>
<svg xmlns="http://www.w3.org/2000/svg" width="940" height="1220">
<path style="fill:#ffffff; stroke:none;" d="M0 0L0 4L0 5L0 6L0 7L0 8L0 9L0 10L0 11L0 12L0 13L0 14L0 15L0 16L0 17L0 18L0 19L0 20L0 21L0 22L0 23L0 24L0 25L0 26L0 27L0 28L0 29L0 30L0 31L0 32L0 33L0 34L0 35L0 36L0 37L0 38L0 39L0 40L0 41L0 42L0 43L0 44L0 45L0 46L0 47L0 48L0 49L0 50L0 51L0 52L0 53L0 54L0 55L0 56L0 57L0 58L0 59L0 60L0 61L0 62L0 63L0 64L0 65L0 66L0 67L0 68L0 69L0 70L0 71L0 72L0 73L0 74L0 75L0 76L0 77L0 78L0 79L0 80L0 81L0 82L0 83L0 84L0 85L0 86L0 87L0 88L0 89L0 90L0 91L0 92L0 93L0 94L0 95L0 96L0 97L0 98L0 99L0 100L0 101L0 102L0 103L0 104L0 105L0 106L0 107L0 108L0 109L0 110L0 111L0 112L0 113L0 114L0 115L0 116L0 117L0 118L0 119L0 120L0 121L0 122L0 123L0 124L0 125L0 126L0 127L0 128L0 129L0 130L0 131L0 132L0 133L0 134L0 135L0 136L0 137L0 138L0 139L0 140L0 141L0 142L0 143L0 144L0 145L0 146L0 147L0 148L0 149L0 150L0 151L0 152L0 153L0 154L0 155L0 156L0 157L0 158L0 159L0 160L0 161L0 162L0 163L0 164L0 165L0 166L0 167L0 168L0 169L0 170L0 171L0 172L0 173L0 174L0 175L0 176L0 177L0 178L0 179L0 180L0 181L0 182L0 183L0 184L0 185L0 186L0 187L0 188L0 189L0 190L0 191L0 192L0 193L0 194L0 195L0 196L0 197L0 198L0 199L0 200L0 201L0 202L0 203L0 204L0 205L0 206L0 207L0 208L0 209L0 210L0 211L0 212L0 213L0 214L0 215L0 216L0 217L0 218L0 219L0 220L0 221L0 222L0 223L0 224L0 225L0 226L0 227L0 228L0 229L0 230L0 231L0 232L0 233L0 234L0 235L0 236L0 237L0 238L0 239L0 240L0 241L0 242L0 243L0 244L0 245L0 246L0 247L0 248L0 249L0 250L0 251L0 252L0 253L0 254L0 255L0 256L0 257L0 258L0 259L0 260L0 261L0 262L0 263L0 264L0 265L0 266L0 267L0 268L0 269L0 270L0 271L0 272L0 273L0 274L0 275L0 276L0 277L0 278L0 279L0 280L0 281L0 282L0 283L0 284L0 285L0 286L0 287L0 288L0 289L0 290L0 291L0 292L0 293L0 294L0 295L0 296L0 297L0 298L0 299L0 300L0 301L0 302L0 303L0 304L0 305L0 306L0 307L0 308L0 309L0 310L0 311L0 312L0 313L0 314L0 315L0 316L0 317L0 318L0 319L0 320L0 321L0 322L0 323L0 324L0 325L0 326L0 327L0 328L0 329L0 330L0 331L0 332L0 333L0 334L0 335L0 336L0 337L0 338L0 339L0 340L0 341L0 342L0 343L0 344L0 345L0 346L0 347L0 348L0 349L0 350L0 351L0 352L0 353L0 354L0 355L0 356L0 357L0 358L0 359L0 360L0 361L0 362L0 363L0 364L0 365L0 366L0 367L0 368L0 369L0 370L0 371L0 372L0 373L0 374L0 375L0 376L0 377L0 378L0 379L0 380L0 381L0 382L0 383L0 384L0 385L0 386L0 387L0 388L0 389L0 390L0 391L0 392L0 393L0 394L0 395L0 396L0 397L0 398L0 399L0 400L0 401L0 402L0 403L0 404L0 405L0 406L0 407L0 408L0 409L0 410L0 411L0 412L0 413L0 414L0 415L0 416L0 417L0 418L0 419L0 420L0 421L0 422L0 423L0 424L0 425L0 426L0 427L0 428L0 429L0 430L0 431L0 432L0 433L0 434L0 435L0 436L0 437L0 438L0 439L0 440L0 441L0 442L0 443L0 444L0 445L0 446L0 447L0 448L0 449L0 450L0 451L0 452L0 453L0 454L0 455L0 456L0 457L0 458L0 459L0 460L0 461L0 462L0 463L0 464L0 465L0 466L0 467L0 468L0 469L0 470L0 471L0 472L0 473L0 474L0 475L0 476L0 477L0 478L0 479L0 480L0 481L0 482L0 483L0 484L0 485L0 486L0 487L0 488L0 489L0 490L0 491L0 492L0 493L0 494L0 495L0 496L0 497L0 498L0 499L0 500L0 501L0 502L0 503L0 504L0 505L0 506L0 507L0 508L0 509L0 510L0 511L0 512L0 513L0 514L0 515L0 516L0 517L0 518L0 519L0 520L0 521L0 522L0 523L0 524L0 525L0 526L0 527L0 528L0 529L0 530L0 531L0 532L0 533L0 534L0 535L0 536L0 537L0 538L0 539L0 540L0 541L0 542L0 543L0 544L0 545L0 546L0 547L0 548L0 549L0 550L0 551L0 552L0 553L0 554L0 555L0 556L0 557L0 558L0 559L0 560L0 561L0 562L0 563L0 564L0 565L0 566L0 567L0 568L0 569L0 570L0 571L0 572L0 573L0 574L0 575L0 576L0 577L0 578L0 579L0 580L0 581L0 582L0 583L0 584L0 585L0 586L0 587L0 588L0 589L0 590L0 591L0 592L0 593L0 594L0 595L0 596L0 597L0 598L0 599L0 600L0 601L0 602L0 603L0 604L0 605L0 606L0 607L0 608L0 609L0 610L0 611L0 612L0 613L0 614L0 615L0 616L0 617L0 618L0 619L0 620L0 621L0 622L0 623L0 624L0 625L0 626L0 627L0 628L0 629L0 630L0 631L0 632L0 633L0 634L0 635L0 636L0 637L0 638L0 639L0 640L0 641L0 642L0 643L0 644L0 645L0 646L0 647L0 648L0 649L0 650L0 651L0 652L0 653L0 654L0 655L0 656L0 657L0 658L0 659L0 660L0 661L0 662L0 663L0 664L0 665L0 666L0 667L0 668L0 669L0 670L0 671L0 672L0 673L0 674L0 675L0 676L0 677L0 678L0 679L0 680L0 681L0 682L0 683L0 684L0 685L0 686L0 687L0 688L0 689L0 690L0 691L0 692L0 693L0 694L0 695L0 696L0 697L0 698L0 699L0 700L0 701L0 702L0 703L0 704L0 705L0 706L0 707L0 708L0 709L0 710L0 711L0 712L0 713L0 714L0 715L0 716L0 717L0 718L0 719L0 720L0 721L0 722L0 723L0 724L0 725L0 726L0 727L0 728L0 729L0 730L0 731L0 732L0 733L0 734L0 735L0 736L0 737L0 738L0 739L0 740L0 741L0 742L0 743L0 744L0 745L0 746L0 747L0 748L0 749L0 750L0 751L0 752L0 753L0 754L0 755L0 756L0 757L0 758L0 759L0 760L0 761L0 762L0 763L0 764L0 765L0 766L0 767L0 768L0 769L0 770L0 771L0 772L0 773L0 774L0 775L0 776L0 777L0 778L0 779L0 780L0 781L0 782L0 783L0 784L0 785L0 786L0 787L0 788L0 789L0 790L0 791L0 792L0 793L0 794L0 795L0 796L0 797L0 798L0 799L0 800L0 801L0 802L0 803L0 804L0 805L0 806L0 807L0 808L0 809L0 810L0 811L0 812L0 813L0 814L0 815L0 816L0 817L0 818L0 819L0 820L0 821L0 822L0 823L0 824L0 825L0 826L0 827L0 828L0 829L0 830L0 831L0 832L0 833L0 834L0 835L0 836L0 837L0 838L0 839L0 840L0 841L0 842L0 843L0 844L0 845L0 846L0 847L0 848L0 849L0 850L0 851L0 852L0 853L0 854L0 855L0 856L0 857L0 858L0 859L0 860L0 861L0 862L0 863L0 864L0 865L0 866L0 867L0 868L0 869L0 870L0 871L0 872L0 873L0 874L0 875L0 876L0 877L0 878L0 879L0 880L0 881L0 882L0 883L0 884L0 885L0 886L0 887L0 888L0 889L0 890L0 891L0 892L0 893L0 894L0 895L0 896L0 897L0 898L0 899L0 900L0 901L0 902L0 903L0 904L0 905L0 906L0 907L0 908L0 909L0 910L0 911L0 912L0 913L0 914L0 915L0 916L0 917L0 918L0 919L0 920L0 921L0 922L0 923L0 924L0 925L0 926L0 927L0 928L0 929L0 930L0 931L0 932L0 933L0 934L0 935L0 936L0 937L0 938L0 939L0 940L0 941L0 942L0 943L0 944L0 945L0 946L0 947L0 948L0 949L0 950L0 951L0 952L0 953L0 954L0 955L0 956L0 957L0 958L0 959L0 960L0 961L0 962L0 963L0 964L0 965L0 966L0 967L0 968L0 969L0 970L0 971L0 972L0 973L0 974L0 975L0 976L0 977L0 978L0 979L0 980L0 981L0 982L0 983L0 984L0 985L0 986L0 987L0 988L0 989L0 990L0 991L0 992L0 993L0 994L0 995L0 996L0 997L0 998L0 999L0 1000L0 1001L0 1002L0 1003L0 1004L0 1005L0 1006L0 1007L0 1008L0 1009L0 1010L0 1011L0 1012L0 1013L0 1014L0 1015L0 1016L0 1017L0 1018L0 1019L0 1020L0 1021L0 1022L0 1023L0 1024L0 1025L0 1026L0 1027L0 1028L0 1029L0 1030L0 1031L0 1032L0 1033L0 1034L0 1035L0 1036L0 1037L0 1038L0 1039L0 1040L0 1041L0 1042L0 1043L0 1044L0 1045L0 1046L0 1047L0 1048L0 1049L0 1050L0 1051L0 1052L0 1053L0 1054L0 1055L0 1056L0 1057L0 1058L0 1059L0 1060L0 1061L0 1062L0 1063L0 1064L0 1065L0 1066L0 1067L0 1068L0 1069L0 1070L0 1071L0 1072L0 1073L0 1074L0 1075L0 1076L0 1077L0 1078L0 1079L0 1080L0 1081L0 1082L0 1083L0 1084L0 1085L0 1086L0 1087L0 1088L0 1089L0 1090L0 1091L0 1092L0 1093L0 1094L0 1095L0 1096L0 1097L0 1098L0 1099L0 1100L0 1101L0 1102L0 1103L0 1104L0 1105L0 1106L0 1107L0 1108L0 1109L0 1110L0 1111L0 1112L0 1113L0 1114L0 1115L0 1116L0 1117L0 1118L0 1119L0 1120L0 1121L0 1122L0 1123L0 1124L0 1125L0 1126L0 1127L0 1128L0 1129L0 1130L0 1131L0 1132L0 1133L0 1134L0 1135L0 1136L0 1137L0 1138L0 1139L0 1140L0 1141L0 1142L0 1143L0 1144L0 1145L0 1146L0 1147L0 1148L0 1149L0 1150L0 1151L0 1152L0 1153L0 1154L0 1155L0 1156L0 1157L0 1158L0 1159L0 1160L0 1161L0 1162L0 1163L0 1164L0 1165L0 1166L0 1167L0 1168L0 1169L0 1170L0 1171L0 1172L0 1173L0 1174L0 1175L0 1176L0 1177L0 1178L0 1179L0 1180L0 1181L0 1182L0 1183L0 1184L0 1185L0 1186L0 1187L0 1188L0 1189L0 1190L0 1191L0 1192L0 1193L0 1194L0 1195L0 1196L0 1197L0 1198L0 1199L0 1200L0 1201L0 1202L0 1203L0 1204L0 1205L0 1206L0 1207L0 1208L0 1209L0 1210L0 1211L0 1212L0 1213L0 1214L0 1215L0 1220L4 1220L5 1220L6 1220L7 1220L8 1220L9 1220L10 1220L11 1220L12 1220L13 1220L14 1220L15 1220L16 1220L17 1220L18 1220L19 1220L20 1220L21 1220L22 1220L23 1220L24 1220L25 1220L26 1220L27 1220L28 1220L29 1220L30 1220L31 1220L32 1220L33 1220L34 1220L35 1220L36 1220L37 1220L38 1220L39 1220L40 1220L41 1220L42 1220L43 1220L44 1220L45 1220L46 1220L47 1220L48 1220L49 1220L50 1220L51 1220L52 1220L53 1220L54 1220L55 1220L56 1220L57 1220L58 1220L59 1220L60 1220L61 1220L62 1220L63 1220L64 1220L65 1220L66 1220L67 1220L68 1220L69 1220L70 1220L71 1220L72 1220L73 1220L74 1220L75 1220L76 1220L77 1220L78 1220L79 1220L80 1220L81 1220L82 1220L83 1220L84 1220L85 1220L86 1220L87 1220L88 1220L89 1220L90 1220L91 1220L92 1220L93 1220L94 1220L95 1220L96 1220L97 1220L98 1220L99 1220L100 1220L101 1220L102 1220L103 1220L104 1220L105 1220L106 1220L107 1220L108 1220L109 1220L110 1220L111 1220L112 1220L113 1220L114 1220L115 1220L116 1220L117 1220L118 1220L119 1220L120 1220L121 1220L122 1220L123 1220L124 1220L125 1220L126 1220L127 1220L128 1220L129 1220L130 1220L131 1220L132 1220L133 1220L134 1220L135 1220L136 1220L137 1220L138 1220L139 1220L140 1220L141 1220L142 1220L143 1220L144 1220L145 1220L146 1220L147 1220L148 1220L149 1220L150 1220L151 1220L152 1220L153 1220L154 1220L155 1220L156 1220L157 1220L158 1220L159 1220L160 1220L161 1220L162 1220L163 1220L164 1220L165 1220L166 1220L167 1220L168 1220L169 1220L170 1220L171 1220L172 1220L173 1220L174 1220L175 1220L176 1220L177 1220L178 1220L179 1220L180 1220L181 1220L182 1220L183 1220L184 1220L185 1220L186 1220L187 1220L188 1220L189 1220L190 1220L191 1220L192 1220L193 1220L194 1220L195 1220L196 1220L197 1220L198 1220L199 1220L200 1220L201 1220L202 1220L203 1220L204 1220L205 1220L206 1220L207 1220L208 1220L209 1220L210 1220L211 1220L212 1220L213 1220L214 1220L215 1220L216 1220L217 1220L218 1220L219 1220L220 1220L221 1220L222 1220L223 1220L224 1220L225 1220L226 1220L227 1220L228 1220L229 1220L230 1220L231 1220L232 1220L233 1220L234 1220L235 1220L236 1220L237 1220L238 1220L239 1220L240 1220L241 1220L242 1220L243 1220L244 1220L245 1220L246 1220L247 1220L248 1220L249 1220L250 1220L251 1220L252 1220L253 1220L254 1220L255 1220L256 1220L257 1220L258 1220L259 1220L260 1220L261 1220L262 1220L263 1220L264 1220L265 1220L266 1220L267 1220L268 1220L269 1220L270 1220L271 1220L272 1220L273 1220L274 1220L275 1220L276 1220L277 1220L278 1220L279 1220L280 1220L281 1220L282 1220L283 1220L284 1220L285 1220L286 1220L287 1220L288 1220L289 1220L290 1220L291 1220L292 1220L293 1220L294 1220L295 1220L296 1220L297 1220L298 1220L299 1220L300 1220L301 1220L302 1220L303 1220L304 1220L305 1220L306 1220L307 1220L308 1220L309 1220L310 1220L311 1220L312 1220L313 1220L314 1220L315 1220L316 1220L317 1220L318 1220L319 1220L320 1220L321 1220L322 1220L323 1220L324 1220L325 1220L326 1220L327 1220L328 1220L329 1220L330 1220L331 1220L332 1220L333 1220L334 1220L335 1220L336 1220L337 1220L338 1220L339 1220L340 1220L341 1220L342 1220L343 1220L344 1220L345 1220L346 1220L347 1220L348 1220L349 1220L350 1220L351 1220L352 1220L353 1220L354 1220L355 1220L356 1220L357 1220L358 1220L359 1220L360 1220L361 1220L362 1220L363 1220L364 1220L365 1220L366 1220L367 1220L368 1220L369 1220L370 1220L371 1220L372 1220L373 1220L374 1220L375 1220L376 1220L377 1220L378 1220L379 1220L380 1220L381 1220L382 1220L383 1220L384 1220L385 1220L386 1220L387 1220L388 1220L389 1220L390 1220L391 1220L392 1220L393 1220L394 1220L395 1220L396 1220L397 1220L398 1220L399 1220L400 1220L401 1220L402 1220L403 1220L404 1220L405 1220L406 1220L407 1220L408 1220L409 1220L410 1220L411 1220L412 1220L413 1220L414 1220L415 1220L416 1220L417 1220L418 1220L419 1220L420 1220L421 1220L422 1220L423 1220L424 1220L425 1220L426 1220L427 1220L428 1220L429 1220L430 1220L431 1220L432 1220L433 1220L434 1220L435 1220L436 1220L437 1220L438 1220L439 1220L440 1220L441 1220L442 1220L443 1220L444 1220L445 1220L446 1220L447 1220L448 1220L449 1220L450 1220L451 1220L452 1220L453 1220L454 1220L455 1220L456 1220L457 1220L458 1220L459 1220L460 1220L461 1220L462 1220L463 1220L464 1220L465 1220L466 1220L467 1220L468 1220L469 1220L470 1220L471 1220L472 1220L473 1220L474 1220L475 1220L476 1220L477 1220L478 1220L479 1220L480 1220L481 1220L482 1220L483 1220L484 1220L485 1220L486 1220L487 1220L488 1220L489 1220L490 1220L491 1220L492 1220L493 1220L494 1220L495 1220L496 1220L497 1220L498 1220L499 1220L500 1220L501 1220L502 1220L503 1220L504 1220L505 1220L506 1220L507 1220L508 1220L509 1220L510 1220L511 1220L512 1220L513 1220L514 1220L515 1220L516 1220L517 1220L518 1220L519 1220L520 1220L521 1220L522 1220L523 1220L524 1220L525 1220L526 1220L527 1220L528 1220L529 1220L530 1220L531 1220L532 1220L533 1220L534 1220L535 1220L536 1220L537 1220L538 1220L539 1220L540 1220L541 1220L542 1220L543 1220L544 1220L545 1220L546 1220L547 1220L548 1220L549 1220L550 1220L551 1220L552 1220L553 1220L554 1220L555 1220L556 1220L557 1220L558 1220L559 1220L560 1220L561 1220L562 1220L563 1220L564 1220L565 1220L566 1220L567 1220L568 1220L569 1220L570 1220L571 1220L572 1220L573 1220L574 1220L575 1220L576 1220L577 1220L578 1220L579 1220L580 1220L581 1220L582 1220L583 1220L584 1220L585 1220L586 1220L587 1220L588 1220L589 1220L590 1220L591 1220L592 1220L593 1220L594 1220L595 1220L596 1220L597 1220L598 1220L599 1220L600 1220L601 1220L602 1220L603 1220L604 1220L605 1220L606 1220L607 1220L608 1220L609 1220L610 1220L611 1220L612 1220L613 1220L614 1220L615 1220L616 1220L617 1220L618 1220L619 1220L620 1220L621 1220L622 1220L623 1220L624 1220L625 1220L626 1220L627 1220L628 1220L629 1220L630 1220L631 1220L632 1220L633 1220L634 1220L635 1220L636 1220L637 1220L638 1220L639 1220L640 1220L641 1220L642 1220L643 1220L644 1220L645 1220L646 1220L647 1220L648 1220L649 1220L650 1220L651 1220L652 1220L653 1220L654 1220L655 1220L656 1220L657 1220L658 1220L659 1220L660 1220L661 1220L662 1220L663 1220L664 1220L665 1220L666 1220L667 1220L668 1220L669 1220L670 1220L671 1220L672 1220L673 1220L674 1220L675 1220L676 1220L677 1220L678 1220L679 1220L680 1220L681 1220L682 1220L683 1220L684 1220L685 1220L686 1220L687 1220L688 1220L689 1220L690 1220L691 1220L692 1220L693 1220L694 1220L695 1220L696 1220L697 1220L698 1220L699 1220L700 1220L701 1220L702 1220L703 1220L704 1220L705 1220L706 1220L707 1220L708 1220L709 1220L710 1220L711 1220L712 1220L713 1220L714 1220L715 1220L716 1220L717 1220L718 1220L719 1220L720 1220L721 1220L722 1220L723 1220L724 1220L725 1220L726 1220L727 1220L728 1220L729 1220L730 1220L731 1220L732 1220L733 1220L734 1220L735 1220L736 1220L737 1220L738 1220L739 1220L740 1220L741 1220L742 1220L743 1220L744 1220L745 1220L746 1220L747 1220L748 1220L749 1220L750 1220L751 1220L752 1220L753 1220L754 1220L755 1220L756 1220L757 1220L758 1220L759 1220L760 1220L761 1220L762 1220L763 1220L764 1220L765 1220L766 1220L767 1220L768 1220L769 1220L770 1220L771 1220L772 1220L773 1220L774 1220L775 1220L776 1220L777 1220L778 1220L779 1220L780 1220L781 1220L782 1220L783 1220L784 1220L785 1220L786 1220L787 1220L788 1220L789 1220L790 1220L791 1220L792 1220L793 1220L794 1220L795 1220L796 1220L797 1220L798 1220L799 1220L800 1220L801 1220L802 1220L803 1220L804 1220L805 1220L806 1220L807 1220L808 1220L809 1220L810 1220L811 1220L812 1220L813 1220L814 1220L815 1220L816 1220L817 1220L818 1220L819 1220L820 1220L821 1220L822 1220L823 1220L824 1220L825 1220L826 1220L827 1220L828 1220L829 1220L830 1220L831 1220L832 1220L833 1220L834 1220L835 1220L836 1220L837 1220L838 1220L839 1220L840 1220L841 1220L842 1220L843 1220L844 1220L845 1220L846 1220L847 1220L848 1220L849 1220L850 1220L851 1220L852 1220L853 1220L854 1220L855 1220L856 1220L857 1220L858 1220L859 1220L860 1220L861 1220L862 1220L863 1220L864 1220L865 1220L866 1220L867 1220L868 1220L869 1220L870 1220L871 1220L872 1220L873 1220L874 1220L875 1220L876 1220L877 1220L878 1220L879 1220L880 1220L881 1220L882 1220L883 1220L884 1220L885 1220L886 1220L887 1220L888 1220L889 1220L890 1220L891 1220L892 1220L893 1220L894 1220L895 1220L896 1220L897 1220L898 1220L899 1220L900 1220L901 1220L902 1220L903 1220L904 1220L905 1220L906 1220L907 1220L908 1220L909 1220L910 1220L911 1220L912 1220L913 1220L914 1220L915 1220L916 1220L917 1220L918 1220L919 1220L920 1220L921 1220L922 1220L923 1220L924 1220L925 1220L926 1220L927 1220L928 1220L929 1220L930 1220L931 1220L932 1220L933 1220L934 1220L935 1220L940 1220L940 1216L940 1215L940 1214L940 1213L940 1212L940 1211L940 1210L940 1209L940 1208L940 1207L940 1206L940 1205L940 1204L940 1203L940 1202L940 1201L940 1200L940 1199L940 1198L940 1197L940 1196L940 1195L940 1194L940 1193L940 1192L940 1191L940 1190L940 1189L940 1188L940 1187L940 1186L940 1185L940 1184L940 1183L940 1182L940 1181L940 1180L940 1179L940 1178L940 1177L940 1176L940 1175L940 1174L940 1173L940 1172L940 1171L940 1170L940 1169L940 1168L940 1167L940 1166L940 1165L940 1164L940 1163L940 1162L940 1161L940 1160L940 1159L940 1158L940 1157L940 1156L940 1155L940 1154L940 1153L940 1152L940 1151L940 1150L940 1149L940 1148L940 1147L940 1146L940 1145L940 1144L940 1143L940 1142L940 1141L940 1140L940 1139L940 1138L940 1137L940 1136L940 1135L940 1134L940 1133L940 1132L940 1131L940 1130L940 1129L940 1128L940 1127L940 1126L940 1125L940 1124L940 1123L940 1122L940 1121L940 1120L940 1119L940 1118L940 1117L940 1116L940 1115L940 1114L940 1113L940 1112L940 1111L940 1110L940 1109L940 1108L940 1107L940 1106L940 1105L940 1104L940 1103L940 1102L940 1101L940 1100L940 1099L940 1098L940 1097L940 1096L940 1095L940 1094L940 1093L940 1092L940 1091L940 1090L940 1089L940 1088L940 1087L940 1086L940 1085L940 1084L940 1083L940 1082L940 1081L940 1080L940 1079L940 1078L940 1077L940 1076L940 1075L940 1074L940 1073L940 1072L940 1071L940 1070L940 1069L940 1068L940 1067L940 1066L940 1065L940 1064L940 1063L940 1062L940 1061L940 1060L940 1059L940 1058L940 1057L940 1056L940 1055L940 1054L940 1053L940 1052L940 1051L940 1050L940 1049L940 1048L940 1047L940 1046L940 1045L940 1044L940 1043L940 1042L940 1041L940 1040L940 1039L940 1038L940 1037L940 1036L940 1035L940 1034L940 1033L940 1032L940 1031L940 1030L940 1029L940 1028L940 1027L940 1026L940 1025L940 1024L940 1023L940 1022L940 1021L940 1020L940 1019L940 1018L940 1017L940 1016L940 1015L940 1014L940 1013L940 1012L940 1011L940 1010L940 1009L940 1008L940 1007L940 1006L940 1005L940 1004L940 1003L940 1002L940 1001L940 1000L940 999L940 998L940 997L940 996L940 995L940 994L940 993L940 992L940 991L940 990L940 989L940 988L940 987L940 986L940 985L940 984L940 983L940 982L940 981L940 980L940 979L940 978L940 977L940 976L940 975L940 974L940 973L940 972L940 971L940 970L940 969L940 968L940 967L940 966L940 965L940 964L940 963L940 962L940 961L940 960L940 959L940 958L940 957L940 956L940 955L940 954L940 953L940 952L940 951L940 950L940 949L940 948L940 947L940 946L940 945L940 944L940 943L940 942L940 941L940 940L940 939L940 938L940 937L940 936L940 935L940 934L940 933L940 932L940 931L940 930L940 929L940 928L940 927L940 926L940 925L940 924L940 923L940 922L940 921L940 920L940 919L940 918L940 917L940 916L940 915L940 914L940 913L940 912L940 911L940 910L940 909L940 908L940 907L940 906L940 905L940 904L940 903L940 902L940 901L940 900L940 899L940 898L940 897L940 896L940 895L940 894L940 893L940 892L940 891L940 890L940 889L940 888L940 887L940 886L940 885L940 884L940 883L940 882L940 881L940 880L940 879L940 878L940 877L940 876L940 875L940 874L940 873L940 872L940 871L940 870L940 869L940 868L940 867L940 866L940 865L940 864L940 863L940 862L940 861L940 860L940 859L940 858L940 857L940 856L940 855L940 854L940 853L940 852L940 851L940 850L940 849L940 848L940 847L940 846L940 845L940 844L940 843L940 842L940 841L940 840L940 839L940 838L940 837L940 836L940 835L940 834L940 833L940 832L940 831L940 830L940 829L940 828L940 827L940 826L940 825L940 824L940 823L940 822L940 821L940 820L940 819L940 818L940 817L940 816L940 815L940 814L940 813L940 812L940 811L940 810L940 809L940 808L940 807L940 806L940 805L940 804L940 803L940 802L940 801L940 800L940 799L940 798L940 797L940 796L940 795L940 794L940 793L940 792L940 791L940 790L940 789L940 788L940 787L940 786L940 785L940 784L940 783L940 782L940 781L940 780L940 779L940 778L940 777L940 776L940 775L940 774L940 773L940 772L940 771L940 770L940 769L940 768L940 767L940 766L940 765L940 764L940 763L940 762L940 761L940 760L940 759L940 758L940 757L940 756L940 755L940 754L940 753L940 752L940 751L940 750L940 749L940 748L940 747L940 746L940 745L940 744L940 743L940 742L940 741L940 740L940 739L940 738L940 737L940 736L940 735L940 734L940 733L940 732L940 731L940 730L940 729L940 728L940 727L940 726L940 725L940 724L940 723L940 722L940 721L940 720L940 719L940 718L940 717L940 716L940 715L940 714L940 713L940 712L940 711L940 710L940 709L940 708L940 707L940 706L940 705L940 704L940 703L940 702L940 701L940 700L940 699L940 698L940 697L940 696L940 695L940 694L940 693L940 692L940 691L940 690L940 689L940 688L940 687L940 686L940 685L940 684L940 683L940 682L940 681L940 680L940 679L940 678L940 677L940 676L940 675L940 674L940 673L940 672L940 671L940 670L940 669L940 668L940 667L940 666L940 665L940 664L940 663L940 662L940 661L940 660L940 659L940 658L940 657L940 656L940 655L940 654L940 653L940 652L940 651L940 650L940 649L940 648L940 647L940 646L940 645L940 644L940 643L940 642L940 641L940 640L940 639L940 638L940 637L940 636L940 635L940 634L940 633L940 632L940 631L940 630L940 629L940 628L940 627L940 626L940 625L940 624L940 623L940 622L940 621L940 620L940 619L940 618L940 617L940 616L940 615L940 614L940 613L940 612L940 611L940 610L940 609L940 608L940 607L940 606L940 605L940 604L940 603L940 602L940 601L940 600L940 599L940 598L940 597L940 596L940 595L940 594L940 593L940 592L940 591L940 590L940 589L940 588L940 587L940 586L940 585L940 584L940 583L940 582L940 581L940 580L940 579L940 578L940 577L940 576L940 575L940 574L940 573L940 572L940 571L940 570L940 569L940 568L940 567L940 566L940 565L940 564L940 563L940 562L940 561L940 560L940 559L940 558L940 557L940 556L940 555L940 554L940 553L940 552L940 551L940 550L940 549L940 548L940 547L940 546L940 545L940 544L940 543L940 542L940 541L940 540L940 539L940 538L940 537L940 536L940 535L940 534L940 533L940 532L940 531L940 530L940 529L940 528L940 527L940 526L940 525L940 524L940 523L940 522L940 521L940 520L940 519L940 518L940 517L940 516L940 515L940 514L940 513L940 512L940 511L940 510L940 509L940 508L940 507L940 506L940 505L940 504L940 503L940 502L940 501L940 500L940 499L940 498L940 497L940 496L940 495L940 494L940 493L940 492L940 491L940 490L940 489L940 488L940 487L940 486L940 485L940 484L940 483L940 482L940 481L940 480L940 479L940 478L940 477L940 476L940 475L940 474L940 473L940 472L940 471L940 470L940 469L940 468L940 467L940 466L940 465L940 464L940 463L940 462L940 461L940 460L940 459L940 458L940 457L940 456L940 455L940 454L940 453L940 452L940 451L940 450L940 449L940 448L940 447L940 446L940 445L940 444L940 443L940 442L940 441L940 440L940 439L940 438L940 437L940 436L940 435L940 434L940 433L940 432L940 431L940 430L940 429L940 428L940 427L940 426L940 425L940 424L940 423L940 422L940 421L940 420L940 419L940 418L940 417L940 416L940 415L940 414L940 413L940 412L940 411L940 410L940 409L940 408L940 407L940 406L940 405L940 404L940 403L940 402L940 401L940 400L940 399L940 398L940 397L940 396L940 395L940 394L940 393L940 392L940 391L940 390L940 389L940 388L940 387L940 386L940 385L940 384L940 383L940 382L940 381L940 380L940 379L940 378L940 377L940 376L940 375L940 374L940 373L940 372L940 371L940 370L940 369L940 368L940 367L940 366L940 365L940 364L940 363L940 362L940 361L940 360L940 359L940 358L940 357L940 356L940 355L940 354L940 353L940 352L940 351L940 350L940 349L940 348L940 347L940 346L940 345L940 344L940 343L940 342L940 341L940 340L940 339L940 338L940 337L940 336L940 335L940 334L940 333L940 332L940 331L940 330L940 329L940 328L940 327L940 326L940 325L940 324L940 323L940 322L940 321L940 320L940 319L940 318L940 317L940 316L940 315L940 314L940 313L940 312L940 311L940 310L940 309L940 308L940 307L940 306L940 305L940 304L940 303L940 302L940 301L940 300L940 299L940 298L940 297L940 296L940 295L940 294L940 293L940 292L940 291L940 290L940 289L940 288L940 287L940 286L940 285L940 284L940 283L940 282L940 281L940 280L940 279L940 278L940 277L940 276L940 275L940 274L940 273L940 272L940 271L940 270L940 269L940 268L940 267L940 266L940 265L940 264L940 263L940 262L940 261L940 260L940 259L940 258L940 257L940 256L940 255L940 254L940 253L940 252L940 251L940 250L940 249L940 248L940 247L940 246L940 245L940 244L940 243L940 242L940 241L940 240L940 239L940 238L940 237L940 236L940 235L940 234L940 233L940 232L940 231L940 230L940 229L940 228L940 227L940 226L940 225L940 224L940 223L940 222L940 221L940 220L940 219L940 218L940 217L940 216L940 215L940 214L940 213L940 212L940 211L940 210L940 209L940 208L940 207L940 206L940 205L940 204L940 203L940 202L940 201L940 200L940 199L940 198L940 197L940 196L940 195L940 194L940 193L940 192L940 191L940 190L940 189L940 188L940 187L940 186L940 185L940 184L940 183L940 182L940 181L940 180L940 179L940 178L940 177L940 176L940 175L940 174L940 173L940 172L940 171L940 170L940 169L940 168L940 167L940 166L940 165L940 164L940 163L940 162L940 161L940 160L940 159L940 158L940 157L940 156L940 155L940 154L940 153L940 152L940 151L940 150L940 149L940 148L940 147L940 146L940 145L940 144L940 143L940 142L940 141L940 140L940 139L940 138L940 137L940 136L940 135L940 134L940 133L940 132L940 131L940 130L940 129L940 128L940 127L940 126L940 125L940 124L940 123L940 122L940 121L940 120L940 119L940 118L940 117L940 116L940 115L940 114L940 113L940 112L940 111L940 110L940 109L940 108L940 107L940 106L940 105L940 104L940 103L940 102L940 101L940 100L940 99L940 98L940 97L940 96L940 95L940 94L940 93L940 92L940 91L940 90L940 89L940 88L940 87L940 86L940 85L940 84L940 83L940 82L940 81L940 80L940 79L940 78L940 77L940 76L940 75L940 74L940 73L940 72L940 71L940 70L940 69L940 68L940 67L940 66L940 65L940 64L940 63L940 62L940 61L940 60L940 59L940 58L940 57L940 56L940 55L940 54L940 53L940 52L940 51L940 50L940 49L940 48L940 47L940 46L940 45L940 44L940 43L940 42L940 41L940 40L940 39L940 38L940 37L940 36L940 35L940 34L940 33L940 32L940 31L940 30L940 29L940 28L940 27L940 26L940 25L940 24L940 23L940 22L940 21L940 20L940 19L940 18L940 17L940 16L940 15L940 14L940 13L940 12L940 11L940 10L940 9L940 8L940 7L940 6L940 5L940 0L936 0L935 0L934 0L933 0L932 0L931 0L930 0L929 0L928 0L927 0L926 0L925 0L924 0L923 0L922 0L921 0L920 0L919 0L918 0L917 0L916 0L915 0L914 0L913 0L912 0L911 0L910 0L909 0L908 0L907 0L906 0L905 0L904 0L903 0L902 0L901 0L900 0L899 0L898 0L897 0L896 0L895 0L894 0L893 0L892 0L891 0L890 0L889 0L888 0L887 0L886 0L885 0L884 0L883 0L882 0L881 0L880 0L879 0L878 0L877 0L876 0L875 0L874 0L873 0L872 0L871 0L870 0L869 0L868 0L867 0L866 0L865 0L864 0L863 0L862 0L861 0L860 0L859 0L858 0L857 0L856 0L855 0L854 0L853 0L852 0L851 0L850 0L849 0L848 0L847 0L846 0L845 0L844 0L843 0L842 0L841 0L840 0L839 0L838 0L837 0L836 0L835 0L834 0L833 0L832 0L831 0L830 0L829 0L828 0L827 0L826 0L825 0L824 0L823 0L822 0L821 0L820 0L819 0L818 0L817 0L816 0L815 0L814 0L813 0L812 0L811 0L810 0L809 0L808 0L807 0L806 0L805 0L804 0L803 0L802 0L801 0L800 0L799 0L798 0L797 0L796 0L795 0L794 0L793 0L792 0L791 0L790 0L789 0L788 0L787 0L786 0L785 0L784 0L783 0L782 0L781 0L780 0L779 0L778 0L777 0L776 0L775 0L774 0L773 0L772 0L771 0L770 0L769 0L768 0L767 0L766 0L765 0L764 0L763 0L762 0L761 0L760 0L759 0L758 0L757 0L756 0L755 0L754 0L753 0L752 0L751 0L750 0L749 0L748 0L747 0L746 0L745 0L744 0L743 0L742 0L741 0L740 0L739 0L738 0L737 0L736 0L735 0L734 0L733 0L732 0L731 0L730 0L729 0L728 0L727 0L726 0L725 0L724 0L723 0L722 0L721 0L720 0L719 0L718 0L717 0L716 0L715 0L714 0L713 0L712 0L711 0L710 0L709 0L708 0L707 0L706 0L705 0L704 0L703 0L702 0L701 0L700 0L699 0L698 0L697 0L696 0L695 0L694 0L693 0L692 0L691 0L690 0L689 0L688 0L687 0L686 0L685 0L684 0L683 0L682 0L681 0L680 0L679 0L678 0L677 0L676 0L675 0L674 0L673 0L672 0L671 0L670 0L669 0L668 0L667 0L666 0L665 0L664 0L663 0L662 0L661 0L660 0L659 0L658 0L657 0L656 0L655 0L654 0L653 0L652 0L651 0L650 0L649 0L648 0L647 0L646 0L645 0L644 0L643 0L642 0L641 0L640 0L639 0L638 0L637 0L636 0L635 0L634 0L633 0L632 0L631 0L630 0L629 0L628 0L627 0L626 0L625 0L624 0L623 0L622 0L621 0L620 0L619 0L618 0L617 0L616 0L615 0L614 0L613 0L612 0L611 0L610 0L609 0L608 0L607 0L606 0L605 0L604 0L603 0L602 0L601 0L600 0L599 0L598 0L597 0L596 0L595 0L594 0L593 0L592 0L591 0L590 0L589 0L588 0L587 0L586 0L585 0L584 0L583 0L582 0L581 0L580 0L579 0L578 0L577 0L576 0L575 0L574 0L573 0L572 0L571 0L570 0L569 0L568 0L567 0L566 0L565 0L564 0L563 0L562 0L561 0L560 0L559 0L558 0L557 0L556 0L555 0L554 0L553 0L552 0L551 0L550 0L549 0L548 0L547 0L546 0L545 0L544 0L543 0L542 0L541 0L540 0L539 0L538 0L537 0L536 0L535 0L534 0L533 0L532 0L531 0L530 0L529 0L528 0L527 0L526 0L525 0L524 0L523 0L522 0L521 0L520 0L519 0L518 0L517 0L516 0L515 0L514 0L513 0L512 0L511 0L510 0L509 0L508 0L507 0L506 0L505 0L504 0L503 0L502 0L501 0L500 0L499 0L498 0L497 0L496 0L495 0L494 0L493 0L492 0L491 0L490 0L489 0L488 0L487 0L486 0L485 0L484 0L483 0L482 0L481 0L480 0L479 0L478 0L477 0L476 0L475 0L474 0L473 0L472 0L471 0L470 0L469 0L468 0L467 0L466 0L465 0L464 0L463 0L462 0L461 0L460 0L459 0L458 0L457 0L456 0L455 0L454 0L453 0L452 0L451 0L450 0L449 0L448 0L447 0L446 0L445 0L444 0L443 0L442 0L441 0L440 0L439 0L438 0L437 0L436 0L435 0L434 0L433 0L432 0L431 0L430 0L429 0L428 0L427 0L426 0L425 0L424 0L423 0L422 0L421 0L420 0L419 0L418 0L417 0L416 0L415 0L414 0L413 0L412 0L411 0L410 0L409 0L408 0L407 0L406 0L405 0L404 0L403 0L402 0L401 0L400 0L399 0L398 0L397 0L396 0L395 0L394 0L393 0L392 0L391 0L390 0L389 0L388 0L387 0L386 0L385 0L384 0L383 0L382 0L381 0L380 0L379 0L378 0L377 0L376 0L375 0L374 0L373 0L372 0L371 0L370 0L369 0L368 0L367 0L366 0L365 0L364 0L363 0L362 0L361 0L360 0L359 0L358 0L357 0L356 0L355 0L354 0L353 0L352 0L351 0L350 0L349 0L348 0L347 0L346 0L345 0L344 0L343 0L342 0L341 0L340 0L339 0L338 0L337 0L336 0L335 0L334 0L333 0L332 0L331 0L330 0L329 0L328 0L327 0L326 0L325 0L324 0L323 0L322 0L321 0L320 0L319 0L318 0L317 0L316 0L315 0L314 0L313 0L312 0L311 0L310 0L309 0L308 0L307 0L306 0L305 0L304 0L303 0L302 0L301 0L300 0L299 0L298 0L297 0L296 0L295 0L294 0L293 0L292 0L291 0L290 0L289 0L288 0L287 0L286 0L285 0L284 0L283 0L282 0L281 0L280 0L279 0L278 0L277 0L276 0L275 0L274 0L273 0L272 0L271 0L270 0L269 0L268 0L267 0L266 0L265 0L264 0L263 0L262 0L261 0L260 0L259 0L258 0L257 0L256 0L255 0L254 0L253 0L252 0L251 0L250 0L249 0L248 0L247 0L246 0L245 0L244 0L243 0L242 0L241 0L240 0L239 0L238 0L237 0L236 0L235 0L234 0L233 0L232 0L231 0L230 0L229 0L228 0L227 0L226 0L225 0L224 0L223 0L222 0L221 0L220 0L219 0L218 0L217 0L216 0L215 0L214 0L213 0L212 0L211 0L210 0L209 0L208 0L207 0L206 0L205 0L204 0L203 0L202 0L201 0L200 0L199 0L198 0L197 0L196 0L195 0L194 0L193 0L192 0L191 0L190 0L189 0L188 0L187 0L186 0L185 0L184 0L183 0L182 0L181 0L180 0L179 0L178 0L177 0L176 0L175 0L174 0L173 0L172 0L171 0L170 0L169 0L168 0L167 0L166 0L165 0L164 0L163 0L162 0L161 0L160 0L159 0L158 0L157 0L156 0L155 0L154 0L153 0L152 0L151 0L150 0L149 0L148 0L147 0L146 0L145 0L144 0L143 0L142 0L141 0L140 0L139 0L138 0L137 0L136 0L135 0L134 0L133 0L132 0L131 0L130 0L129 0L128 0L127 0L126 0L125 0L124 0L123 0L122 0L121 0L120 0L119 0L118 0L117 0L116 0L115 0L114 0L113 0L112 0L111 0L110 0L109 0L108 0L107 0L106 0L105 0L104 0L103 0L102 0L101 0L100 0L99 0L98 0L97 0L96 0L95 0L94 0L93 0L92 0L91 0L90 0L89 0L88 0L87 0L86 0L85 0L84 0L83 0L82 0L81 0L80 0L79 0L78 0L77 0L76 0L75 0L74 0L73 0L72 0L71 0L70 0L69 0L68 0L67 0L66 0L65 0L64 0L63 0L62 0L61 0L60 0L59 0L58 0L57 0L56 0L55 0L54 0L53 0L52 0L51 0L50 0L49 0L48 0L47 0L46 0L45 0L44 0L43 0L42 0L41 0L40 0L39 0L38 0L37 0L36 0L35 0L34 0L33 0L32 0L31 0L30 0L29 0L28 0L27 0L26 0L25 0L24 0L23 0L22 0L21 0L20 0L19 0L18 0L17 0L16 0L15 0L14 0L13 0L12 0L11 0L10 0L9 0L8 0L7 0L6 0L5 0L0 0z"/>
<path style="fill:#000000; stroke:none;" d="M557 132L553 134L552 137L549 138L548 141L543 146L543 154L545 156L545 162L547 168L550 169L551 172L555 173L555 174L557 175L561 175L562 175L563 175L564 175L565 175L566 175L567 175L568 175L574 175L578 171L580 171L581 170L582 169L583 168L583 166L584 165L588 162L589 153L589 148L589 147L585 148L583 145L580 138L580 134L573 134L572 132L571 132L567 132L566 132L565 132L564 132L557 132z"/>
<path style="fill:#ffffff; stroke:none;" d="M565 143L559 146L556 150L556 158L559 162L562 162L563 164L571 164L574 162L576 159L576 152L575 152L575 147L572 144L565 143z"/>
<path style="fill:#000000; stroke:none;" d="M76 215L77 216L76 215M314 226L311 227L309 229L304 229L302 232L300 232L298 233L297 236L297 241L296 241L296 249L298 254L300 256L302 256L303 258L305 258L306 260L310 262L315 263L318 263L318 262L323 262L326 261L326 260L329 260L331 258L331 256L333 255L334 252L333 249L335 247L334 244L334 239L332 234L328 230L326 230L325 228L320 226L314 226M307 227L308 228L307 227z"/>
<path style="fill:#ffffff; stroke:none;" d="M313 236L310 238L309 239L308 240L308 247L311 250L315 252L320 252L324 249L324 242L322 239L319 238L319 237L317 236L313 236z"/>
<path style="fill:#000000; stroke:none;" d="M489 269L487 271L484 271L480 273L476 276L475 277L473 280L473 283L471 284L471 288L470 288L470 292L471 292L471 297L472 297L472 301L473 301L473 305L475 307L476 307L476 308L477 308L479 311L483 312L483 313L485 313L487 315L496 315L499 314L499 313L502 313L504 311L506 311L506 310L508 310L510 308L510 307L511 307L511 306L512 306L512 305L513 305L513 304L515 303L515 301L518 298L518 294L518 293L518 292L518 291L518 285L516 284L516 280L514 278L513 278L513 277L512 277L512 276L511 276L511 275L510 275L510 274L509 274L509 273L508 273L507 271L502 269L498 269L497 269L496 269L495 269L489 269z"/>
<path style="fill:#ffffff; stroke:none;" d="M499 279L496 280L493 280L490 280L487 282L483 286L482 289L482 295L484 299L487 300L488 303L491 304L496 304L499 303L501 301L501 300L502 300L502 299L505 296L505 286L503 284L503 282L499 279z"/>
<path style="fill:#000000; stroke:none;" d="M209 347L206 348L201 351L199 353L199 354L198 354L198 355L193 358L192 361L189 362L188 365L188 369L187 369L187 372L189 381L188 385L189 388L191 391L195 392L195 393L197 393L199 395L203 395L204 395L205 395L206 395L207 395L208 395L209 395L210 395L211 395L212 395L213 395L214 395L220 395L224 393L227 389L229 389L230 388L231 385L232 385L233 383L233 379L233 378L233 377L233 376L233 375L233 374L233 373L233 372L233 371L233 370L233 369L233 368L233 362L232 359L230 356L226 355L225 352L224 351L223 350L220 350L215 347L214 350L211 347L209 347M605 351L603 353L599 353L596 355L591 360L587 360L583 362L582 364L580 364L579 366L577 367L574 368L568 368L564 370L561 372L561 373L559 373L557 376L552 376L550 378L548 378L548 379L546 379L546 380L544 381L537 381L537 382L533 382L526 385L526 387L523 387L523 388L519 390L515 390L513 392L510 392L508 393L508 394L506 395L503 395L501 397L498 397L496 398L493 402L490 402L489 404L483 407L481 406L478 410L473 410L471 412L469 412L469 413L467 413L467 414L465 415L462 415L460 416L460 417L458 418L452 419L450 421L447 421L445 422L445 423L443 423L443 424L441 424L441 425L439 426L436 426L434 428L431 428L429 430L426 430L424 431L424 432L422 433L419 433L417 435L414 435L412 436L412 437L407 438L404 440L404 441L402 442L399 442L397 443L395 446L393 446L392 448L390 448L389 449L389 450L388 451L386 453L383 453L383 455L379 456L377 459L373 459L368 462L367 464L362 465L360 467L359 468L359 469L358 470L356 470L355 472L352 472L350 475L343 477L341 480L334 482L332 485L330 485L329 487L327 487L326 489L322 489L321 492L315 494L314 496L312 496L308 501L305 500L300 502L300 503L296 503L292 506L291 507L290 510L286 509L284 513L280 513L280 514L274 514L272 517L268 517L266 521L262 523L256 523L251 525L250 529L249 530L244 533L233 534L233 536L229 537L223 543L219 543L215 548L211 549L207 552L205 559L209 563L215 563L220 560L221 557L224 555L226 555L229 551L233 549L235 549L236 547L241 545L245 545L248 544L253 542L254 539L257 536L260 535L263 535L263 534L266 534L269 533L270 530L275 527L281 527L283 525L286 525L288 524L289 522L291 522L293 519L295 519L296 517L300 517L303 516L305 514L308 514L310 513L315 507L320 507L323 505L325 502L331 500L334 496L337 496L338 494L340 494L341 492L346 491L349 489L349 488L351 488L353 487L354 485L357 483L362 482L363 479L369 477L370 475L372 475L374 472L380 471L381 468L386 467L388 465L389 464L389 462L392 460L396 459L399 455L401 455L402 454L403 452L404 451L408 449L414 449L414 448L418 448L420 445L423 445L424 443L428 443L431 439L435 439L439 437L440 436L441 433L451 433L456 431L456 430L460 430L463 428L464 426L468 425L469 423L471 422L474 421L478 421L483 418L484 416L486 416L486 415L488 415L488 414L490 414L490 413L492 413L492 412L494 412L497 409L505 407L506 405L509 405L509 404L512 404L512 403L515 403L517 400L525 400L527 397L530 398L532 396L538 396L540 394L542 394L542 393L547 390L552 390L557 386L561 386L566 382L570 382L570 381L574 381L574 380L578 380L581 377L583 377L584 375L589 374L591 372L593 372L593 371L596 369L601 367L607 367L609 363L613 364L616 368L617 374L621 378L622 381L622 386L626 387C625.213 390.218 625.215 392.028 628 394L628 398L630 400L630 405L632 412L635 415L635 419L640 426L640 430L642 433L642 438L643 438L643 442L646 445L646 449L648 452L648 453L647 456L649 458L649 461L649 462L650 462L650 465L650 468L651 471L650 475L651 478L651 485L653 488L653 492L653 493L653 494L653 495L653 502L652 502L652 505L652 508L652 511L654 513L654 523L653 523L653 528L652 528L652 532L651 532L651 536L653 538L653 540L652 542L651 542L651 544L650 544L650 546L649 546L646 551L645 554L645 559L641 563L641 566L639 567L636 572L634 580L632 581L630 587L625 592L623 599L621 599L619 602L619 605L617 606L617 608L615 609L614 613L611 615L610 620L607 622L606 627L604 627L602 634L600 637L596 640L596 643L594 644L594 646L593 647L589 653L585 656L583 662L581 663L579 666L579 669L577 670L577 673L574 675L573 679L570 681L570 684L567 686L567 688L565 689L565 691L563 692L562 697L558 700L557 705L554 707L553 711L548 713L545 717L544 721L542 721L541 725L539 726L539 728L538 728L538 730L537 732L534 735L533 736L531 736L529 742L521 745L522 739L523 739L523 734L524 731L525 731L525 725L527 723L527 718L528 718L528 713L530 711L531 708L531 704L535 700L535 694L537 691L539 690L540 689L540 684L542 683L542 679L545 676L545 672L546 669L547 669L547 666L550 663L550 657L553 654L553 649L556 646L556 641L559 637L559 632L561 628L563 626L563 624L564 624L565 622L565 618L569 613L569 609L570 606L572 604L573 601L573 597L574 594L576 594L577 591L577 586L580 582L579 577L581 573L583 571L583 568L587 562L587 554L588 551L590 549L590 547L591 547L593 544L593 539L594 539L594 533L596 531L597 528L597 525L598 525L598 520L599 520L600 514L599 511L601 510L601 509L600 507L600 506L602 504L602 498L603 498L603 492L604 492L605 484L603 479L597 477L595 480L593 480L592 481L591 484L589 485L589 487L588 487L588 489L587 491L584 492L583 497L579 497L578 497L577 497L576 497L571 497L568 500L568 502L567 503L564 504L563 508L559 511L559 513L556 515L556 517L554 518L554 520L553 521L551 522L550 523L550 527L548 527L548 531L545 533L545 535L543 536L543 538L540 540L540 542L538 543L538 545L536 548L534 548L531 553L531 556L529 557L529 559L527 560L527 562L525 563L523 570L521 573L520 573L519 575L515 584L515 588L513 593L511 596L510 596L509 598L509 601L508 603L507 603L506 605L505 611L503 616L500 618L497 623L496 626L496 629L495 629L495 633L490 639L490 642L488 643L487 647L485 648L484 650L484 653L483 655L482 655L482 657L480 662L478 665L475 667L475 670L473 671L472 677L470 679L470 681L469 681L466 686L462 694L462 697L460 698L460 700L457 702L457 704L454 707L454 711L452 713L452 715L451 715L449 718L449 723L446 726L445 731L442 733L442 739L438 742L439 744L437 748L431 753L431 747L432 747L432 740L433 740L433 734L435 732L434 729L434 727L436 724L436 720L437 720L437 715L439 714L439 713L438 710L439 708L438 704L440 702L440 697L442 695L442 691L443 691L445 682L444 679L447 676L446 672L449 669L449 664L450 664L452 659L451 653L452 653L452 648L453 648L453 643L455 641L456 638L456 634L459 631L458 626L461 622L461 614L463 612L462 608L466 603L467 600L467 597L470 593L470 589L471 589L471 584L473 583L473 582L473 579L473 578L475 577L475 576L475 571L476 565L479 561L480 557L480 555L479 552L477 550L477 542L473 540L472 537L468 535L464 536L461 539L461 542L459 543L458 546L458 549L457 552L454 553L451 555L450 560L448 561L448 563L444 566L444 568L443 569L441 571L440 571L440 572L439 572L439 573L438 573L438 574L437 574L437 575L436 575L436 576L435 576L435 577L434 577L434 578L433 578L431 582L428 583L425 587L424 591L423 591L423 593L421 595L421 600L418 602L417 605L417 611L414 614L414 618L411 620L411 623L408 625L406 633L402 636L402 640L399 643L399 646L396 648L394 655L392 656L392 658L390 659L390 661L389 661L388 666L385 668L384 673L381 675L380 676L378 678L378 682L377 682L377 686L374 689L371 695L372 699L370 702L369 702L368 704L367 711L364 713L364 715L363 715L363 717L362 717L361 719L361 725L357 730L358 733L356 736L356 740L354 743L354 748L352 748L352 744L350 743L350 742L350 736L348 734L345 733L341 733L335 729L334 726L330 725L329 724L329 722L327 720L326 720L326 719L325 719L322 714L319 713L317 708L314 707L312 705L312 704L311 704L311 703L308 700L302 697L302 694L300 691L296 686L293 685L292 681L290 680L289 679L289 676L288 675L284 672L284 670L282 669L280 663L277 661L276 657L272 654L272 651L271 650L268 649L266 646L265 641L263 639L262 638L259 636L259 633L258 632L256 631L255 630L255 623L252 622L251 617L248 615L247 614L247 612L244 611L242 604L237 600L238 598L237 597L233 594L234 589L231 590L229 587L228 581L225 577L225 573L222 569L222 564L219 563L214 564L214 573L215 576L216 576L216 579L218 581L219 584L219 588L220 588L220 592L223 598L226 600L226 603L228 604L228 606L231 611L233 613L234 614L235 614L236 615L236 617L238 618L237 621L239 624L241 625L241 627L243 628L243 630L244 630L245 632L245 636L249 639L250 644L252 644L252 647L255 648L256 651L258 652L259 653L259 656L260 657L262 658L263 662L266 663L268 668L270 669L270 671L272 672L272 674L275 676L276 680L280 683L284 689L286 695L289 696L290 699L294 702L295 706L297 708L298 708L298 709L299 709L302 712L302 714L303 715L309 718L311 723L312 724L314 724L317 727L318 728L318 730L321 731L322 732L323 736L326 739L330 739L337 743L339 747L344 749C345.66 752.245 347.378 753.17 351 753L350 756L350 762L349 762L349 767L347 769L347 776L346 776L346 780L343 784L342 787L340 793L341 799L340 799L340 806L339 806L338 814L338 815L339 819L338 819L339 827L339 829L338 833L337 833L337 837L334 839L334 848L336 849L336 850L336 854L336 855L336 856L336 857L336 864L337 864L337 871L338 871L338 874L338 877L338 880L339 880L339 883L339 886L339 889L341 892L341 899L343 901L343 903L344 903L345 908L348 910L348 914L351 918L351 922L352 922L352 926L354 927L354 931L356 934L357 938L357 940L356 943L358 947L359 947L359 951L361 954L361 958L362 958L362 965L364 968L363 973L366 977L366 983L369 986L369 990L370 990L370 996L373 999L373 1007L374 1007L374 1010L374 1017L375 1017L375 1023L373 1025L374 1028L374 1038L379 1044L383 1044L383 1045L387 1045L391 1048L396 1048L398 1050L400 1050L400 1051L402 1052L411 1052L411 1053L417 1053L417 1054L422 1055L425 1055L425 1054L428 1054L428 1055L435 1055L435 1054L438 1054L448 1054L451 1055L460 1056L462 1056L463 1055L467 1055L468 1055L469 1055L470 1055L476 1055L476 1056L480 1056L480 1057L486 1057L488 1059L494 1059L494 1060L498 1060L498 1061L504 1062L506 1062L507 1061L511 1061L512 1061L513 1061L514 1061L515 1061L516 1061L517 1061L518 1061L525 1061L525 1060L532 1060L532 1059L536 1059L538 1057L545 1057L545 1056L550 1057L553 1054L553 1049L558 1051L561 1051L563 1048L568 1048L570 1044L570 1039L569 1039L569 1032L570 1029L572 1027L572 1023L573 1020L575 1018L575 1013L577 1012L577 1011L577 1005L578 1005L578 1001L580 997L582 996L582 993L585 991L585 987L587 984L591 981L591 978L593 977L595 971L597 970L597 968L599 966L600 966L600 965L601 965L601 964L602 964L602 963L603 963L603 962L604 962L604 961L605 961L605 960L606 960L606 959L607 959L608 957L610 957L612 955L613 949L615 947L616 947L616 946L617 946L620 943L620 939L621 936L624 933L624 930L627 927L628 920L631 921L632 922L633 923L634 927L636 928L637 930L637 934L638 938L640 941L642 942L642 945L643 945L643 948L647 951L648 954L648 958L650 960L650 964L652 966L652 968L653 968L655 971L655 975L659 979L658 982L658 984L659 985L659 991L661 993L662 1003L657 1006L652 1010L649 1014L645 1015L644 1017L642 1017L638 1022L633 1023L630 1027L628 1027L627 1028L626 1030L625 1031L623 1031L622 1032L621 1035L619 1036L619 1038L617 1039L616 1043L614 1044L614 1046L612 1047L612 1049L611 1049L611 1051L610 1053L608 1054L607 1056L606 1059L606 1063L605 1063L604 1069L606 1072L607 1073L610 1074L615 1074L618 1073L622 1070L625 1070L627 1069L627 1068L629 1068L631 1067L632 1065L636 1064L639 1061L640 1060L640 1058L643 1057L644 1055L645 1054L648 1054L649 1052L651 1052L652 1051L653 1049L654 1048L660 1045L663 1045L664 1043L666 1043L667 1042L669 1040L669 1039L670 1039L670 1038L672 1036L677 1035L677 1033L680 1031L682 1031L683 1029L685 1029L686 1028L690 1022L693 1021L693 1019L696 1017L699 1017L700 1015L702 1015L703 1014L704 1012L705 1011L708 1011L710 1008L714 1008L717 1006L718 1003L721 1002L722 1000L723 999L725 999L726 998L727 995L734 993L738 990L738 988L740 988L741 987L741 986L742 985L744 985L745 983L748 983L750 980L752 980L753 979L754 977L757 975L762 975L766 973L768 970L770 970L771 968L773 968L774 966L776 966L778 963L782 962L783 960L787 958L787 954L784 951L779 949L774 948L772 949L772 948L768 948L768 947L765 947L761 947L760 947L759 947L758 947L752 947L752 948L748 948L745 949L745 950L742 951L738 951L734 954L731 955L728 955L725 956L721 959L718 959L716 960L716 961L714 961L711 964L705 964L699 968L695 968L692 966L690 963L689 962L687 962L686 957L684 956L684 953L681 951L679 945L677 944L677 942L674 940L672 935L673 930L670 929L668 927L666 923L664 918L664 913L660 909L660 905L656 901L655 898L655 892L652 890L652 884L657 880L657 878L658 877L660 875L661 875L661 874L662 874L664 872L664 870L666 869L666 866L667 865L669 864L670 863L672 857L674 856L674 854L676 853L676 851L678 850L678 848L681 846L682 842L683 841L688 839L689 836L692 834L694 829L697 828L698 827L698 825L701 823L701 821L702 820L704 819L705 818L705 816L706 815L708 814L709 813L709 810L710 809L712 808L713 805L716 804L717 801L720 800L721 797L723 795L724 795L724 794L725 794L725 793L726 793L726 792L727 792L727 791L728 791L728 790L729 790L732 787L732 785L735 783L737 777L740 776L741 775L742 774L746 767L746 764L747 763L751 760L751 758L752 757L755 756L757 753L758 748L760 745L762 744L763 742L763 738L764 735L765 735L765 732L769 727L769 723L772 722L774 719L776 713L779 711L779 709L781 708L783 704L783 701L785 699L785 694L788 691L788 685L787 685L787 679L784 678L777 678L774 679L772 681L770 688L767 690L767 692L766 693L763 696L759 695L756 698L751 698L750 701L749 702L748 703L746 703L745 704L744 706L741 707L740 708L739 712L737 714L736 714L736 715L735 715L733 718L731 718L730 719L727 722L726 726L724 727L723 730L720 731L719 732L714 736L713 739L712 740L711 741L709 741L708 742L706 744L706 745L705 745L705 746L703 748L701 748L700 749L697 752L697 754L696 755L695 756L692 757L691 760L687 763L686 764L686 766L683 766L683 767L682 770L680 771L680 773L677 777L675 777L674 781L670 784L669 785L669 787L666 788L664 792L661 793L657 796L656 799L655 800L651 801L653 798L653 794L654 794L655 790L655 788L654 785L658 782L658 777L660 773L663 768L666 766L667 762L670 760L670 755L673 750L676 748L676 746L678 745L678 743L680 742L680 740L683 738L684 734L685 734L685 732L687 727L689 724L690 724L691 722L692 716L694 713L697 711L698 707L698 704L700 700L703 698L703 696L706 694L707 690L710 689L709 686L710 682L712 682L712 678L714 676L714 674L715 674L715 672L716 672L716 670L718 668L718 665L721 662L721 659L723 658L724 654L725 654L725 652L727 650L727 646L729 643L729 639L731 636L731 630L733 627L737 624L739 619L739 615L739 614L739 613L739 612L739 607L738 607L738 604L738 595L737 595L737 590L729 589L728 592L726 594L725 595L723 595L723 599L721 600L720 606L719 607L717 608L713 608L710 612L709 613L707 613L705 616L704 621L700 623L699 628L697 632L694 634L692 638L692 643L689 644L687 650L684 654L681 655L679 661L676 663L676 665L674 666L674 668L673 669L669 672L669 674L667 675L663 686L661 688L660 689L658 690L657 691L655 693L654 697L649 701L649 703L646 705L646 707L645 708L643 710L642 710L642 711L641 711L641 712L640 712L640 713L639 713L636 719L633 720L632 721L632 723L630 724L630 726L628 727L628 729L625 731L625 733L624 734L619 740L616 741L615 745L612 746L611 749L609 751L608 751L608 752L607 752L604 755L601 759L601 755L602 752L603 752L604 749L604 745L606 741L608 739L608 736L610 734L610 731L612 729L612 725L614 722L613 718L616 716L617 712L619 712L621 709L622 705L625 703L627 699L627 694L632 690L634 684L637 682L637 680L639 679L640 674L641 674L642 672L642 668L646 664L645 661L650 654L650 649L653 647L653 643L657 640L657 634L660 631L660 626L662 622L665 620L665 615L668 611L667 605L670 602L669 599L671 596L671 592L674 589L674 584L676 583L676 582L676 576L679 573L678 571L680 569L680 565L681 565L681 557L683 556L683 555L683 550L685 547L686 547L687 545L688 542L687 538L690 535L690 532L692 530L693 527L693 524L694 524L694 520L696 518L696 516L697 516L699 513L699 507L702 503L702 498L697 490L689 490L685 495L680 494L677 495L676 498L674 500L673 500L673 501L672 501L669 504L670 507L668 511L665 512L662 519L663 516L663 510L665 508L665 504L664 504L663 500L663 498L664 497L664 489L665 489L665 486L665 478L664 478L664 473L663 473L663 469L662 469L662 464L660 462L661 458L660 455L660 447L659 444L657 444L657 441L656 441L656 438L655 438L655 435L653 433L653 431L652 431L652 429L651 429L650 427L650 424L647 421L648 417L647 413L645 411L642 404L642 398L641 398L641 394L639 392L639 388L637 385L635 384L633 380L633 375L631 375L631 371L628 370L627 364L625 363L625 360L623 357L621 356L619 352L613 352L613 353L608 353L605 351M146 355L146 356L140 356L136 359L135 362L135 366L133 368L135 373L135 378L138 384L142 384L143 384L144 384L145 384L146 384L147 384L148 384L149 384L155 384L159 382L163 378L163 374L164 374L164 371L164 361L162 358L160 356L156 356L156 355L153 355L146 355z"/>
<path style="fill:#ffffff; stroke:none;" d="M207 358L204 360L202 365L198 369L198 374L199 374L199 379L201 384L205 388L210 388L210 387L214 387L219 384L220 381L221 381L222 379L222 373L223 373L223 367L222 367L222 363L218 359L215 358L207 358M145 362L143 364L145 368L144 372L145 376L146 377L150 377L152 375L154 371L154 368L153 366L148 362L145 362z"/>
<path style="fill:#000000; stroke:none;" d="M190 505L190 507L192 507L192 505L190 505M88.3333 510.667L88.6667 511.333L88.3333 510.667z"/>
<path style="fill:#ffffff; stroke:none;" d="M563 523L563 525L565 525L565 523L563 523M556 534L555 537L553 538L552 542L550 544L547 545L546 552L543 553L542 554L541 555L539 562L537 563L537 565L536 565L535 570L531 573L531 577L529 579L528 585L526 587L526 591L523 594L519 602L515 610L514 615L513 615L513 617L512 619L510 620L510 622L509 622L508 624L508 627L505 633L502 634L501 640L499 645L497 646L497 648L496 648L496 650L495 650L495 652L494 652L493 656L491 657L488 662L488 667L487 670L486 670L485 675L481 678L479 682L480 685L479 688L477 689L476 694L473 696L472 700L470 701L469 706L467 709L465 710L464 712L464 716L462 720L460 721L460 724L458 726L458 729L456 734L453 736L453 739L451 740L449 744L447 752L443 755L442 759L440 761L439 761L439 762L438 762L437 764L435 764L434 765L431 768L431 771L430 772L429 772L428 773L428 775L425 773L421 772L422 769L419 766L419 762L419 761L419 760L419 759L419 758L419 757L419 756L419 755L419 749L420 749L420 742L422 739L424 729L423 726L423 721L424 718L426 716L427 713L427 706L429 704L429 700L431 699L431 698L431 691L432 691L432 687L434 684L433 681L433 680L434 676L438 672L438 668L438 667L438 666L438 665L438 661L439 661L439 655L441 653L441 648L442 648L442 643L443 643L443 638L446 636L446 628L447 628L447 623L449 620L448 615L450 613L450 608L451 608L453 601L447 601L446 600L446 595L447 595L447 592L447 585L449 578L446 579L442 583L440 587L440 590L437 593L437 596L435 597L434 602L433 602L432 604L432 609L430 612L429 612L429 614L428 614L428 616L427 616L426 620L423 621L422 626L421 626L420 629L420 633L415 639L415 643L411 645L410 648L410 653L407 654L404 658L403 663L401 664L401 667L399 670L398 670L398 672L397 674L394 675L394 678L391 679L389 683L390 688L388 692L385 694L385 701L381 704L381 708L379 712L377 713L376 715L373 722L373 728L370 731L370 735L368 738L367 738L366 740L366 749L363 751L363 753L363 759L361 760L361 761L361 767L359 769L360 772L360 773L359 778L357 780L358 782L354 788L355 791L353 793L353 798L352 798L352 802L351 802L351 805L351 813L350 813L350 816L350 819L350 822L349 822L348 827L349 830L349 831L348 836L345 837L345 841L345 842L345 843L345 844L345 845L345 846L345 847L345 848L346 854L345 857L346 862L347 862L347 865L347 872L349 875L349 879L349 880L349 881L349 882L349 888L350 888L350 892L353 894L353 898L354 901L356 902L358 906L358 912L360 914L361 915L363 915L362 922L365 924L367 929L366 936L368 938L368 942L370 944L371 947L371 955L373 957L373 959L371 962L374 964L373 969L375 973L377 975L378 978L378 981L379 981L379 985L380 988L382 989L383 992L383 995L382 995L382 1002L388 1005L388 1013L386 1014L386 1015L386 1024L388 1027L388 1033L389 1034L393 1034L394 1036L398 1036L401 1039L404 1040L408 1040L409 1040L410 1040L411 1040L415 1040L415 1042L417 1042L423 1042L423 1043L427 1043L427 1042L430 1042L434 1042L435 1042L436 1042L437 1042L444 1042L444 1043L451 1043L451 1044L456 1043L458 1043L459 1044L467 1044L467 1043L475 1044L476 1044L479 1043L482 1045L490 1045L490 1049L496 1049L496 1048L501 1048L501 1049L508 1048L511 1048L511 1049L515 1049L516 1049L517 1049L518 1049L523 1049L523 1048L528 1048L531 1046L536 1046L536 1045L542 1045L544 1041L551 1040L553 1044L555 1044L556 1043L558 1040L559 1037L560 1033L556 1029L561 1029L561 1019L563 1016L563 1011L565 1010L565 1006L567 1003L567 999L571 993L573 985L577 981L577 977L579 974L580 974L580 972L581 970L583 969L583 967L584 966L586 966L589 963L591 958L594 957L595 953L597 951L598 951L598 950L599 950L599 949L600 949L600 948L601 948L601 947L602 947L602 946L603 946L606 943L607 937L609 937L612 932L612 928L615 925L617 920L617 916L620 912L620 908L621 908L621 900L625 896L628 896L629 895L630 894L631 893L631 891L632 890L634 889L635 888L635 886L636 885L638 883L639 883L639 882L640 882L641 880L642 879L644 879L646 874L649 871L652 870L653 867L655 866L656 863L659 862L661 858L661 856L663 855L664 850L668 847L669 843L670 843L670 841L671 839L674 838L675 835L679 832L679 830L682 828L682 826L683 825L685 824L686 823L687 819L692 815L692 811L696 810L697 807L699 806L699 804L703 799L704 798L706 798L710 792L713 791L714 788L716 786L717 786L717 785L718 785L721 782L721 779L722 778L725 777L727 775L728 772L732 769L732 767L735 765L736 761L739 759L739 757L741 756L741 754L743 753L743 749L747 746L747 743L748 742L749 742L750 741L752 739L751 735L748 737L743 737L741 735L741 729L743 725L747 722L747 720L751 716L750 715L748 716L746 718L746 719L745 719L745 720L744 720L744 721L743 721L743 722L742 722L742 723L741 723L741 724L739 725L739 728L738 729L737 730L736 731L731 733L730 736L726 741L723 742L722 745L720 746L719 749L718 750L716 750L713 754L711 754L710 755L707 759L706 760L704 760L703 763L700 764L699 767L697 769L696 769L696 770L695 770L695 771L694 772L692 772L691 777L690 778L688 778L685 781L684 785L681 787L681 789L678 791L678 794L677 795L676 796L673 797L673 799L671 799L670 800L669 802L668 803L666 803L666 805L663 806L661 810L655 812L654 815L650 817L646 817L646 818L637 817L634 812L634 808L632 805L632 801L635 798L635 796L637 795L637 792L640 790L641 785L643 784L644 780L647 778L647 773L651 766L654 765L656 762L657 757L659 756L662 751L662 748L664 747L665 743L667 742L667 740L670 738L671 734L672 734L672 732L673 730L675 729L675 727L676 727L676 725L677 725L677 723L678 723L679 718L681 715L684 713L684 709L687 706L688 701L689 701L689 699L690 699L690 697L691 697L691 695L693 694L694 690L696 689L696 687L698 686L700 683L700 679L701 676L704 673L704 670L706 668L706 665L707 663L708 663L708 661L709 661L709 659L710 659L710 657L711 657L712 655L712 652L713 651L710 653L703 652L702 646L700 646L698 649L698 651L696 652L696 654L694 655L694 657L692 658L692 660L690 663L689 664L687 664L686 665L684 668L684 671L681 673L681 675L679 676L679 678L677 679L675 685L673 686L673 688L670 690L670 692L669 693L667 694L666 695L666 697L663 699L663 701L662 702L660 703L659 704L659 706L657 707L657 709L655 710L655 712L654 713L649 717L649 719L648 720L644 723L644 725L643 726L641 727L640 728L639 732L635 735L635 737L632 739L632 741L630 742L630 744L629 745L627 747L626 747L626 748L625 748L625 749L624 749L624 750L623 750L623 751L622 751L622 752L621 752L619 754L619 757L618 758L616 759L615 762L611 763L610 765L608 765L606 767L606 768L605 768L605 769L601 772L594 772L594 773L589 773L587 770L585 763L588 761L588 755L590 753L590 751L591 751L592 749L592 745L594 744L594 743L594 740L594 739L597 733L600 731L601 728L601 723L603 719L604 719L605 716L605 712L608 707L610 706L611 701L616 697L617 694L617 691L618 691L618 687L621 683L624 682L625 678L626 678L626 676L627 674L631 671L631 667L633 663L635 661L635 658L639 652L639 647L642 645L644 640L644 636L647 634L647 630L648 627L649 627L650 622L652 621L653 619L653 615L654 615L654 611L655 608L656 608L656 605L658 603L658 598L659 595L661 593L662 590L662 586L664 583L663 577L666 576L665 573L667 568L668 565L669 565L670 562L670 557L671 557L671 552L668 549L669 541L663 541L663 546L661 549L658 551L658 554L656 555L656 559L652 563L651 568L650 568L649 570L649 575L647 578L644 579L641 584L640 589L638 590L637 592L637 595L635 599L633 599L632 601L632 603L631 603L630 608L627 610L627 612L624 614L624 620L621 622L621 624L620 625L618 627L617 628L615 628L615 632L612 635L612 638L611 639L609 640L608 641L607 646L605 647L605 649L600 654L600 658L595 661L594 662L591 667L590 672L587 674L588 676L586 679L583 680L582 684L579 686L576 691L576 694L572 697L573 699L572 700L569 702L567 708L564 710L564 714L562 717L559 721L558 722L555 723L553 728L551 729L551 731L549 732L549 734L547 735L547 737L545 738L545 740L543 741L543 743L540 745L540 747L538 748L538 750L535 752L534 756L529 760L522 759L520 762L513 762L511 760L511 759L510 759L510 758L508 757L508 752L507 752L507 745L508 745L508 739L509 739L509 734L512 730L512 724L514 722L515 719L515 714L517 712L517 706L521 702L521 698L523 695L526 693L526 689L527 686L528 686L528 683L532 680L532 675L533 672L534 672L534 669L535 669L535 666L537 664L537 662L538 662L541 657L540 653L542 651L542 647L544 645L547 637L547 633L549 629L551 628L551 625L553 623L554 617L557 615L557 611L559 610L559 606L562 603L562 597L564 595L565 592L565 587L567 586L567 585L567 581L568 581L568 576L570 574L570 569L572 567L572 565L573 565L576 559L576 553L578 551L579 546L577 548L572 549L568 551L565 549L564 546L564 541L558 541L556 534z"/>
<path style="fill:#000000; stroke:none;" d="M444 583L443 585L445 585L444 583M444 591L445 592L444 591z"/>
<path style="fill:#ffffff; stroke:none;" d="M709 632L706 638L708 635L711 632L709 632M704 641L705 642L704 641M703 643L704 644L703 643z"/>
<path style="fill:#000000; stroke:none;" d="M581 747L582 749L583 749L584 747L581 747z"/>
<path style="fill:#ffffff; stroke:none;" d="M643 893L640 897L640 899L638 900L638 902L636 903L635 909L639 912L640 917L643 919L642 922L646 925L646 928L648 929L648 933L650 933L650 937L654 941L656 949L660 951L658 955L661 957L661 959L662 959L663 961L663 965L666 966L667 971L668 971L669 973L669 976L672 979L671 982L674 985L674 989L674 990L674 991L674 992L674 998L676 1001L674 1003L673 1003L673 1004L672 1004L672 1005L671 1005L671 1006L670 1006L668 1008L668 1010L667 1011L663 1015L661 1015L659 1018L657 1018L656 1020L654 1020L653 1022L647 1024L646 1026L644 1026L644 1027L642 1027L640 1028L639 1031L636 1032L633 1035L633 1037L631 1038L631 1040L630 1041L628 1043L627 1043L627 1044L626 1044L623 1048L623 1052L621 1054L621 1056L620 1056L619 1060L622 1059L623 1056L626 1055L627 1053L628 1052L630 1052L631 1050L633 1050L634 1048L636 1048L638 1045L641 1045L642 1043L644 1043L646 1040L648 1040L650 1037L652 1037L653 1035L659 1033L660 1031L662 1031L663 1029L665 1029L667 1026L672 1025L675 1021L677 1021L678 1019L682 1018L685 1015L685 1013L686 1012L690 1008L695 1008L697 1006L697 1005L698 1005L698 1004L701 1001L707 999L714 994L714 992L717 992L719 986L723 985L726 981L731 981L734 977L736 977L737 976L740 972L742 972L743 970L749 968L750 966L752 965L758 964L760 962C763.71 961.405 765.806 960.687 767 957L763 957L762 957L761 957L760 957L759 957L758 957L757 957L756 957L755 957L754 957L753 957L752 957L748 957L748 958L742 958L738 961L734 961L731 962L726 966L721 967L721 968L719 968L717 970L711 971L709 973L706 973L704 975L701 976L697 976L697 977L689 978L687 976L685 976L685 975L682 974L681 971L679 970L679 968L676 964L673 963L672 960L672 957L672 955L669 954L667 947L665 946L664 943L664 938L662 935L659 933L659 930L656 927L656 923L653 921L653 913L649 909L650 906L648 901L647 898L646 898L645 893L643 893z"/>
<path style="fill:#000000; stroke:none;" d="M761 959L761 960L765 958L761 959M732 964L730 965L730 966L732 964M710 974L711 975L710 974M705 976L705 977L709 976L705 976M702.667 977.333L703.333 977.667L702.667 977.333M700 978L701 979L700 978M630 1049L633 1047L630 1049M408 1111L407 1114L410 1114L408 1111M449 1184L450 1185L449 1184z"/>
</svg>
