<?xml version="1.0" standalone="yes"?>
<svg xmlns="http://www.w3.org/2000/svg" width="886" height="619">
<path style="fill:#ffffff; stroke:none;" d="M0 0L0 4L0 5L0 6L0 7L0 8L0 9L0 10L0 11L0 12L0 13L0 14L0 15L0 16L0 17L0 18L0 19L0 20L0 21L0 22L0 23L0 24L0 25L0 26L0 27L0 28L0 29L0 30L0 31L0 32L0 33L0 34L0 35L0 36L0 37L0 38L0 39L0 40L0 41L0 42L0 43L0 44L0 45L0 46L0 47L0 48L0 49L0 50L0 51L0 52L0 53L0 54L0 55L0 56L0 57L0 58L0 59L0 60L0 61L0 62L0 63L0 64L0 65L0 66L0 67L0 68L0 69L0 70L0 71L0 72L0 73L0 74L0 75L0 76L0 77L0 78L0 79L0 80L0 81L0 82L0 83L0 84L0 85L0 86L0 87L0 88L0 89L0 90L0 91L0 92L0 93L0 94L0 95L0 96L0 97L0 98L0 99L0 100L0 101L0 102L0 103L0 104L0 105L0 106L0 107L0 108L0 109L0 110L0 111L0 112L0 113L0 114L0 115L0 116L0 117L0 118L0 119L0 120L0 121L0 122L0 123L0 124L0 125L0 126L0 127L0 128L0 129L0 130L0 131L0 132L0 133L0 134L0 135L0 136L0 137L0 138L0 139L0 140L0 141L0 142L0 143L0 144L0 145L0 146L0 147L0 148L0 149L0 150L0 151L0 152L0 153L0 154L0 155L0 156L0 157L0 158L0 159L0 160L0 161L0 162L0 163L0 164L0 165L0 166L0 167L0 168L0 169L0 170L0 171L0 172L0 173L0 174L0 175L0 176L0 177L0 178L0 179L0 180L0 181L0 182L0 183L0 184L0 185L0 186L0 187L0 188L0 189L0 190L0 191L0 192L0 193L0 194L0 195L0 196L0 197L0 198L0 199L0 200L0 201L0 202L0 203L0 204L0 205L0 206L0 207L0 208L0 209L0 210L0 211L0 212L0 213L0 214L0 215L0 216L0 217L0 218L0 219L0 220L0 221L0 222L0 223L0 224L0 225L0 226L0 227L0 228L0 229L0 230L0 231L0 232L0 233L0 234L0 235L0 236L0 237L0 238L0 239L0 240L0 241L0 242L0 243L0 244L0 245L0 246L0 247L0 248L0 249L0 250L0 251L0 252L0 253L0 254L0 255L0 256L0 257L0 258L0 259L0 260L0 261L0 262L0 263L0 264L0 265L0 266L0 267L0 268L0 269L0 270L0 271L0 272L0 273L0 274L0 275L0 276L0 277L0 278L0 279L0 280L0 281L0 282L0 283L0 284L0 285L0 286L0 287L0 288L0 289L0 290L0 291L0 292L0 293L0 294L0 295L0 296L0 297L0 298L0 299L0 300L0 301L0 302L0 303L0 304L0 305L0 306L0 307L0 308L0 309L0 310L0 311L0 312L0 313L0 314L0 315L0 316L0 317L0 318L0 319L0 320L0 321L0 322L0 323L0 324L0 325L0 326L0 327L0 328L0 329L0 330L0 331L0 332L0 333L0 334L0 335L0 336L0 337L0 338L0 339L0 340L0 341L0 342L0 343L0 344L0 345L0 346L0 347L0 348L0 349L0 350L0 351L0 352L0 353L0 354L0 355L0 356L0 357L0 358L0 359L0 360L0 361L0 362L0 363L0 364L0 365L0 366L0 367L0 368L0 369L0 370L0 371L0 372L0 373L0 374L0 375L0 376L0 377L0 378L0 379L0 380L0 381L0 382L0 383L0 384L0 385L0 386L0 387L0 388L0 389L0 390L0 391L0 392L0 393L0 394L0 395L0 396L0 397L0 398L0 399L0 400L0 401L0 402L0 403L0 404L0 405L0 406L0 407L0 408L0 409L0 410L0 411L0 412L0 413L0 414L0 415L0 416L0 417L0 418L0 419L0 420L0 421L0 422L0 423L0 424L0 425L0 426L0 427L0 428L0 429L0 430L0 431L0 432L0 433L0 434L0 435L0 436L0 437L0 438L0 439L0 440L0 441L0 442L0 443L0 444L0 445L0 446L0 447L0 448L0 449L0 450L0 451L0 452L0 453L0 454L0 455L0 456L0 457L0 458L0 459L0 460L0 461L0 462L0 463L0 464L0 465L0 466L0 467L0 468L0 469L0 470L0 471L0 472L0 473L0 474L0 475L0 476L0 477L0 478L0 479L0 480L0 481L0 482L0 483L0 484L0 485L0 486L0 487L0 488L0 489L0 490L0 491L0 492L0 493L0 494L0 495L0 496L0 497L0 498L0 499L0 500L0 501L0 502L0 503L0 504L0 505L0 506L0 507L0 508L0 509L0 510L0 511L0 512L0 513L0 514L0 515L0 516L0 517L0 518L0 519L0 520L0 521L0 522L0 523L0 524L0 525L0 526L0 527L0 528L0 529L0 530L0 531L0 532L0 533L0 534L0 535L0 536L0 537L0 538L0 539L0 540L0 541L0 542L0 543L0 544L0 545L0 546L0 547L0 548L0 549L0 550L0 551L0 552L0 553L0 554L0 555L0 556L0 557L0 558L0 559L0 560L0 561L0 562L0 563L0 564L0 565L0 566L0 567L0 568L0 569L0 570L0 571L0 572L0 573L0 574L0 575L0 576L0 577L0 578L0 579L0 580L0 581L0 582L0 583L0 584L0 585L0 586L0 587L0 588L0 589L0 590L0 591L0 592L0 593L0 594L0 595L0 596L0 597L0 598L0 599L0 600L0 601L0 602L0 603L0 604L0 605L0 606L0 607L0 608L0 609L0 610L0 611L0 612L0 613L0 614L0 615L0 619L4 619L5 619L6 619L7 619L8 619L9 619L10 619L11 619L12 619L13 619L14 619L15 619L16 619L17 619L18 619L19 619L20 619L21 619L22 619L23 619L24 619L25 619L26 619L27 619L28 619L29 619L30 619L31 619L32 619L33 619L34 619L35 619L36 619L37 619L38 619L39 619L40 619L41 619L42 619L43 619L44 619L45 619L46 619L47 619L48 619L49 619L50 619L51 619L52 619L53 619L54 619L55 619L56 619L57 619L58 619L59 619L60 619L61 619L62 619L63 619L64 619L65 619L66 619L67 619L68 619L69 619L70 619L71 619L72 619L73 619L74 619L75 619L76 619L77 619L78 619L79 619L80 619L81 619L82 619L83 619L84 619L85 619L86 619L87 619L88 619L89 619L90 619L91 619L92 619L93 619L94 619L95 619L96 619L97 619L98 619L99 619L100 619L101 619L102 619L103 619L104 619L105 619L106 619L107 619L108 619L109 619L110 619L111 619L112 619L113 619L114 619L115 619L116 619L117 619L118 619L119 619L120 619L121 619L122 619L123 619L124 619L125 619L126 619L127 619L128 619L129 619L130 619L131 619L132 619L133 619L134 619L135 619L136 619L137 619L138 619L139 619L140 619L141 619L142 619L143 619L144 619L145 619L146 619L147 619L148 619L149 619L150 619L151 619L152 619L153 619L154 619L155 619L156 619L157 619L158 619L159 619L160 619L161 619L162 619L163 619L164 619L165 619L166 619L167 619L168 619L169 619L170 619L171 619L172 619L173 619L174 619L175 619L176 619L177 619L178 619L179 619L180 619L181 619L182 619L183 619L184 619L185 619L186 619L187 619L188 619L189 619L190 619L191 619L192 619L193 619L194 619L195 619L196 619L197 619L198 619L199 619L200 619L201 619L202 619L203 619L204 619L205 619L206 619L207 619L208 619L209 619L210 619L211 619L212 619L213 619L214 619L215 619L216 619L217 619L218 619L219 619L220 619L221 619L222 619L223 619L224 619L225 619L226 619L227 619L228 619L229 619L230 619L231 619L232 619L233 619L234 619L235 619L236 619L237 619L238 619L239 619L240 619L241 619L242 619L243 619L244 619L245 619L246 619L247 619L248 619L249 619L250 619L251 619L252 619L253 619L254 619L255 619L256 619L257 619L258 619L259 619L260 619L261 619L262 619L263 619L264 619L265 619L266 619L267 619L268 619L269 619L270 619L271 619L272 619L273 619L274 619L275 619L276 619L277 619L278 619L279 619L280 619L281 619L282 619L283 619L284 619L285 619L286 619L287 619L288 619L289 619L290 619L291 619L292 619L293 619L294 619L295 619L296 619L297 619L298 619L299 619L300 619L301 619L302 619L303 619L304 619L305 619L306 619L307 619L308 619L309 619L310 619L311 619L312 619L313 619L314 619L315 619L316 619L317 619L318 619L319 619L320 619L321 619L322 619L323 619L324 619L325 619L326 619L327 619L328 619L329 619L330 619L331 619L332 619L333 619L334 619L335 619L336 619L337 619L338 619L339 619L340 619L341 619L342 619L343 619L344 619L345 619L346 619L347 619L348 619L349 619L350 619L351 619L352 619L353 619L354 619L355 619L356 619L357 619L358 619L359 619L360 619L361 619L362 619L363 619L364 619L365 619L366 619L367 619L368 619L369 619L370 619L371 619L372 619L373 619L374 619L375 619L376 619L377 619L378 619L379 619L380 619L381 619L382 619L383 619L384 619L385 619L386 619L387 619L388 619L389 619L390 619L391 619L392 619L393 619L394 619L395 619L396 619L397 619L398 619L399 619L400 619L401 619L402 619L403 619L404 619L405 619L406 619L407 619L408 619L409 619L410 619L411 619L412 619L413 619L414 619L415 619L416 619L417 619L418 619L419 619L420 619L421 619L422 619L423 619L424 619L425 619L426 619L427 619L428 619L429 619L430 619L431 619L432 619L433 619L434 619L435 619L436 619L437 619L438 619L439 619L440 619L441 619L442 619L443 619L444 619L445 619L446 619L447 619L448 619L449 619L450 619L451 619L452 619L453 619L454 619L455 619L456 619L457 619L458 619L459 619L460 619L461 619L462 619L463 619L464 619L465 619L466 619L467 619L468 619L469 619L470 619L471 619L472 619L473 619L474 619L475 619L476 619L477 619L478 619L479 619L480 619L481 619L482 619L483 619L484 619L485 619L486 619L487 619L488 619L489 619L490 619L491 619L492 619L493 619L494 619L495 619L496 619L497 619L498 619L499 619L500 619L501 619L502 619L503 619L504 619L505 619L506 619L507 619L508 619L509 619L510 619L511 619L512 619L513 619L514 619L515 619L516 619L517 619L518 619L519 619L520 619L521 619L522 619L523 619L524 619L525 619L526 619L527 619L528 619L529 619L530 619L531 619L532 619L533 619L534 619L535 619L536 619L537 619L538 619L539 619L540 619L541 619L542 619L543 619L544 619L545 619L546 619L547 619L548 619L549 619L550 619L551 619L552 619L553 619L554 619L555 619L556 619L557 619L558 619L559 619L560 619L561 619L562 619L563 619L564 619L565 619L566 619L567 619L568 619L569 619L570 619L571 619L572 619L573 619L574 619L575 619L576 619L577 619L578 619L579 619L580 619L581 619L582 619L583 619L584 619L585 619L586 619L587 619L588 619L589 619L590 619L591 619L592 619L593 619L594 619L595 619L596 619L597 619L598 619L599 619L600 619L601 619L602 619L603 619L604 619L605 619L606 619L607 619L608 619L609 619L610 619L611 619L612 619L613 619L614 619L615 619L616 619L617 619L618 619L619 619L620 619L621 619L622 619L623 619L624 619L625 619L626 619L627 619L628 619L629 619L630 619L631 619L632 619L633 619L634 619L635 619L636 619L637 619L638 619L639 619L640 619L641 619L642 619L643 619L644 619L645 619L646 619L647 619L648 619L649 619L650 619L651 619L652 619L653 619L654 619L655 619L656 619L657 619L658 619L659 619L660 619L661 619L662 619L663 619L664 619L665 619L666 619L667 619L668 619L669 619L670 619L671 619L672 619L673 619L674 619L675 619L676 619L677 619L678 619L679 619L680 619L681 619L682 619L683 619L684 619L685 619L686 619L687 619L688 619L689 619L690 619L691 619L692 619L693 619L694 619L695 619L696 619L697 619L698 619L699 619L700 619L701 619L702 619L703 619L704 619L705 619L706 619L707 619L708 619L709 619L710 619L711 619L712 619L713 619L714 619L715 619L716 619L717 619L718 619L719 619L720 619L721 619L722 619L723 619L724 619L725 619L726 619L727 619L728 619L729 619L730 619L731 619L732 619L733 619L734 619L735 619L736 619L737 619L738 619L739 619L740 619L741 619L742 619L743 619L744 619L745 619L746 619L747 619L748 619L749 619L750 619L751 619L752 619L753 619L754 619L755 619L756 619L757 619L758 619L759 619L760 619L761 619L762 619L763 619L764 619L765 619L766 619L767 619L768 619L769 619L770 619L771 619L772 619L773 619L774 619L775 619L776 619L777 619L778 619L779 619L780 619L781 619L782 619L783 619L784 619L785 619L786 619L787 619L788 619L789 619L790 619L791 619L792 619L793 619L794 619L795 619L796 619L797 619L798 619L799 619L800 619L801 619L802 619L803 619L804 619L805 619L806 619L807 619L808 619L809 619L810 619L811 619L812 619L813 619L814 619L815 619L816 619L817 619L818 619L819 619L820 619L821 619L822 619L823 619L824 619L825 619L826 619L827 619L828 619L829 619L830 619L831 619L832 619L833 619L834 619L835 619L836 619L837 619L838 619L839 619L840 619L841 619L842 619L843 619L844 619L845 619L846 619L847 619L848 619L849 619L850 619L851 619L852 619L853 619L854 619L855 619L856 619L857 619L858 619L859 619L860 619L861 619L862 619L863 619L864 619L865 619L866 619L867 619L868 619L869 619L870 619L871 619L872 619L873 619L874 619L875 619L876 619L877 619L878 619L879 619L886 619L886 615L886 614L886 613L886 612L886 611L886 610L886 609L886 608L886 607L886 606L886 605L886 604L886 603L886 602L886 601L886 600L886 599L886 598L886 597L886 596L886 595L886 594L886 593L886 592L886 591L886 590L886 589L886 588L886 587L886 586L886 585L886 584L886 583L886 582L886 581L886 580L886 579L886 578L886 577L886 576L886 575L886 574L886 573L886 572L886 571L886 570L886 569L886 568L886 567L886 566L886 565L886 564L886 563L886 562L886 561L886 560L886 559L886 558L886 557L886 556L886 555L886 554L886 553L886 552L886 551L886 550L886 549L886 548L886 547L886 546L886 545L886 544L886 543L886 542L886 541L886 540L886 539L886 538L886 537L886 536L886 535L886 534L886 533L886 532L886 531L886 530L886 529L886 528L886 527L886 526L886 525L886 524L886 523L886 522L886 521L886 520L886 519L886 518L886 517L886 516L886 515L886 514L886 513L886 512L886 511L886 510L886 509L886 508L886 507L886 506L886 505L886 504L886 503L886 502L886 501L886 500L886 499L886 498L886 497L886 496L886 495L886 494L886 493L886 492L886 491L886 490L886 489L886 488L886 487L886 486L886 485L886 484L886 483L886 482L886 481L886 480L886 479L886 478L886 477L886 476L886 475L886 474L886 473L886 472L886 471L886 470L886 469L886 468L886 467L886 466L886 465L886 464L886 463L886 462L886 461L886 460L886 459L886 458L886 457L886 456L886 455L886 454L886 453L886 452L886 451L886 450L886 449L886 448L886 447L886 446L886 445L886 444L886 443L886 442L886 441L886 440L886 439L886 438L886 437L886 436L886 435L886 434L886 433L886 432L886 431L886 430L886 429L886 428L886 427L886 426L886 425L886 424L886 423L886 422L886 421L886 420L886 419L886 418L886 417L886 416L886 415L886 414L886 413L886 412L886 411L886 410L886 409L886 408L886 407L886 406L886 405L886 404L886 403L886 402L886 401L886 400L886 399L886 398L886 397L886 396L886 395L886 394L886 393L886 392L886 391L886 390L886 389L886 388L886 387L886 386L886 385L886 384L886 383L886 382L886 381L886 380L886 379L886 378L886 377L886 376L886 375L886 374L886 373L886 372L886 371L886 370L886 369L886 368L886 367L886 366L886 365L886 364L886 363L886 362L886 361L886 360L886 359L886 358L886 357L886 356L886 355L886 354L886 353L886 352L886 351L886 350L886 349L886 348L886 347L886 346L886 345L886 344L886 343L886 342L886 341L886 340L886 339L886 338L886 337L886 336L886 335L886 334L886 333L886 332L886 331L886 330L886 329L886 328L886 327L886 326L886 325L886 324L886 323L886 322L886 321L886 320L886 319L886 318L886 317L886 316L886 315L886 314L886 313L886 312L886 311L886 310L886 309L886 308L886 307L886 306L886 305L886 304L886 303L886 302L886 301L886 300L886 299L886 298L886 297L886 296L886 295L886 294L886 293L886 292L886 291L886 290L886 289L886 288L886 287L886 286L886 285L886 284L886 283L886 282L886 281L886 280L886 279L886 278L886 277L886 276L886 275L886 274L886 273L886 272L886 271L886 270L886 269L886 268L886 267L886 266L886 265L886 264L886 263L886 262L886 261L886 260L886 259L886 258L886 257L886 256L886 255L886 254L886 253L886 252L886 251L886 250L886 249L886 248L886 247L886 246L886 245L886 244L886 243L886 242L886 241L886 240L886 239L886 238L886 237L886 236L886 235L886 234L886 233L886 232L886 231L886 230L886 229L886 228L886 227L886 226L886 225L886 224L886 223L886 222L886 221L886 220L886 219L886 218L886 217L886 216L886 215L886 214L886 213L886 212L886 211L886 210L886 209L886 208L886 207L886 206L886 205L886 204L886 203L886 202L886 201L886 200L886 199L886 198L886 197L886 196L886 195L886 194L886 193L886 192L886 191L886 190L886 189L886 188L886 187L886 186L886 185L886 184L886 183L886 182L886 181L886 180L886 179L886 178L886 177L886 176L886 175L886 174L886 173L886 172L886 171L886 170L886 169L886 168L886 167L886 166L886 165L886 164L886 163L886 162L886 161L886 160L886 159L886 158L886 157L886 156L886 155L886 154L886 153L886 152L886 151L886 150L886 149L886 148L886 147L886 146L886 145L886 144L886 143L886 142L886 141L886 140L886 139L886 138L886 137L886 136L886 135L886 134L886 133L886 132L886 131L886 130L886 129L886 128L886 127L886 126L886 125L886 124L886 123L886 122L886 121L886 120L886 119L886 118L886 117L886 116L886 115L886 114L886 113L886 112L886 111L886 110L886 109L886 108L886 107L886 106L886 105L886 104L886 103L886 102L886 101L886 100L886 99L886 98L886 97L886 96L886 95L886 94L886 93L886 92L886 91L886 90L886 89L886 88L886 87L886 86L886 85L886 84L886 83L886 82L886 81L886 80L886 79L886 78L886 77L886 76L886 75L886 74L886 73L886 72L886 71L886 70L886 69L886 68L886 67L886 66L886 65L886 64L886 63L886 62L886 61L886 60L886 59L886 58L886 57L886 56L886 55L886 54L886 53L886 52L886 51L886 50L886 49L886 48L886 47L886 46L886 45L886 44L886 43L886 42L886 41L886 40L886 39L886 38L886 37L886 36L886 35L886 34L886 33L886 32L886 31L886 30L886 29L886 28L886 27L886 26L886 25L886 24L886 23L886 22L886 21L886 20L886 19L886 18L886 17L886 16L886 15L886 14L886 13L886 12L886 11L886 10L886 9L886 8L886 7L886 6L886 5L886 4L886 0L882 0L881 0L880 0L879 0L878 0L877 0L876 0L875 0L874 0L873 0L872 0L871 0L870 0L869 0L868 0L867 0L866 0L865 0L864 0L863 0L862 0L861 0L860 0L859 0L858 0L857 0L856 0L855 0L854 0L853 0L852 0L851 0L850 0L849 0L848 0L847 0L846 0L845 0L844 0L843 0L842 0L841 0L840 0L839 0L838 0L837 0L836 0L835 0L834 0L833 0L832 0L831 0L830 0L829 0L828 0L827 0L826 0L825 0L824 0L823 0L822 0L821 0L820 0L819 0L818 0L817 0L816 0L815 0L814 0L813 0L812 0L811 0L810 0L809 0L808 0L807 0L806 0L805 0L804 0L803 0L802 0L801 0L800 0L799 0L798 0L797 0L796 0L795 0L794 0L793 0L792 0L791 0L790 0L789 0L788 0L787 0L786 0L785 0L784 0L783 0L782 0L781 0L780 0L779 0L778 0L777 0L776 0L775 0L774 0L773 0L772 0L771 0L770 0L769 0L768 0L767 0L766 0L765 0L764 0L763 0L762 0L761 0L760 0L759 0L758 0L757 0L756 0L755 0L754 0L753 0L752 0L751 0L750 0L749 0L748 0L747 0L746 0L745 0L744 0L743 0L742 0L741 0L740 0L739 0L738 0L737 0L736 0L735 0L734 0L733 0L732 0L731 0L730 0L729 0L728 0L727 0L726 0L725 0L724 0L723 0L722 0L721 0L720 0L719 0L718 0L717 0L716 0L715 0L714 0L713 0L712 0L711 0L710 0L709 0L708 0L707 0L706 0L705 0L704 0L703 0L702 0L701 0L700 0L699 0L698 0L697 0L696 0L695 0L694 0L693 0L692 0L691 0L690 0L689 0L688 0L687 0L686 0L685 0L684 0L683 0L682 0L681 0L680 0L679 0L678 0L677 0L676 0L675 0L674 0L673 0L672 0L671 0L670 0L669 0L668 0L667 0L666 0L665 0L664 0L663 0L662 0L661 0L660 0L659 0L658 0L657 0L656 0L655 0L654 0L653 0L652 0L651 0L650 0L649 0L648 0L647 0L646 0L645 0L644 0L643 0L642 0L641 0L640 0L639 0L638 0L637 0L636 0L635 0L634 0L633 0L632 0L631 0L630 0L629 0L628 0L627 0L626 0L625 0L624 0L623 0L622 0L621 0L620 0L619 0L618 0L617 0L616 0L615 0L614 0L613 0L612 0L611 0L610 0L609 0L608 0L607 0L606 0L605 0L604 0L603 0L602 0L601 0L600 0L599 0L598 0L597 0L596 0L595 0L594 0L593 0L592 0L591 0L590 0L589 0L588 0L587 0L586 0L585 0L584 0L583 0L582 0L581 0L580 0L579 0L578 0L577 0L576 0L575 0L574 0L573 0L572 0L571 0L570 0L569 0L568 0L567 0L566 0L565 0L564 0L563 0L562 0L561 0L560 0L559 0L558 0L557 0L556 0L555 0L554 0L553 0L552 0L551 0L550 0L549 0L548 0L547 0L546 0L545 0L544 0L543 0L542 0L541 0L540 0L539 0L538 0L537 0L536 0L535 0L534 0L533 0L532 0L531 0L530 0L529 0L528 0L527 0L526 0L525 0L524 0L523 0L522 0L521 0L520 0L519 0L518 0L517 0L516 0L515 0L514 0L513 0L512 0L511 0L510 0L509 0L508 0L507 0L506 0L505 0L504 0L503 0L502 0L501 0L500 0L499 0L498 0L497 0L496 0L495 0L494 0L493 0L492 0L491 0L490 0L489 0L488 0L487 0L486 0L485 0L484 0L483 0L482 0L481 0L480 0L479 0L478 0L477 0L476 0L475 0L474 0L473 0L472 0L471 0L470 0L469 0L468 0L467 0L466 0L465 0L464 0L463 0L462 0L461 0L460 0L459 0L458 0L457 0L456 0L455 0L454 0L453 0L452 0L451 0L450 0L449 0L448 0L447 0L446 0L445 0L444 0L443 0L442 0L441 0L440 0L439 0L438 0L437 0L436 0L435 0L434 0L433 0L432 0L431 0L430 0L429 0L428 0L427 0L426 0L425 0L424 0L423 0L422 0L421 0L420 0L419 0L418 0L417 0L416 0L415 0L414 0L413 0L412 0L411 0L410 0L409 0L408 0L407 0L406 0L405 0L404 0L403 0L402 0L401 0L400 0L399 0L398 0L397 0L396 0L395 0L394 0L393 0L392 0L391 0L390 0L389 0L388 0L387 0L386 0L385 0L384 0L383 0L382 0L381 0L380 0L379 0L378 0L377 0L376 0L375 0L374 0L373 0L372 0L371 0L370 0L369 0L368 0L367 0L366 0L365 0L364 0L363 0L362 0L361 0L360 0L359 0L358 0L357 0L356 0L355 0L354 0L353 0L352 0L351 0L350 0L349 0L348 0L347 0L346 0L345 0L344 0L343 0L342 0L341 0L340 0L339 0L338 0L337 0L336 0L335 0L334 0L333 0L332 0L331 0L330 0L329 0L328 0L327 0L326 0L325 0L324 0L323 0L322 0L321 0L320 0L319 0L318 0L317 0L316 0L315 0L314 0L313 0L312 0L311 0L310 0L309 0L308 0L307 0L306 0L305 0L304 0L303 0L302 0L301 0L300 0L299 0L298 0L297 0L296 0L295 0L294 0L293 0L292 0L291 0L290 0L289 0L288 0L287 0L286 0L285 0L284 0L283 0L282 0L281 0L280 0L279 0L278 0L277 0L276 0L275 0L274 0L273 0L272 0L271 0L270 0L269 0L268 0L267 0L266 0L265 0L264 0L263 0L262 0L261 0L260 0L259 0L258 0L257 0L256 0L255 0L254 0L253 0L252 0L251 0L250 0L249 0L248 0L247 0L246 0L245 0L244 0L243 0L242 0L241 0L240 0L239 0L238 0L237 0L236 0L235 0L234 0L233 0L232 0L231 0L230 0L229 0L228 0L227 0L226 0L225 0L224 0L223 0L222 0L221 0L220 0L219 0L218 0L217 0L216 0L215 0L214 0L213 0L212 0L211 0L210 0L209 0L208 0L207 0L206 0L205 0L204 0L203 0L202 0L201 0L200 0L199 0L198 0L197 0L196 0L195 0L194 0L193 0L192 0L191 0L190 0L189 0L188 0L187 0L186 0L185 0L184 0L183 0L182 0L181 0L180 0L179 0L178 0L177 0L176 0L175 0L174 0L173 0L172 0L171 0L170 0L169 0L168 0L167 0L166 0L165 0L164 0L163 0L162 0L161 0L160 0L159 0L158 0L157 0L156 0L155 0L154 0L153 0L152 0L151 0L150 0L149 0L148 0L147 0L146 0L145 0L144 0L143 0L142 0L141 0L140 0L139 0L138 0L137 0L136 0L135 0L134 0L133 0L132 0L131 0L130 0L129 0L128 0L127 0L126 0L125 0L124 0L123 0L122 0L121 0L120 0L119 0L118 0L117 0L116 0L115 0L114 0L113 0L112 0L111 0L110 0L109 0L108 0L107 0L106 0L105 0L104 0L103 0L102 0L101 0L100 0L99 0L98 0L97 0L96 0L95 0L94 0L93 0L92 0L91 0L90 0L89 0L88 0L87 0L86 0L85 0L84 0L83 0L82 0L81 0L80 0L79 0L78 0L77 0L76 0L75 0L74 0L73 0L72 0L71 0L70 0L69 0L68 0L67 0L66 0L65 0L64 0L63 0L62 0L61 0L60 0L59 0L58 0L57 0L56 0L55 0L54 0L53 0L52 0L51 0L50 0L49 0L48 0L47 0L46 0L45 0L44 0L43 0L42 0L41 0L40 0L39 0L38 0L37 0L36 0L35 0L34 0L33 0L32 0L31 0L30 0L29 0L28 0L27 0L26 0L25 0L24 0L23 0L22 0L21 0L20 0L19 0L18 0L17 0L16 0L15 0L14 0L13 0L12 0L11 0L10 0L9 0L8 0L7 0L0 0z"/>
<path style="fill:#000000; stroke:none;" d="M428 109L422 110L422 111L418 111L415 112L413 114L408 114L408 115L404 115L404 116L400 116L400 117L396 117L393 118L391 120L389 120L389 121L387 122L383 122L381 124L376 124L376 125L371 125L371 126L367 126L367 127L362 127L360 129L353 132L347 132L344 135L341 135L339 137L336 137L331 139L328 141L328 142L326 143L321 143L319 146L315 146L309 150L305 149L301 150L301 151L297 151L295 153L292 154L288 154L288 155L284 155L284 156L278 156L275 157L271 160L267 160L267 161L261 161L259 163L254 165L249 164L243 165L241 167L232 167L232 168L229 168L226 168L223 169L222 169L219 168L216 169L212 169L211 169L210 169L209 169L208 169L207 169L206 169L205 169L204 169L203 169L202 169L201 169L200 169L199 169L198 169L197 169L196 169L195 169L194 169L193 169L187 169L187 168L180 168L180 167L175 167L175 166L171 166L171 165L166 165L164 163L161 163L159 161L156 160L152 160L150 158L144 160L139 159L137 156L134 155L129 155L126 154L126 153L123 153L120 151L120 150L118 150L115 147L112 146L109 146L106 145L102 147L100 150L95 150L94 150L91 149L91 156L89 158L88 161L88 165L87 165L87 171L86 171L86 176L87 176L86 180L87 183L87 184L86 188L85 188L85 194L84 194L84 197L84 206L83 206L83 211L82 211L82 215L81 215L81 221L80 221L80 228L79 228L79 231L80 240L78 240L78 242L79 245L77 247L77 254L75 256L75 266L74 266L74 270L73 270L73 277L72 277L72 283L71 283L71 288L68 292L67 297L70 300L74 300L76 298L80 298L81 297L81 295L81 292L81 290L83 288L82 283L82 282L83 280L83 272L84 272L83 267L83 264L84 264L84 261L85 261L87 256L86 253L86 250L86 245L88 243L88 236L89 236L90 229L90 226L89 223L92 222L90 217L91 212L93 210L93 203L94 203L94 196L95 196L94 189L97 184L97 181L96 181L97 178L97 176L96 173L97 173L96 170L96 169L96 162L98 156L98 155L100 151L99 154L103 155L104 158L108 158L111 159L116 161L117 163L120 163L120 164L123 165L129 165L133 169L140 169L140 170L144 171L147 170L148 170L150 171L157 171L157 172L161 172L164 173L166 175L169 176L173 176L174 176L175 176L176 176L180 176L180 177L183 177L187 177L188 177L189 177L190 177L194 176L195 176L197 177L200 177L202 177L202 178L205 178L209 178L210 178L211 178L212 178L213 178L214 178L215 178L216 178L220 178L220 177L223 177L230 177L232 175L236 175L237 175L238 175L239 175L243 175L243 174L248 173L252 174L256 173L258 171L263 169L269 170L269 169L274 169L274 168L278 168L278 167L285 167L288 166L292 163L295 162L299 162L300 160L301 160L306 160L306 159L310 159L314 156L317 155L321 155L322 153L326 153L329 152L334 150L337 147L340 147L342 145L347 145L351 142L355 142L358 141L361 138L365 138L365 137L370 137L370 136L375 136L377 134L384 134L387 133L391 130L395 130L397 128L401 128L402 126L403 126L407 126L407 125L411 125L411 124L416 124L416 123L420 123L420 122L423 122L430 122L433 120L441 120L441 121L444 121L448 121L449 121L450 121L451 121L457 121L457 120L462 120L462 121L469 121L469 122L472 122L479 122L479 123L483 123L486 125L490 125L491 125L492 125L493 125L494 125L495 125L496 125L497 125L502 125L502 126L508 126L508 127L514 127L517 129L525 129L526 131L527 131L533 131L533 132L538 133L541 132L543 134L546 133L551 133L551 134L554 134L557 134L560 134L563 137L569 137L574 138L574 139L579 139L579 140L584 141L582 143L581 147L578 148L579 153L569 154L566 154L566 153L563 153L563 154L559 154L558 154L557 154L556 154L555 154L554 154L553 154L552 154L551 154L550 154L549 154L548 154L544 154L544 155L537 155L537 154L533 154L533 155L530 155L526 155L525 155L524 155L523 155L522 155L521 155L520 155L519 155L518 155L517 155L516 155L515 155L509 155L509 154L506 154L502 154L501 154L500 154L499 154L498 154L497 154L496 154L495 154L494 154L493 154L492 154L491 154L485 154L485 155L480 155L477 156L475 158L471 158L471 159L467 159L465 161L465 163L462 168L464 170L465 170L465 171L466 171L467 173L472 172L472 173L475 173L478 173L481 173L481 174L485 174L485 173L488 173L498 172L501 172L501 173L504 173L504 172L508 172L512 176L517 179L523 179L523 180L528 181L531 181L531 180L536 180L539 182L540 182L542 181L549 181L549 182L553 183L558 182L560 185L562 185L563 187L567 188L567 189L569 190L572 191L578 191L578 192L582 192L582 193L586 193L589 195L593 200L596 201L602 201L604 203L608 202L611 202L611 203L616 203L616 204L621 204L621 205L627 205L631 209L636 210L636 211L641 212L643 215L647 217L652 217L654 219L658 219L663 221L664 222L664 224L667 227L672 229L679 229L683 232L681 234L676 234L674 232L668 232L668 231L661 231L658 234L657 242L652 240L643 240L643 239L640 239L637 239L634 239L631 237L627 237L623 234L619 234L619 233L612 233L612 232L608 232L608 231L601 231L598 230L598 229L595 228L591 228L591 227L583 227L581 225L578 224L573 224L573 223L570 223L563 222L562 222L559 223L557 221L552 221L552 220L549 220L542 220L542 219L536 219L536 218L530 218L530 221L529 221L525 221L524 221L523 221L522 221L516 222L515 225L509 224L504 227L502 229L502 230L501 230L501 231L499 232L498 235L498 239L496 241L496 248L499 253L504 254L507 258L511 259L511 261L514 263L521 265L523 268L527 268L529 272L532 273L536 273L539 274L539 275L542 275L544 277L548 277L551 279L561 279L561 278L567 278L567 279L570 279L579 279L579 280L583 280L586 283L592 284L596 283L599 285L599 286L601 287L604 287L606 289L611 289L613 291L617 291L617 292L622 292L626 295L629 294L633 294L633 295L638 295L639 297L640 297L644 297L646 299L650 299L653 302L657 302L658 305L659 306L660 307L664 309L667 309L669 311L672 311L674 313L677 313L679 314L679 315L681 315L683 317L688 317L691 320L693 320L695 323L697 323L699 326L702 327L707 327L707 328L712 328L712 329L716 329L720 332L724 332L728 338L724 336L720 336L713 333L715 337L716 340L716 349L714 351L714 353L713 355L709 355L708 355L707 355L706 355L705 355L704 355L703 355L702 355L698 355L696 353L694 353L694 352L691 350L685 349L680 346L679 344L677 343L673 343L670 342L670 341L667 341L667 340L664 339L660 339L659 337L658 337L651 337L651 336L645 336L643 334L640 333L635 333L632 332L628 329L622 329L619 327L614 327L614 326L610 326L610 325L605 325L605 324L602 324L594 324L594 323L589 322L587 323L587 322L583 322L582 322L581 322L580 322L579 322L578 322L577 322L576 322L575 322L574 322L573 322L572 322L568 322L568 321L565 321L561 321L560 321L559 321L558 321L551 321L551 320L544 320L544 321L541 321L532 321L532 322L529 322L525 322L524 322L523 322L522 322L521 322L520 322L519 322L518 322L517 322L516 322L515 322L514 322L510 322L510 321L505 321L505 320L502 320L493 320L493 319L490 319L486 319L485 319L484 319L483 319L479 319L479 320L476 320L469 320L467 322L464 321L456 326L452 326L452 327L448 327L447 330L444 332L442 332L441 333L437 337L437 340L435 341L435 343L432 345L431 348L431 353L430 353L430 357L433 360L432 363L432 372L435 375L436 381L439 383L439 386L441 387L442 392L446 394L447 398L449 400L450 400L450 401L451 401L453 404L457 404L459 406L463 406L465 409L469 410L470 412L472 413L475 413L480 415L483 418L490 421L494 421L496 423L499 423L501 424L502 427L506 428L506 429L508 430L511 430L515 432L517 435L521 436L522 439L525 442L531 443L533 445L539 445L542 446L544 448L544 449L545 449L545 450L546 450L546 451L547 451L547 452L548 452L549 453L549 455L552 456L556 456L556 457L564 457L564 458L568 458L570 462L575 463L576 464L576 466L577 467L582 469L582 470L580 471L576 471L572 474L565 474L563 472L560 471L552 471L552 470L547 470L547 469L539 469L539 468L531 468L531 467L526 467L526 466L523 466L520 466L517 466L516 464L512 464L509 461L505 461L502 460L500 458L494 457L489 455L487 452L482 451L480 448L477 447L474 447L474 446L468 446L468 445L465 445L458 445L456 443L451 443L449 441L446 440L443 440L443 439L439 439L437 437L434 436L426 436L426 435L422 435L422 434L415 434L415 433L409 433L407 431L402 431L400 429L396 429L394 426L391 425L388 425L385 424L380 422L379 420L376 419L371 419L371 418L367 418L366 416L365 416L362 416L361 416L358 414L354 409L350 409L350 408L348 408L346 407L345 405L343 405L340 401L334 400L332 398L330 398L330 397L328 397L325 393L320 392L319 390L315 389L314 387L312 387L312 386L310 386L308 385L307 383L305 383L304 381L301 379L296 378L295 376L293 376L293 375L291 374L289 375L287 374L287 373L285 373L283 371L279 372L277 370L273 370L271 368L265 367L260 364L259 362L254 359L251 359L250 357L247 356L242 356L241 354L240 354L236 354L233 352L229 352L225 350L225 346L223 344L220 343L218 341L218 340L217 340L217 339L215 335L211 334L209 331L207 326L204 325L201 320L200 319L198 319L195 317L194 314L193 313L192 312L188 312L185 309L182 308L179 308L179 307L175 307L172 306L170 304L167 303L162 303L162 302L158 301L155 302L153 300L150 301L146 301L146 300L141 300L141 301L138 301L131 301L131 300L126 300L126 301L121 302L118 302L118 301L108 302L106 302L101 300L99 302L93 303L91 301L88 302L83 302L83 303L75 303L75 304L69 304L66 307L66 313L70 316L78 317L80 315L84 316L95 315L98 314L105 313L108 314L111 313L115 313L116 313L117 313L118 313L119 313L120 313L121 313L122 313L123 313L124 313L125 313L126 313L131 313L131 312L134 312L143 312L143 313L146 313L156 313L156 314L163 313L167 316L171 316L171 317L177 317L181 319L184 321L184 323L186 323L187 324L187 325L191 326L193 330L196 331L198 333L198 334L199 334L199 335L202 337L202 339L203 340L208 344L208 346L209 347L212 350L213 351L215 351L216 355L220 359L224 360L224 361L226 361L228 363L234 363L234 364L238 364L241 365L241 366L244 366L244 367L247 367L249 369L251 369L253 370L254 373L258 374L259 376L261 377L265 377L267 379L272 379L275 381L280 381L282 383L287 383L293 386L295 389L297 389L298 390L303 395L307 395L313 398L313 400L317 401L315 406L317 403L324 407L329 409L332 409L334 410L338 415L340 415L342 418L344 418L345 420L353 424L358 424L361 427L365 427L367 429L372 429L375 430L377 432L379 432L379 433L381 433L382 435L384 435L384 436L386 436L386 437L388 437L388 438L391 440L400 440L400 441L404 441L406 443L410 443L410 444L414 444L416 446L423 446L423 447L427 447L427 448L431 448L431 449L435 449L438 451L443 451L446 452L450 455L454 455L455 455L456 455L457 455L464 455L464 456L468 456L471 458L475 457L479 459L482 463L486 464L486 465L488 466L491 466L493 468L502 472L508 473L510 475L513 476L517 476L517 477L521 477L521 478L526 478L529 480L535 480L538 482L548 482L548 483L554 483L554 484L561 484L561 485L564 485L574 485L574 484L577 484L584 484L584 483L589 483L588 486L591 491L593 492L594 494L594 498L596 500L597 500L597 501L598 501L599 503L601 503L602 505L606 505L606 506L614 506L614 505L618 505L620 507L625 507L625 506L629 506L629 505L637 505L637 504L642 504L642 503L646 503L649 500L653 500L653 499L659 499L666 496L669 494L670 492L672 492L673 490L677 489L679 486L681 481L685 481L687 479L693 479L693 478L697 478L698 474L701 471L703 471L705 469L704 460L704 458L705 455L703 452L701 451L700 449L700 444L698 441L694 437L691 437L687 434L689 432L689 424L685 419L683 411L680 406L678 404L677 404L677 403L676 403L675 401L673 401L672 400L671 397L670 397L670 395L669 395L669 393L668 393L668 391L664 388L664 386L663 385L661 384L660 383L660 381L659 380L657 379L656 378L656 376L655 375L653 373L652 373L652 372L651 372L651 371L650 371L650 370L649 370L649 369L648 369L648 368L647 368L647 367L646 367L646 366L645 366L645 365L644 365L644 364L643 364L643 363L642 363L642 362L641 362L641 361L640 361L640 360L639 360L637 358L637 356L636 355L633 354L632 353L631 349L626 348L625 345L623 345L622 344L619 338L625 339L625 340L630 340L630 341L636 341L636 342L641 342L643 344L647 344L649 346L653 346L654 348L655 348L659 348L659 349L663 349L665 351L673 351L676 355L681 356L681 357L683 358L690 361L694 361L697 363L702 363L704 365L709 364L713 367L717 367L718 367L719 367L720 367L721 367L722 367L723 367L724 367L728 367L728 368L734 368L734 369L737 369L740 369L743 369L745 371L750 371L752 373L757 373L760 371L764 367L766 361L764 360L764 359L765 353L764 350L761 345L759 343L753 341L750 337L745 336L745 335L742 335L740 333L737 333L732 330L729 324L725 324L722 323L720 321L716 321L716 320L710 320L706 318L704 316L704 315L703 315L703 314L701 312L695 311L693 309L689 309L683 305L679 305L677 303L674 303L670 301L669 299L667 299L666 297L664 297L664 296L662 296L662 295L660 295L660 294L658 293L653 293L650 290L647 289L644 289L644 288L640 288L637 286L632 286L632 285L625 285L621 282L618 281L615 281L615 280L612 280L612 279L607 279L605 277L599 276L595 273L592 272L585 271L584 264L581 263L579 259L576 258L576 257L574 257L571 255L569 247L568 246L566 246L565 245L565 243L564 243L564 241L563 239L561 238L560 233L564 233L565 233L566 233L567 233L574 233L575 235L576 235L581 235L584 237L588 237L588 238L592 239L593 239L597 238L599 240L603 241L606 240L607 240L613 241L616 242L616 243L619 243L619 244L622 245L626 245L629 246L629 247L632 248L638 248L638 249L641 249L644 249L647 249L654 251L654 253L660 253L661 255L662 255L669 256L669 258L671 258L672 259L672 260L673 261L676 261L677 262L681 267L683 267L684 269L687 270L691 270L695 273L699 273L700 273L701 273L702 273L703 273L704 273L705 273L706 273L713 273L716 271L716 270L718 270L722 267L722 260L721 260L720 254L725 250L724 246L720 242L718 242L717 240L715 240L714 239L709 234L704 234L702 231L696 229L695 227L693 227L692 224L688 222L683 219L676 219L673 217L670 213L666 213L662 210L655 209L650 206L646 202L641 202L637 200L635 198L631 198L631 197L627 197L627 196L623 196L623 195L618 195L618 194L611 194L611 193L607 193L607 192L601 192L598 191L594 186L589 185L587 183L577 183L574 180L570 179L570 178L568 178L568 177L566 177L566 176L564 175L560 175L560 174L556 174L556 173L549 173L547 171L543 171L542 171L541 171L540 171L539 171L538 171L537 171L536 171L529 169L528 169L527 171L523 170L523 169L521 169L517 165L527 164L529 164L530 165L535 165L535 166L541 166L541 165L544 165L551 165L551 164L557 164L557 163L560 163L564 163L565 163L566 163L567 163L568 163L569 163L570 163L571 163L572 163L573 163L574 163L575 163L581 162L583 162L586 163L593 161L595 161L600 164L604 163L607 165L616 165L616 166L620 166L620 167L628 167L633 164L635 160L635 153L633 151L633 146L631 144L630 144L630 143L629 143L628 141L622 139L617 135L615 137L608 136L605 135L605 134L602 133L596 133L596 132L588 132L586 130L579 130L579 129L572 129L570 127L565 127L563 125L558 124L555 124L555 125L550 125L550 124L544 124L544 123L539 122L536 122L536 123L533 123L533 122L528 122L526 120L521 120L521 119L517 119L514 117L509 117L509 116L506 116L499 116L499 115L492 115L489 114L487 112L479 112L479 111L472 111L472 110L469 110L461 110L461 109L458 109L454 109L453 109L452 109L451 109L450 109L449 109L448 109L447 109L446 109L445 109L444 109L443 109L436 109L436 110L431 109L428 109z"/>
<path style="fill:#ffffff; stroke:none;" d="M533 232L533 233L527 233L527 234L522 234L522 235L515 234L512 236L512 240L510 243L510 244L511 248L513 250L519 252L520 254L522 255L525 255L527 257L531 257L532 261L537 262L539 264L542 265L546 265L549 266L551 268L554 269L560 269L560 270L563 270L570 270L569 267L563 265L563 258L561 255L560 254L559 253L557 253L556 252L554 250L554 249L553 249L553 248L550 246L551 241L548 237L547 236L545 235L542 235L539 232L533 232z"/>
<path style="fill:#000000; stroke:none;" d="M336 259L337 260L336 259z"/>
<path style="fill:#ffffff; stroke:none;" d="M493 330L493 331L490 331L486 331L485 331L484 331L483 331L482 331L481 331L480 331L479 331L474 331L471 332L471 333L468 333L468 334L465 334L465 335L462 335L462 336L458 338L453 338L451 340L451 341L450 341L450 342L449 342L449 343L448 343L448 344L445 346L444 349L444 352L443 352L443 361L444 361L444 365L445 365L445 369L446 369L446 373L448 375L448 379L452 382L452 384L455 386L455 388L456 389L459 392L461 392L462 394L468 396L469 398L471 398L472 400L474 400L476 403L479 404L483 404L486 405L490 407L491 409L493 410L497 410L500 411L502 413L504 413L504 414L508 415L509 417L511 417L512 419L516 420L517 422L520 424L525 425L526 427L530 428L531 429L532 433L537 434L537 435L542 435L544 438L547 438L549 441L552 441L553 442L556 446L559 447L563 447L563 448L570 448L573 449L578 451L580 454L582 454L584 457L588 458L589 460L591 461L592 461L596 459L598 453L601 452L603 450L603 449L604 449L604 448L605 447L606 446L608 446L609 443L613 442L614 440L619 439L622 437L622 436L624 435L628 435L631 434L633 432L640 432L638 429L637 424L639 423L638 419L635 417L630 417L631 414L629 412L628 412L628 411L627 411L625 408L623 408L622 407L621 405L620 404L618 404L614 401L613 400L613 398L610 396L610 394L609 393L605 389L603 389L602 388L601 387L600 386L600 384L599 383L593 380L595 377L591 376L589 373L587 373L582 370L581 367L577 364L575 364L574 363L573 360L572 359L570 359L570 358L568 358L566 357L565 352L563 350L562 350L562 349L561 349L560 347L557 347L556 346L553 342L551 342L549 339L547 339L546 337L542 336L542 335L540 334L536 334L535 334L534 334L533 334L532 334L531 334L530 334L529 334L522 332L519 333L516 333L515 333L512 331L505 331L505 330L502 330L493 330M567 333L561 334L562 337L568 338L570 340L570 341L571 341L571 342L573 343L573 346L574 347L577 348L578 350L580 350L582 352L582 353L583 353L583 354L585 356L586 357L588 357L588 359L592 360L595 364L599 364L600 367L605 370L606 371L606 373L608 375L609 375L609 376L610 376L610 377L611 377L611 378L612 378L614 383L617 386L620 387L622 389L622 390L623 390L623 391L626 394L628 394L629 395L632 399L634 399L635 401L637 401L638 402L640 404L640 405L641 405L641 406L644 408L644 410L647 412L647 414L648 415L652 418L652 420L655 422L654 427L658 428L658 429L660 430L663 431L670 431L675 429L673 426L673 421L671 419L670 419L670 418L669 418L669 417L668 417L668 416L667 416L667 415L666 415L666 414L665 414L663 412L663 409L661 408L661 406L659 405L659 401L657 397L655 396L654 392L652 391L651 386L649 383L645 380L645 378L643 377L642 373L636 371L634 368L633 367L631 367L630 361L625 359L624 355L622 353L621 353L621 352L620 352L619 350L617 350L615 347L613 347L612 346L611 344L608 343L607 342L607 340L604 337L599 337L597 335L595 335L595 334L593 333L590 334L586 334L585 334L584 334L583 334L578 333L576 333L575 334L569 333L567 333z"/>
<path style="fill:#000000; stroke:none;" d="M497 339L496 340L499 342L497 339z"/>
<path style="fill:#ffffff; stroke:none;" d="M645 439L643 441L639 441L636 443L631 443L628 445L627 447L626 448L624 448L623 449L622 451L621 452L619 452L618 453L616 455L616 456L615 456L615 457L613 459L611 459L610 460L608 463L607 464L605 464L602 469L602 473L601 473L601 477L603 478L603 479L603 483L604 483L604 488L608 492L612 494L615 493L622 492L624 494L631 494L631 493L635 493L635 492L641 492L642 490L643 490L648 490L649 488L653 488L656 487L656 486L659 486L661 484L661 483L662 483L662 482L663 482L663 481L664 481L664 480L667 478L667 476L666 475L663 473L659 473L656 471L653 467L652 466L650 466L649 463L646 457L644 451L645 444L648 440L645 439z"/>
<path style="fill:#000000; stroke:none;" d="M693.667 613.333L694.333 613.667L693.667 613.333z"/>
</svg>
