<?xml version="1.0" standalone="yes"?>
<svg xmlns="http://www.w3.org/2000/svg" width="294" height="322">
<path style="fill:#ffffff; stroke:none;" d="M0 0L0 4L0 5L0 6L0 7L0 8L0 9L0 10L0 11L0 12L0 13L0 14L0 15L0 16L0 17L0 18L0 19L0 20L0 21L0 22L0 23L0 24L0 25L0 26L0 27L0 28L0 29L0 30L0 31L0 32L0 33L0 34L0 35L0 36L0 37L0 38L0 39L0 40L0 41L0 42L0 43L0 44L0 45L0 46L0 47L0 48L0 49L0 50L0 51L0 52L0 53L0 54L0 55L0 56L0 57L0 58L0 59L0 60L0 61L0 62L0 63L0 64L0 65L0 66L0 67L0 68L0 69L0 70L0 71L0 72L0 73L0 74L0 75L0 76L0 77L0 78L0 79L0 80L0 81L0 82L0 83L0 84L0 85L0 86L0 87L0 88L0 89L0 90L0 91L0 92L0 93L0 94L0 95L0 96L0 97L0 98L0 99L0 100L0 101L0 102L0 103L0 104L0 105L0 106L0 107L0 108L0 109L0 110L0 111L0 112L0 113L0 114L0 115L0 116L0 117L0 118L0 119L0 120L0 121L0 122L0 123L0 124L0 125L0 126L0 127L0 128L0 129L0 130L0 131L0 132L0 133L0 134L0 135L0 136L0 137L0 138L0 139L0 140L0 141L0 142L0 143L0 144L0 145L0 146L0 147L0 148L0 149L0 150L0 151L0 152L0 153L0 154L0 155L0 156L0 157L0 158L0 159L0 160L0 161L0 162L0 163L0 164L0 165L0 166L0 167L0 168L0 169L0 170L0 171L0 172L0 173L0 174L0 175L0 176L0 177L0 178L0 179L0 180L0 181L0 182L0 183L0 184L0 185L0 186L0 187L0 188L0 189L0 190L0 191L0 192L0 193L0 194L0 195L0 196L0 197L0 198L0 199L0 200L0 201L0 202L0 203L0 204L0 205L0 206L0 207L0 208L0 209L0 210L0 211L0 212L0 213L0 214L0 215L0 216L0 217L0 218L0 219L0 220L0 221L0 222L0 223L0 224L0 225L0 226L0 227L0 228L0 229L0 230L0 231L0 232L0 233L0 234L0 235L0 236L0 237L0 238L0 239L0 240L0 241L0 242L0 243L0 244L0 245L0 246L0 247L0 248L0 249L0 250L0 251L0 252L0 253L0 254L0 255L0 256L0 257L0 258L0 259L0 260L0 261L0 262L0 263L0 264L0 265L0 266L0 267L0 268L0 269L0 270L0 271L0 272L0 273L0 274L0 275L0 276L0 277L0 278L0 279L0 280L0 281L0 282L0 283L0 284L0 285L0 286L0 287L0 288L0 289L0 290L0 291L0 292L0 293L0 294L0 295L0 296L0 297L0 298L0 299L0 300L0 301L0 302L0 303L0 304L0 305L0 306L0 307L0 308L0 309L0 310L0 311L0 312L0 313L0 314L0 315L0 322L4 322L5 322L6 322L7 322L8 322L9 322L10 322L11 322L12 322L13 322L14 322L15 322L16 322L17 322L18 322L19 322L20 322L21 322L22 322L23 322L24 322L25 322L26 322L27 322L28 322L29 322L30 322L31 322L32 322L33 322L34 322L35 322L36 322L37 322L38 322L39 322L40 322L41 322L42 322L43 322L44 322L45 322L46 322L47 322L48 322L49 322L50 322L51 322L52 322L53 322L54 322L55 322L56 322L57 322L58 322L59 322L60 322L61 322L62 322L63 322L64 322L65 322L66 322L67 322L68 322L69 322L70 322L71 322L72 322L73 322L74 322L75 322L76 322L77 322L78 322L79 322L80 322L81 322L82 322L83 322L84 322L85 322L86 322L87 322L88 322L89 322L90 322L91 322L92 322L93 322L94 322L95 322L96 322L97 322L98 322L99 322L100 322L101 322L102 322L103 322L104 322L105 322L106 322L107 322L108 322L109 322L110 322L111 322L112 322L113 322L114 322L115 322L116 322L117 322L118 322L119 322L120 322L121 322L122 322L123 322L124 322L125 322L126 322L127 322L128 322L129 322L130 322L131 322L132 322L133 322L134 322L135 322L136 322L137 322L138 322L139 322L140 322L141 322L142 322L143 322L144 322L145 322L146 322L147 322L148 322L149 322L150 322L151 322L152 322L153 322L154 322L155 322L156 322L157 322L158 322L159 322L160 322L161 322L162 322L163 322L164 322L165 322L166 322L167 322L168 322L169 322L170 322L171 322L172 322L173 322L174 322L175 322L176 322L177 322L178 322L179 322L180 322L181 322L182 322L183 322L184 322L185 322L186 322L187 322L188 322L189 322L190 322L191 322L192 322L193 322L194 322L195 322L196 322L197 322L198 322L199 322L200 322L201 322L202 322L203 322L204 322L205 322L206 322L207 322L208 322L209 322L210 322L211 322L212 322L213 322L214 322L215 322L216 322L217 322L218 322L219 322L220 322L221 322L222 322L223 322L224 322L225 322L226 322L227 322L228 322L229 322L230 322L231 322L232 322L233 322L234 322L235 322L236 322L237 322L238 322L239 322L240 322L241 322L242 322L243 322L244 322L245 322L246 322L247 322L248 322L249 322L250 322L251 322L252 322L253 322L254 322L255 322L256 322L257 322L258 322L259 322L260 322L261 322L262 322L263 322L264 322L265 322L266 322L267 322L268 322L269 322L270 322L271 322L272 322L273 322L274 322L275 322L276 322L277 322L278 322L279 322L280 322L281 322L282 322L283 322L284 322L285 322L286 322L287 322L294 322L294 318L294 317L294 316L294 315L294 314L294 313L294 312L294 311L294 310L294 309L294 308L294 307L294 306L294 305L294 304L294 303L294 302L294 301L294 300L294 299L294 298L294 297L294 296L294 295L294 294L294 293L294 292L294 291L294 290L294 289L294 288L294 287L294 286L294 285L294 284L294 283L294 282L294 281L294 280L294 279L294 278L294 277L294 276L294 275L294 274L294 273L294 272L294 271L294 270L294 269L294 268L294 267L294 266L294 265L294 264L294 263L294 262L294 261L294 260L294 259L294 258L294 257L294 256L294 255L294 254L294 253L294 252L294 251L294 250L294 249L294 248L294 247L294 246L294 245L294 244L294 243L294 242L294 241L294 240L294 239L294 238L294 237L294 236L294 235L294 234L294 233L294 232L294 231L294 230L294 229L294 228L294 227L294 226L294 225L294 224L294 223L294 222L294 221L294 220L294 219L294 218L294 217L294 216L294 215L294 214L294 213L294 212L294 211L294 210L294 209L294 208L294 207L294 206L294 205L294 204L294 203L294 202L294 201L294 200L294 199L294 198L294 197L294 196L294 195L294 194L294 193L294 192L294 191L294 190L294 189L294 188L294 187L294 186L294 185L294 184L294 183L294 182L294 181L294 180L294 179L294 178L294 177L294 176L294 175L294 174L294 173L294 172L294 171L294 170L294 169L294 168L294 167L294 166L294 165L294 164L294 163L294 162L294 161L294 160L294 159L294 158L294 157L294 156L294 155L294 154L294 153L294 152L294 151L294 150L294 149L294 148L294 147L294 146L294 145L294 144L294 143L294 142L294 141L294 140L294 139L294 138L294 137L294 136L294 135L294 134L294 133L294 132L294 131L294 130L294 129L294 128L294 127L294 126L294 125L294 124L294 123L294 122L294 121L294 120L294 119L294 118L294 117L294 116L294 115L294 114L294 113L294 112L294 111L294 110L294 109L294 108L294 107L294 106L294 105L294 104L294 103L294 102L294 101L294 100L294 99L294 98L294 97L294 96L294 95L294 94L294 93L294 92L294 91L294 90L294 89L294 88L294 87L294 86L294 85L294 84L294 83L294 82L294 81L294 80L294 79L294 78L294 77L294 76L294 75L294 74L294 73L294 72L294 71L294 70L294 69L294 68L294 67L294 66L294 65L294 64L294 63L294 62L294 61L294 60L294 59L294 58L294 57L294 56L294 55L294 54L294 53L294 52L294 51L294 50L294 49L294 48L294 47L294 46L294 45L294 44L294 43L294 42L294 41L294 40L294 39L294 38L294 37L294 36L294 35L294 34L294 33L294 32L294 31L294 30L294 29L294 28L294 27L294 26L294 25L294 24L294 23L294 22L294 21L294 20L294 19L294 18L294 17L294 16L294 15L294 14L294 13L294 12L294 11L294 10L294 9L294 8L294 7L294 0L290 0L289 0L288 0L287 0L286 0L285 0L284 0L283 0L282 0L281 0L280 0L279 0L278 0L277 0L276 0L275 0L274 0L273 0L272 0L271 0L270 0L269 0L268 0L267 0L266 0L265 0L264 0L263 0L262 0L261 0L260 0L259 0L258 0L257 0L256 0L255 0L254 0L253 0L252 0L251 0L250 0L249 0L248 0L247 0L246 0L245 0L244 0L243 0L242 0L241 0L240 0L239 0L238 0L237 0L236 0L235 0L234 0L233 0L232 0L231 0L230 0L229 0L228 0L227 0L226 0L225 0L224 0L223 0L222 0L221 0L220 0L219 0L218 0L217 0L216 0L215 0L214 0L213 0L212 0L211 0L210 0L209 0L208 0L207 0L206 0L205 0L204 0L203 0L202 0L201 0L200 0L199 0L198 0L197 0L196 0L195 0L194 0L193 0L192 0L191 0L190 0L189 0L188 0L187 0L186 0L185 0L184 0L183 0L182 0L181 0L180 0L179 0L178 0L177 0L176 0L175 0L174 0L173 0L172 0L171 0L170 0L169 0L168 0L167 0L166 0L165 0L164 0L163 0L162 0L161 0L160 0L159 0L158 0L157 0L156 0L155 0L154 0L153 0L152 0L151 0L150 0L149 0L148 0L147 0L146 0L145 0L144 0L143 0L142 0L141 0L140 0L139 0L138 0L137 0L136 0L135 0L134 0L133 0L132 0L131 0L130 0L129 0L128 0L127 0L126 0L125 0L124 0L123 0L122 0L121 0L120 0L119 0L118 0L117 0L116 0L115 0L114 0L113 0L112 0L111 0L110 0L109 0L108 0L107 0L106 0L105 0L104 0L103 0L102 0L101 0L100 0L99 0L98 0L97 0L96 0L95 0L94 0L93 0L92 0L91 0L90 0L89 0L88 0L87 0L86 0L85 0L84 0L83 0L82 0L81 0L80 0L79 0L78 0L77 0L76 0L75 0L74 0L73 0L72 0L71 0L70 0L69 0L68 0L67 0L66 0L65 0L64 0L63 0L62 0L61 0L60 0L59 0L58 0L57 0L56 0L55 0L54 0L53 0L52 0L51 0L50 0L49 0L48 0L47 0L46 0L45 0L44 0L43 0L42 0L41 0L40 0L39 0L38 0L37 0L36 0L35 0L34 0L33 0L32 0L31 0L30 0L29 0L28 0L27 0L26 0L25 0L24 0L23 0L22 0L21 0L20 0L19 0L18 0L17 0L16 0L15 0L14 0L13 0L12 0L11 0L10 0L9 0L8 0L7 0L0 0z"/>
<path style="fill:#000000; stroke:none;" d="M174 73L171 77L171 84L170 87L168 89L168 93L166 96L165 97L164 98L162 98L160 101L157 101L156 99L151 99L148 102L148 105L145 106L147 111L146 114L146 117L147 120L149 122L153 122L153 121L162 120L166 122L167 123L167 125L168 125L168 127L170 129L170 133L170 134L170 135L170 136L170 142L171 142L171 146L175 151L179 150L184 146L186 141L186 135L188 134L188 133L188 129L190 126L190 121L192 119L193 119L193 118L194 118L196 115L200 116L205 114L208 112L210 110L209 107L211 105L211 101L210 101L210 97L209 94L208 93L205 92L201 92L199 94L194 95L192 92L188 92L186 89L183 83L182 74L178 74L178 73L174 73z"/>
<path style="fill:#ffffff; stroke:none;" d="M176 98L175 101L174 101L173 102L173 104L171 104L168 109L172 109L171 112L174 113L175 114L175 116L179 119L179 116L181 112L183 112L183 110L184 109L185 109L187 104L185 102L182 103L178 98L176 98z"/>
<path style="fill:#000000; stroke:none;" d="M79 107L76 109L75 114L76 120L74 122L75 125L75 127L74 131L73 131L73 135L72 138L70 140L69 146L66 147L64 154L62 154L62 156L61 157L60 157L59 158L59 160L58 161L54 163L52 161L44 160L41 162L37 166L35 174L39 177L43 177L43 176L46 176L50 176L51 176L52 176L53 176L59 176L62 178L63 179L64 182L65 183L69 184L69 188L72 189L72 193L75 195L77 199L77 203L79 205L79 211L80 211L80 216L83 220L89 220L93 217L94 214L94 210L95 210L94 206L94 205L96 202L96 197L97 197L96 192L96 191L97 187L98 184L99 184L99 181L103 175L107 175L108 175L109 175L110 175L116 175L118 173L121 172L124 172L128 171L128 164L126 161L123 159L117 159L117 158L112 158L112 157L106 157L100 154L99 151L96 149L95 145L92 143L92 140L89 138L89 131L88 131L88 128L88 124L88 123L88 122L88 121L88 117L87 117L88 111L85 108L79 107z"/>
<path style="fill:#ffffff; stroke:none;" d="M80 145L78 148L79 151L76 152L75 157L71 160L71 162L68 164L68 166L69 167L71 169L72 169L72 170L73 170L76 176L79 177L80 178L80 180L82 181L86 185L87 182L87 175L88 172L92 169L92 167L94 166L93 162L90 161L90 159L87 158L85 155L84 148L82 148L80 145M88 154L93 156L91 153L88 154M106 163L107 164L106 163M75.3333 184.667L75.6667 185.333L75.3333 184.667z"/>
</svg>
